<svg xmlns="http://www.w3.org/2000/svg" viewBox="0 0 305.39 167.47"><defs><style>.cls-1{fill:#fff;}</style></defs><title>Asset 5</title><g id="Layer_2" data-name="Layer 2"><g id="Layer_2-2" data-name="Layer 2"><g id="Layer_3" data-name="Layer 3"><path class="cls-1" d="M22.89,48.33l2.11-.4c7.54-1.43,13.49-.59,17.73,2.87.05.34,2.45,1.19,4.4,3,1.54,1.4,2.6,4,3.19,5.65l-.19,1.09c.62,0,1,.7,1.13,2,0,1.57,0,2.36,0,3.93l.39,1c-.32,4.07-.87,6.1-1.48,6.12l.32.25v.26c-.68,2.06-2.5,5.17-5.57,9.1-.36,0-.83,2.47-1.68,7.32l-3-.36L36.08,90c-3.1,2-5.18,3.07-6.22,3.29,0,.48-1.93,1.65-5.75,3.34C22.55,98.25,21.17,99,20,98.85l0,.45,1.59-.54,0,.23c-3.29,2.92-5,4.74-5.16,5.7l.3,0,1.73.44,1.52.19,1.25-.08,4.44,1,.33-.2,0-.23,3,.61,1.45.18,1.55-.05,1.8.47,1.22.15a54,54,0,0,0,14.37-.54l.28.3c-.69,6-1.14,9-2.27,15l-.35.2,0,.26-1.46-.55-2.94-.56-3.2-.87-2.51,0-4.15-.79L31,119.14l-1,.07-1.16-.47-1.55-.05-3.46-1.14-3.24-.61-1,.28-4.75-.91-1.17-.45H12.45l-3.85-.73-2.68-.73-1.55-.08,0-.21-.34.15-3.55-.68L0,113.07c.19-1,.29-1.54.46-2.57l1-.66-.27-.25.67-.31q-.91-.15-.84-.55l.1-.61.43-.76-.27-.25,0-.15c1.48-4.71,2.59-7.09,3.66-7,.11-1.07,1.37-2.58,3.73-4.68.81-1.29,3.07-2.3,4.76-3.53,1.3-.94,2.92-2.84,4.69-4.18C22.12,85.55,24.1,83,24.05,80l-.33-1.38c0-.46,0-.69,0-1.15s1.6-1.08,4.49-1.31C30,76,31.5,72.4,31.67,64.91c-.1-1.06-.15-1.59-.27-2.64-.22-2-2-3.81-5.22-5.3l-2.13.3c-3.45.48-5.2,2.26-5.93,3.79a5.83,5.83,0,0,0-.92,2.76c.11,1,.16,1.47.25,2.45,0,1.32,0,2,0,3.3.14.62.21.92.34,1.54,0,.7-.07,1-.12,1.74l.28.88-.83.27q-7,.25-7-.07V73.7l-.61,0A.55.55,0,0,1,9,74.4l-1.84.09L6.8,74.3l-.31,0,.26-.85c-.2-1.31-.3-2-.53-3.27l.31,0L6.21,70c.06-.76.09-1.14.15-1.9-.24-1.3-.37-2-.63-3.25l.31,0-.33-.17L5.63,64l.56-.49L5.39,62c.14-.86.2-1.29.33-2.16l-.33-.17L5.3,59q-.06-.41.85-.55l-.05-.37-.27.25-.61.09c-.07-.5-.11-.75-.19-1.24-.25-.81-.38-1.21-.64-2,0-.74,0-1.12,0-1.86l-.11-.62c3.2.58,4.8.9,8,1.59l.61-.1c3.89-3.14,6.7-5,8.56-5.37ZM6.6,101.63l-.33.17,0,.21.31,0,.94-.11,0-.21Zm3.59,11.2,0,.21.91.16.34-.16,0-.22-.3-.05ZM10.81,55c1.34.57,2,.87,3.34,1.47l.3,0c0-.26-1.15-.77-3.34-1.47ZM12,56.57c0,.25.58.39,1.62.42l.3,0,0-.22Zm2.17,42.87.29.19,0,.44q-.92-.09-1,.35l.31,0A4.42,4.42,0,0,1,16,100l0-.22-.61-.06,0-.16c0-.37.76-.67,2.17-.92l0-.45C16.22,98.7,15.53,99,14.16,99.44ZM14,112.59l.3.05.68-.34-.3-.05Zm2.1-55.74,1.26.67,0,.22.61-.09-1.67-.84Zm1.44,42.23-.25.2,0,.22.23,0,1.24-.11,0-.22Zm.73-1.28,0,.45.94-.15,0-.45Zm-.75,13.79-.07.45a11.65,11.65,0,0,1,3.82-.54l0-.23-.3,0Zm.86-53.53.73.81.3,0,0-.23L19,58Zm1.8,39,0,.23.92.07.32-.2,0-.23-.31,0ZM22.48,111l0,.23,1.21.19.07-.46Zm3.64.56L26,112H27.6l0-.24Zm2-2.77.3,0,1.88-.71.06-.48ZM29,55.6l0,.24,1.22-.17,0-.24Zm1.4,55.87-.34.19,0,.24.3,0,.95-.1,0-.24ZM33,65.7l0,.48,1.25.14C34.24,66.08,33.81,65.87,33,65.7Zm2.94,2,0,.25.86.18,0-.49Zm.25-.76,0,.25,1.51.63.31,0c-.13-.32-.66-.61-1.61-.87Zm2.54,2,0,.25.94.19.31,0,0-.25L39,68.92Zm2.82.75,0,.25.32.23,0,.25-.29.27.94.2.83-.31,0-.25Zm1.55,1.43v.25l.35.75.31,0c0-.31,0-.46,0-.77l-.32-.24Zm3.75,1.08.64.49.31,0-.64-.49Zm.72,2.31,1.27.93v-.26l-.95-.68Z"/><path class="cls-1" d="M123.78,28.91c8.75-1.67,16.56,2.25,22.66,12.59,0,.82,0,1.23,0,2.05a26.42,26.42,0,0,1,4.31,12c.11,1.29.17,1.93.27,3.22,0,.52.73.83,2.07.92l1.84,2c-.29,1.08-1.62,2.36-4,3.79-1.09,7-3.54,11.9-7,14.6a.94.94,0,0,1-1.07,1.05v.28c1,1.25,1.48,1.88,2.46,3.14,0,.27,0,.4,0,.67h-.54v.38h.54l.85-.38c1,2.12,1.49,3.18,2.45,5.34,1.13,0,1.84,3.32,1.83,9.89.36,0,.47,1.46.27,4.32l1.25,1.86c-.11,1.41-.16,2.11-.29,3.52a5.55,5.55,0,0,1,4.48,3.29l-.11,1.09a5.75,5.75,0,0,1-5.57,2.3l-.08.68c-2.5,8.59-5.29,12.57-7.81,12.18-1.41,1.88-2.12,2.82-3.56,4.66-4,2.6-6.9,3.65-8.56,3.34l-8.27-.91c-3-.57-6.51-2.82-10.75-6.55-2.92-2-5.06-5.95-6.67-11.64l.08-.58,1-1.14c-.71-.09-1-.94-.77-2.55-.49-.23-1-2-1.66-5.38-1.42-1.57-2.13-2.35-3.58-3.89l0-.33.33-.22c2.67-1.26,4-2.28,4.08-3,.19-2.71,1.14-4.67,2.89-5.93l-.27-.93h.31c.31,0,.76-1.39,1.3-4.24,2.08-3,3.1-4.49,5.09-7.57.56,0,1-.43,1.38-1.29-4-2.45-6.85-7-9-13.55a3.82,3.82,0,0,0-2.45-3.51l-.32-.23c0-.59-.06-.89-.11-1.48.69-1,1-1.53,1.72-2.55-.42-4.87-.07-7.37,1.25-7.52-.13-1.17.15-1.79.86-1.88l.45-.74-.76.09,0-.25c.95-3.07,1.4-4.63,2.26-7.76-.21-1.35.74-3.07,2.81-5.24,2.25-3.54,4.79-5.66,7.71-6.2Q119.18,29.79,123.78,28.91ZM106.58,116l-.35.3-.07.58.3,0,.61-.52,0-.34Zm1.07-66.22.07.59,2.9-1.56,0-.34-.53.07Zm1,65.27.3,0a1.73,1.73,0,0,0,1.22-1.14l-.31,0Zm1.93-2-.08.68,1.52-1.12-.31,0Zm2.86-66.52q.13.94-2.62,1.3l0,.25,1.6-.21,1.86-1.2,0-.26Zm-.22,64.9-.27.32,0,.34.88-.25,0-.34Zm.87-.17,0,.26.67-.54,0-.26Zm2.44-2-.07.69,1.21-.58.06-.61Zm0-64.45.1.69.79-.46,0-.35Zm2.09,63.41.23,0,.67-.56-.31,0Zm1.49-1.19.23,0,.66-.56-.31,0Zm2.36-9.76c.16,1,.24,1.56.39,2.6-.12,2.06-.19,3.08-.35,5.14l-.54,0,0,.35.54,0c0-.47.34-.69.9-.64a3.81,3.81,0,0,1,1.76,2.11c0,.54-.07.8-.12,1.34-1,1.41-2,2.06-3,2-.89,9.2-.12,14,3,14.45l2,.29c2.74.4,4.53-2,5.16-7.36.14-1.21.21-1.82.34-3-.79-1-1.18-1.52-2-2.52l.1-1,2.43-2.08c.34-3.9.48-5.85.7-9.75l.66-.89,0-.74c-.19-1.08-.29-1.62-.49-2.7l.32-.26c-.31,0-.42-2-1.26-3.73a4.58,4.58,0,0,0-3.32-2.45l-1.69,0c-2.3,0-3.88,2.44-4.92,7.36C122.72,95.72,122.52,96.24,122.46,97.3Zm-.07-37.67c.56,0,1.17.47,1.82,1.55a6.39,6.39,0,0,0-.94,2.93l-.54,0c.28,2.83.4,4.25.61,7.08,1.09,4,2.59,6.08,4.64,6l2,0c2.35,0,4-3.28,4.64-9.8-.56,0-.88-.63-1-2-1.52-.46-2.29-1-2.33-1.51.81-1.26,1.21-1.9,2-3.18-.34-4.52-.56-6.78-1.08-11.29-.55-4.77-2.25-7.46-4.92-8.06l-2.51.36c-2.94.43-3.61,5.3-2.73,14.67C122.23,57.72,122.29,58.36,122.4,59.63Zm-2.92-28.27.11.62,1.54.72.23,0A2.72,2.72,0,0,0,119.47,31.37Zm2.43.92.11.62,1.12.17.3-.05-.06-.36Zm1.61,6.31.06.36.53-.08c1.23-.74,1.82-1.3,1.76-1.65l-.3,0Zm1.7-5.24.11.63,2.06.67.3-.05C127.63,34.24,126.8,33.82,125.21,33.36Zm3.36.07.11.64c.68,1.27,1,1.9,1.69,3.18l.23,0-.12-.73-.27-.24.17-.4.3,0,.36.32-.12-.73-1.24-.45.26-.32-.12-.73Zm6,60.42v.37l.54,0,.57-1V93l-.88.9ZM136.9,92l-.32.27v.37l.86-.35V92Zm2-1.35V91l2.27-2h-.31Zm1.77-50.85c.06.44.37.62.93.54l.23,0,0-.28Z"/><path class="cls-1" d="M181.66,18.87l.38.37.3-.06,1.73-.77,1.81-.34,1.07.7.22-.49-.08-.44c4.63-.87,10,1.44,15.93,7.36l1.87,2.05a6.48,6.48,0,0,0,2,3c2.06,5.72,3,8.62,4.88,14.46l.31,0c.12,1.12.17,1.68.28,2.8s0,1.7,0,2.83c.38,1.47.56,2.21.92,3.69a.82.82,0,0,0-.85,1c.61,0,1,.4,1,1.34.39,9.7-.27,14.56-1.39,14.6.15.74.22,1.11.36,1.86A58.68,58.68,0,0,1,207.29,84c-4.42,6.74-9.58,9.84-15.21,9.67l-3.68-.11-5.21-.59c0,1.2-.06,1.81-.1,3q0,.86-1,.82c.31,1.39.47,2.08.76,3.48-.3,1-.45,1.53-.75,2.54l.56.89c-.27,2.4-.41,3.6-.72,6-.05,2.24-.09,3.36-.17,5.6l-.78,1.65.52.92c-.07.69-.11,1-.18,1.71l-.75,1.22.51.92c-.23,2.05-.36,3.08-.62,5.13l-.36.39.25.47-.17,1.28-.61-.08c.22,5.24,1.61,8.1,4.34,8.53l.23.48,2.19-.1.91.14.47,1c-5.12,6.05-8.7,8.71-10.51,8.37-3.82-.73-5.54-2.07-5.19-4l-.38.36-.6-.11-2.27-1.27c-1.91,1.93-3.93,2.67-6,2.27-3.27-.62-5.91-3.09-8-7.26-.45-1.71-.69-2.56-1.16-4.25l.37-.35,1.21.19c4.45.7,6.85,0,7.17-2.18a37.2,37.2,0,0,0,2.06-8.4c-.13-1-.19-1.51-.32-2.51.11-1,.16-1.46.27-2.44.42-1.6.62-2.4,1-4l-.54-.87c.1-1.14.15-1.71.25-2.85.2-1,.3-1.45.5-2.42l-.28-.43,0-.41c.44-1,.66-1.43,1.09-2.39q-.92-.06-.87-.88c.17-.81.26-1.21.43-2-.06-1.15-.09-1.73-.16-2.87.34-2.11.51-3.17.82-5.29-.31,0-.21-2.57-1.11-5.34-.79-2.42-2.53-4.08-3-4.08l-.92-1.61c1.59-2.58,2.37-3.89,3.9-6.54l.57-1.65c0-1.47-.07-2.21-.13-3.68,0-2.29,0-3.44,0-5.73L165.52,63c.05-1.15.08-1.73.12-2.88-.31-2.6-.47-3.9-.83-6.5.06-.66.09-1,.15-1.66-.25-1.29-.37-1.94-.63-3.23l.17-1.25c-.74-6.72-2.44-10.35-4.79-10.9l-1.77.66-.72-.71-2.62,1.19-.11-.79c3.28-6.94,7.29-11,12.38-11.93.7-.13,1.81.81,3.29,2.84l.37.36.3-.05c1.82-3.43,3.69-5.66,5.71-6.62l1,.26C177.32,20.71,178.7,19.72,181.66,18.87ZM165.21,82.24l-.92,1.63h.61c0-.54.31-.81.92-.81Zm4.28-2.9c0,.17,0,.25,0,.41h.92l.3-.42c0-.17,0-.25,0-.41h-.31ZM167,125.94l.3,0,1.07-1.12.05-.41Zm1.74-1.45.3,0,1.07-1.13.3,0,.1-.83Zm4.25-4.55,0,.42,1.31-.7.09-.84Zm-.15,6.34-.11.84,1.22.16.06-.42Zm1.94-8.69,0,.42.61.06.35-.39,0-.42Zm3.08-3.1.31,0,1.65-1.14.08-.85A3.58,3.58,0,0,0,177.88,114.48Zm7.43-81.13-1.58-.21c-1.38,2.49-2.08,3.73-3.5,6.17.23.84.35,1.26.57,2.1.17,1.37.25,2.05.4,3.42l-.52.92.44,1.25c.2,3.09.29,4.64.42,7.74.53,3.41.77,5.11,1.21,8.54-.08.69-.13,1-.21,1.73.19,1.37.29,2.05.47,3.42,0,.52,0,.77.05,1.29s-1,1.41-3,2.68v.43h.31l2.42-1.36v.43c-.1.69-.15,1-.26,1.73.05,2,1.91,3,5.6,2.9l.93.42.3-.44c3.86-1.82,5.05-5.75,5.65-6.79.12-.21.77-4,.63-11.2-.2-1.06-.3-1.59-.5-2.65-.12-1.6-.19-2.4-.33-4s0-2.42-.07-4l-.49-1.75c0-.72.07-1.09.12-1.81-1.94-7.89-4.61-11.55-7.6-11.12l-.73-.78Zm-7.93-10.61.08.42,2.12-.38-.08-.43Zm10.13.89.07.44a.8.8,0,0,1,1.06.72l.3-.05-.15-.88-.38-.39Zm1.89.13a.8.8,0,0,0,1.06.73l.3-.05-.07-.44Zm1.51-.26.53,1.27,1.21-.2-.53-1.28Zm5.76,35.83-.28.47.06.89.31,0,.56-.93,0-.45Zm-3.42-34.85.75.79.3,0-.75-.79ZM204.17,52.4l1.19-.56,1.57.33-.73-1.33,0-.46c.51-1.16.77-1.74,1.27-2.9l0-.46c-1,2.27-1.89,3.42-2.76,3.5Zm4.59-.39,0,.46,2.22.75-.08-.93L209.06,52Zm.22-7.49.1.93,1.13-1.05-.1-.93Z"/><path class="cls-1" d="M276.15.27,277.43,0c1.86-.35,5.93,3.31,11.89,11.43l.57,1.65-1,.15q-2.13.33-2.3-.79l-1.72,1.42L284,14a18.32,18.32,0,0,1-.14,5.3l.08.56c.32,1.38.48,2.07.79,3.45,0,1.13,0,1.7.06,2.83.61-.08,1.22,2.17,1.74,6.74L286,34.09c.56-.06,1.88,4.66,3.49,14.27a4.09,4.09,0,0,1,1.2,2.75l-.27.59,0,.56c.5,1.84.74,2.76,1.21,4.61l-.27.58c.41,0,.81,1.52,1.16,4.63l-.23,1.72.66,1.11c-.1.69-.14,1-.24,1.71.41,0,.28,5.08,2.17,9.91,1.22,3.13,4.54,7.31,6.24,11.18,0,.23,0,.35,0,.58-1.55,3.51-2.33,5.25-3.95,8.7,0,.69,0,1-.06,1.72.07,1.67.09,2.5.15,4.17l-.61,0,0,.57c.79,7.78,1.1,11.69,1.56,19.55l-.71,1.09c.61.05.55,7.16.67,19.71.07,7.72,1.29,12.26,2.91,12.52l.91.14c.76.12,1.82-.5,3.17-1.89l.21.63c-3.89,8.38-7.62,12.15-10.84,11.55-.09.48-1,.86-2.4.73-.65-.06-2.26-2.06-4.74-5.68a20.34,20.34,0,0,1-5.35,4.95l-1.21-.23c-2.26-1.29-4.19-4-5.88-8-.7-3.33-1.07-5-1.83-8.29l.39-.5.3,0c1.32,1.32,2,2,3.29,3.32l.61.1c1.16.19,2.18-.83,3-3.06l-.22-.6.08-.55c.29-1.09.43-1.63.71-2.73.06-3,.07-4.48.08-7.47.2-1.61.3-2.41.49-4-.49-1.56-.39-10.76-1.11-27.43l.31,0,.28.57.31,0,0-.55c-.27-1.85-.41-2.77-.69-4.61.1-2.27.14-3.4.22-5.67-.51,0-1-2.48-1.44-7.35l.63-1.09q-.92,0-.91-1.11c0-.22,0-.33,0-.55l.31-.69c-.8-2.67-1.66-9.6-3.18-20.69h-.31a95,95,0,0,0-1.22,12.33c-.12,9.05-1.26,13.88-2.29,13.86h-.31c0,.22,0,.33,0,.54l.57,1.78c-1.28,11.83-2.61,17.65-3.27,17.6,0,.65-.07,1-.11,1.62-.2,2.87-1.25,6.87-3.24,11.89l.5,1.13-.72,1c-.07.64-.1,1-.17,1.6,0,1.14,0,1.7,0,2.84-2.12,10.86-3.9,16.15-4.71,16l-1.6.29-12.07-1.87L247,144.4c.47-3.12.69-4.68,1.1-7.81,0-1.3.07-1.95.1-3.24l.55-2-.37.48-.61-.07.37-.48-.24-.55c.25-2.1.36-3.15.58-5.25.1-3.36.14-5,.17-8.39l-.35.49-.31,0c.17-16.66-1.66-33.2-3.89-49.68h-.31c-.37,10.74-1.54,16.07-2.87,16.07.12,1.06.18,1.58.29,2.64-.13,1-.2,1.51-.34,2.51h.69c0,.6,0,.91,0,1.51a.88.88,0,0,1-1,1c0,.45,0,.68,0,1.13h.61c-1.18,10.82-2.69,22.51-6.54,32.78,0,1.05,0,1.58,0,2.63-.19,1.65-.5,2.45-.9,2.4l.24.53-.06.49c-1.26,5.22-1.94,7.81-3.37,13l-.16,1,.22.54-.08.49.38-.44.3,0,.83.64c.09-.57.83-1.13,2.21-1.67l-.16,1c-.58,3.63-3.23,7.2-7.92,10.5l-1.81-.35c-1.31-.25-2.28-1.81-3-4.66-2.94,2.19-4.76,3.19-5.41,3.06-2.72-.52-4.38-5.33-5.49-14.24l.3,0c1.53,2.15,2.61,3.29,3.27,3.4l.91.15c2.26-.84,3.23-4.78,4.5-8.77A119.76,119.76,0,0,0,224.1,120c.13-1.4.2-2.1.32-3.49.83-2.11,1.24-3.18,2-5.31l-.62-1,0-.48,1.1-1.51-.28-.5c.69-3.12,1-4.69,1.65-7.83-.09-.78-.13-1.18-.23-2,.15-.82.23-1.23.38-2.06-2.36-4.63-3.58-7.72-3.57-9.41,4.66-5.83,6.88-10.78,6.77-14.55a20.12,20.12,0,0,1,1-6.07l0-.49-.33-.48,0-.49a7.9,7.9,0,0,1,1.35-3.65l-.92.05c.78-8.54,1.05-12.84,1.36-21.49l-.47-1.45c0-1.86,0-2.79.06-4.65l.3,0,.37.46.3,0-.06-.5-.37-.46-.06-.49c0-1.2,0-1.81-.09-3-.74-5.44-2.34-8-4.62-7.62l-2.27,1.36-.15-1c2.59-7.89,5-12.22,7.7-12.72,1.26-.24,3.12.66,5.57,2.73,1-2.68,2.28-4.2,3.94-4.51,2.42-.45,6.31,2.93,11.39,10.52l-.22.57-.91.14-1.15-.89c-1.79,2.15-2.38,5.13-1.85,9,1.65,6.41,2.42,9.64,3.81,16.13l-.26.55,0,.52c.63,1.46.94,2.2,1.56,3.67.18,2.14.27,3.21.42,5.36l.34.5,0,.52L257,55.07c.82-.05,1.53,2.22,2,6.85l-.35.68c.56,0,1.4,4.58,2.06,13.89.46,0,1.11,4.47,1.53,13.47h.69c.05-3.18.47-5.52,1.29-7,0-1.06,0-1.59,0-2.66,0-3.63.43-6,1.43-7.21l-.93-.51c.59-7.2,1-12.31,1.58-15.3-.2-1.33-.31-2-.52-3.32l1.19-.62-.08-1.07-.61,0c-.06-.86-.09-1.28-.16-2.14l.26-.56L266,49l0-.53c.2-12.11.36-18.28,1.28-18.39-.54-2.11-.82-3.16-1.38-5.27l.29-.72-.07-.54c-1.42-5-2.48-7.41-3-7.32l-.3,0-2.34,1.45-.39-.48c1.73-9.1,3.93-14.07,7.05-14.66,1.76-.33,3.72,1,5.82,4.11l.3-.05c-.13-.72.13-1.15.79-1.27C273.88,2.26,274.59.56,276.15.27ZM223.29,141.93l.3,0,.77-1-.3,0ZM228,138l.3,0,1.13-1.46-.3,0Zm1.81-1.86.3,0,.74-.9-.3,0Zm5.46-45.69h.31l.63-1h-.31ZM236.5,89h.31l.63-1h-.31Zm-4.52-70,.16,1,1-.16-.08-.49Zm7.4,66.37c0,.45,0,.68,0,1.13.82-.58,1.24-1.12,1.24-1.62h-.31Zm-1.6-62.07c-.49,1.1-.73,1.64-1.23,2.73l.07.5c.74-1.12,1.11-1.69,1.84-2.82l-.07-.5Zm-.63-2.08.15,1,.91-.14-.08-.5Zm2-1.33.16,1,1.37.3-.16-1Zm4.27,5.16.14,1,.91-.13-.07-.51Zm6.34,53.58H250l1.51-2.08h-.31ZM246.5,26.76l1.14,1.54.3,0-1.14-1.54Zm8.86,54.61c0,.21,0,.31,0,.52l1,.52h.31c0-.21,0-.31,0-.52l-1-.52Zm1.92-14.53h.31l.57-1.07h-.31Zm.31,15.57c0,.21,0,.31,0,.52h1.23c0-.21,0-.31,0-.52Zm-1.36,34.25-.09,1,1-.45.1-1.18Zm1.9-51.42h.31l.64-1.08-.38,0Zm.8,49.39-.08,1.05,1-.45.08-1.05Zm2.3-2,0,.53,1.11-1.52-.31,0ZM267,85.61c0,.21,0,.32,0,.54h1.23c0-.21,0-.32,0-.54Zm-.67,21.4.31,0,.67-1-.31,0Zm1.62-1.52.31,0,.68-1.18-.31,0Zm.89-19.86c0,.48,0,.73,0,1.21h1.31c0-.27,0-.4,0-.67Zm.81,18.2H270l.66-1h-.31Zm.05-55.16.05.67.52-1.26,0-.54Zm5-9.89.11,1.09L276,38.09l-.31,0Zm2.84-3.07.12,1.1,1.79-1.3-.08-.69-.61.07Zm4.73,53.47c0,.22,0,.33,0,.55l1.23,0c0-.22,0-.33,0-.56Zm-.2-61,.09.69.45-1.33-.07-.56Z"/><polygon class="cls-1" points="90.06 93.29 64.06 88.29 64.06 74.29 93.06 70.29 90.06 93.29"/></g></g></g></svg>