<svg id="Text" xmlns="http://www.w3.org/2000/svg" viewBox="0 0 634.95 385.7"><defs><style>.cls-1{fill:#e34d25;}.cls-2{fill:#252525;}.cls-3{fill:#e24e25;}</style></defs><title>craft-carnival</title><g id="craft_textures" data-name="craft textures"><path class="cls-1" d="M827.81,400.07c3.11.9,4.67,1.34,7.79,2.21a35.11,35.11,0,0,0,8.53,3.69c0,1,1.76,2,5.3,3.14,3.66,2.89,5.49,4.28,9.17,7,5-1.45,8.26-2.91,9.79-4.5l.61.14v4.47l.6.54v.49c-.64-.14-1.25.27-1.81,1.24,1.21.25,1.81.62,1.81,1.11v1.22l-.6.36.6.53v.4l-.6.29.6.52V425l-.6,2.25.6.51v.41l-.6,1.2.6,1.31-1.21.55,1.21,1-.6,2,.6,1.3c-.48.58-.72.88-1.21,1.46l1.21,1-.6.32.6.49v.4L869,447v.4l-.61.44V448l1.21,1v2c-.72.63-1.09.94-1.81,1.58l1.81,2.07v.81l-1.21.83c-6.59-.35-9.87-.53-16.43-.91l-.6-.56-.61.49-3-.18-.6-.56-.6,0-.6.5c-.25-.59-.37-.88-.61-1.47.24-2.86.36-4.28.61-7.12l-.61-.59v-.27c.48-1.07.73-1.6,1.21-2.65-.48-.41-.73-.61-1.21-1v-1.88l1.21.14v-.44l-1.21-1.4v-.45l1.21-.83a18,18,0,0,0-7.82-15.44c0-.8-3.65-2.27-10.91-4.63v-.38l-3.11.19v-.49c-5.18,2.18-7.76,6.6-7.76,13l-1.07.83v1c.19,1.49.28,2.23.47,3.72l-.47.43,1.07,1.07v5.65l-1.07-.13c.19,1,.28,1.56.47,2.59v1.52c-.19,1.23-.28,1.85-.47,3.09.43,1.21.64,1.82,1.07,3l-.6.46.6.65v1c-.43,1.79-.64,2.69-1.07,4.49l.47,2.05-.47,0c.43,1.64.64,2.45,1.07,4.07v2l-.6,2.12c0,.88,3.41,4.53,10.27,10.19-1.59,2.2-4.42,4.81-8.48,8-.9,3.08-1.36,4.63-2.26,7.77v2.64c.19.74.28,1.12.47,1.86l-.47,2.09c.43.79.64,1.19,1.07,2-.43,1.68-.64,2.52-1.07,4.21.43,1.39.64,2.09,1.07,3.46l-1.07,1.21-3.1-.47-.6.1v.52q4.17-.34,4.17,1.68c-.19,1.29-.28,1.94-.47,3.23l1.07,3.83-.6.63v.51c2.55,8.2,6.36,11.4,11.47,10.06l3.71-1c10-5.94,15-11.35,15-17.06l.6-.64,1.69.22,1.92-.36v-.52c-3.21.58-4.81-.34-4.81-2.79l.6-.55-.6-2.49.6-5.45-.6-2.69.6-.52,1.2-.14,1.09.75,1.92-.68c7-1,10.57-1.51,17.64-2.45v1.22l-.6.07c.48,2.76.72,4.13,1.21,6.86v4.88l-1.21,1.5c.48.38.72.57,1.21.94-.24.85-.37,1.28-.61,2.14v1.31l-1.93.36v-.9l-1.09.2c0,.88.8,1.16,2.42.86l.6.29v.41c-3,6.55-9.8,12.17-15.83,17.51a81.81,81.81,0,0,1-26.66,15.43c-2.94,1-11.46,1.67-18.49-1.58-4.8-2.23-9.49-7.75-12.57-11.4v-1.1c.24-.78.36-1.16.59-1.93l-.59.16c-.79.21-2.56-2.93-5.32-9.77l.59-.7c-1.18-1.13-1.77-1.71-3-2.88-1.23-4.54-1.84-6.84-3.06-11.5-.43-2.71-.64-4.07-1.06-6.8.18-.26.28-.39.47-.64v-.58c0-5.8-3.55-11-10.58-16.42-.71-.93-1.06-1.39-1.76-2.34,3.28-4.31,4.92-6.4,8.22-10.44.75-4,1.13-6,1.88-10-.24-.28-.35-.43-.59-.72.39-4.68,1-7.37,1.77-8.09-.24-1-.36-1.49-.59-2.49.47-.9.7-1.35,1.18-2.23-.24-.68-.36-1-.59-1.69,2.42-10,4.31-20.28,10-29,.23-2.11,1-3,2.36-2.7v-1.21c0-2.73,3.19-4.42,4.27-5.54,1.47-1.53,5-6.21,11.87-6.95.4-1.06,2.58-1.42,6.56-1.07C817.54,397.91,821,398.09,827.81,400.07Zm-37,119.2V521l2.25-1.59-.59-.44v-.55C791.81,518.72,791.48,518.9,790.82,519.27Zm6.51-5.72c-.87,1.84-1.7,3-2.49,3.34v-.55l-1.77.9v1l.59-.57,1.18-.24.59.33.6-.12c0-1.4,1-2.48,3.08-3.23v-.65Zm1.18-99.49,1.07.24v-1.08c1.19.28,1.78.06,1.78-.66l-.59-.14C799.86,413.07,799.41,413.39,798.51,414.06ZM805,506.85c0,.92-1.23,2-3.68,3.28v1.07c1.71-1.59,2.56-2.37,4.27-3.91v-.53Zm0-98.73-.6.38V409l.6.15,1.78-.08v-.53Zm1.19,101.71-.6,1.69,4.16-.72v-.52l-2.38-.65Zm5.94-.47-.59.61v.52l3.09.49.6-.1v-.51Zm18-94.18-.6.34V416l1.91.42Zm2.39-.88-.48.36v.95l.48.1.6-1.28Zm0-1.52v.57l2.4.56v-.56Zm7.32-2.88v1.46l.6.15c.2-.54.29-.81.48-1.35Zm5.41,1.32v.53l.61.15c0-.95.6-1.29,1.8-1l.6-1.19-.6-.15C846.94,409.5,846.13,410,845.33,411.22Zm.61,12.31V424c1.15.61,1.73.92,2.89,1.52v-1l-2.29-.87Zm4.21,6.59V431l1.81.28v-.43Zm2.41,82.28v.43l1.81-.32v-.87Zm1.21-82.22c1,1.24,1.52,1.85,2.53,3.07v.43l1.09.16-.49-.5v-.43l.49-.35v-.43A7.78,7.78,0,0,1,853.77,430.18Zm1.32,83.49v.43l1.81.1v-.86Zm2.3,0v.85l3-.56v-.42Zm.6-79.33v.76l1.21.17c0,.91.64,1.45,1.93,1.62v.84l1.21.16c-1.26-1.34-1.88-2-3.14-3.38Zm7.86,4.82v1.73l1.33.15c.81.1,1.21-.29,1.21-1.16v-.41l-.6-.07v.9l-1.33-.16v-.91Z" transform="translate(-763.17 -366.87)"/><path class="cls-1" d="M942.78,425.37a75,75,0,0,1,26.88,9.17c8.32,5,12.85,9.8,12.61,13.31-.11,1.71-.66,2.72-1.24,2.69l1.24,1.15c0,4.31-3.34,8.27-10,12.2-1.07,0-4,1.31-8.76,4.19v.57c9.87,2,15.52,3.75,16.93,5.57l1.23,1.07c-.24.35-.37.52-.62.87h.62c1.24,0,1.86,1,1.86,3v1.07l-.62,1.64.62.3c-.25.76-.37,1.14-.62,1.91l.62,3-1.24,1.14.62.83c-.49,1.45-.74,2.17-1.24,3.63,1.24,1.8,1.55,8.19,3.1,10.09.9,1.12,5,1.46,6.93,1.28l.62-.06a15.35,15.35,0,0,0,5.08-1.49l.62,0v.26c0,.9-.62,1.47-1.86,1.72l-1.86.16-3.84.1-.62.06V505l6.32-.06c-2.48,2.75-9.84,5.72-22,9.54l-2.47.67-2,.28c-4.86.69-9,0-12.47-2.33-1.81.26-4.52-.81-8.13-3.35.24-.16.37-.23.61-.38V509l-.61-1.78,1.85.12.61-.08V507c-.82.1-1.23-.14-1.23-.74l-1.85-.67c.25-.39.37-.59.62-1l-.62-1.13c.5-1.64.74-2.46,1.23-4.09l-1.23-.47V497l1.23-.71c-.24-.84-.37-1.26-.61-2.1l.61-.95c-.24-.7-.37-1.05-.61-1.75v-.95l.61-1.25-.61-1.15v-.3c.24-1,.37-1.5.61-2.49-.24-1-.37-1.45-.61-2.42.24-.14.37-.2.61-.33v-.3c-1,0-1.73-1.36-1.84-3.89-.07-1.53-5.64-2.4-16.85-2.38l-8.1.2v11.38c-.29,2.58-.44,3.87-.74,6.45.3.64.45.95.74,1.58l-.74.4.74,1.64v2.63l-1.35.82,1.35,2.21-.74.42.74.24-.74.42-.61.08c.54,1.28.81,1.92,1.35,3.18l-.74.44v.33c.3.48.45.72.74,1.21l-.74,1.1a11.26,11.26,0,0,0,10.07,3.39,19.39,19.39,0,0,0,6.88-3l.61-.09v.31a15.31,15.31,0,0,1-6.26,5.13,20.71,20.71,0,0,1-12.52,7.33,30.13,30.13,0,0,1-15.54-1.39c-3.75,3.4-7.25,5.57-10.5,6.33l-1.22.29c-6.33,1.5-13.75.16-22.24-5v-.41l9.22-.43c1.51-.49,2.26-.73,3.77-1.2h1.83l-.61-.25v-.38c.89-.19,2.11-2,3.65-5.33-.81.15-1.22-.15-1.22-.9l.61-.49c-.24-.7-.37-1.06-.61-1.77v-.75c.24-1.28.37-1.92.61-3.19-.24-.86-.37-1.29-.61-2.16.24-.52.37-.78.61-1.29-.24-.87-.37-1.3-.61-2.17v-1.88c.24-.22.37-.32.61-.53l-.61-.3V488.75l1.22-1.21c-.49-3.48-.73-5.22-1.22-8.73l.61-1.22c-3.7-2.31-5.55-3.51-9.24-6l-.61-.39v-.39c6.56-4.88,9.85-7.89,9.85-9.6.24-1.07.37-1.61.61-2.67l-.61-.41v-.75c.24-.59.37-.88.61-1.47-.49-1-.73-1.43-1.22-2.4v-.37l1.22-.67-1.22-2.8.61-1.83c-.24-1.4-.37-2.1-.61-3.51v-3.39c.24-.76.37-1.13.61-1.89-.24-1.08-.37-1.62-.61-2.71.49-3.61.73-5.4,1.22-9a18.31,18.31,0,0,0-8-4.16c-3.94.54-5.9.82-9.83,1.43v-.41a26.36,26.36,0,0,1,16.64-5.5c1.05-.84,4-1,8,.06,2.73.71,6.14,2.91,9.89,5.85,9.53-1.9,16.19-2.33,20-1.68l.61.1.61.43C933.41,424.28,936.53,424.65,942.78,425.37Zm-45.46,46.79c0,.68-2.48,1.33-7.43,2v.37l2,0a30.18,30.18,0,0,1,8-1.67v-.72l-.61.37h-.73l-.61-.36Zm-5.48.06v.37l3,0v-.36Zm1.82-13.5v.74l2.44.9V460Zm14.9,11.93v.69l3.05-.36v-.35Zm3.05-45.74v.34l3.18.53v-.34Zm18,8.48q0,1-1.23.81l-.61-.41-3.07-.07-1.84-.25v3.36c-.29.49-.44.73-.73,1.23l.73.41v.33l-.73,2.62c.29,1.91.44,2.86.73,4.75l-.73,1.92.73,2.75v2.37l-1.35.91,1.35,2.05c-.29.93-.44,1.4-.73,2.34l.73,1.35-.73,1.36q0,3,3.8,3l8.71.47c8.36-1,12.55-3,12.55-5.89,0-1.65,1-2.42,3.08-2.33v-.3c-1.64-.08-2.46-.41-2.46-1v-6.13l1.23-.52c-1.56-7-3.66-10.75-6.28-11.05,0-.73-3.12-1.68-9.34-3v-.32l-.62.24-2.58-.33v-.64Zm-6.14-6.53v.32l3.07.81.61.09v-.32l-3.06-.81Zm0,41.36v.32h1.84l4.3-.63v-.32h-1.84C926.07,467.83,925.21,468,923.49,468.22Zm.62,5.37v.65l1.84,0v-.32Zm4.29-45.32v.32l3.19.79,1.85.26V429l-.62-.09-2.58-.06-.61-.41Zm5,38.4.61.33v.31l2.46-.29v-.63Zm1.84,1.28v.31l3.19,0V468Zm2.46-37.32v.31l2.58.66V431Zm2.58,34.87v.62l3.08-.57v-.31l-1.24,0Zm5.54-33.18v.3c1.77.35,2.66.52,4.43.85l1.23.15v-.29l-3.69-.76Zm2,31.42v.6l1.84-.27v-.3Zm.61,5.53v.3l3.08.3h1.23v-.3l-3.69-.3Zm4.31-35.5v.3l2.59.3v-.29Zm2,36.09c0,.4.61.59,1.85.59h.61v-.29Zm1.23-7.43v.29l1.85,0,.62-.28v-.29h-.62Zm.62-27.62v.29l4.31.77,3.21.34v-.29c-2.76-.41-4.14-.61-6.91-1Zm3.08,71.48v.29l6.91,0,1.85-.21c0-.27-2.71-.34-8.14-.19ZM962.25,471v.29l2.47.27H966v-.29l-3.08-.26Zm3.09-34.66v.28l3.7.66,1.36.13v-.28c-1.53-.26-2.3-.39-3.83-.67Zm0,24v.28l1.23,0,2.47-.77-.62,0Zm5.06,45.59-.74.36v.28l5.69-.63v-.28Zm1.85-33.23v.56l2.48,0v-.28ZM981,505.31c0,.36.62.47,1.86.35l.62-.07v-.26Z" transform="translate(-763.17 -366.87)"/><path class="cls-1" d="M1090.62,436.27l1.87,0c4.48,0,9.33,1.52,14.56,4.7.6.68.89,1,1.49,1.69l-.87,0c-2.24-1.29-5.52-1.89-9.83-1.84a8.94,8.94,0,0,0-5.35,1.53l2.73,5.39c-.83,0-1.24.26-1.24.75l-.62-.27h-.87v1.25h.87l.62-1h1.24c3.65,12.06,7.39,18.12,11.21,18.12l1.24,1.48q2.24,0,8.09,2.2v.28a40.23,40.23,0,0,0-8.09,4.46q6.09,13.23,12.07,26.53a8.32,8.32,0,0,0,5.85,2.21l2,.09a18.06,18.06,0,0,0,8-1.61l.62.27c-7.62,3.67-14.88,5.29-21.76,5-3.19-.81-4.78-1.2-8-2l-1.25,0c-5.31,1.17-9,1.77-11.2,1.75l-2.74,0a32.23,32.23,0,0,1-17-4.91h.62a71,71,0,0,0,11.2,1.19c2.61,0,4-.72,4-1.92l-1.87-3.94,3.73-.95h-.62l-3.11.49-.87-.28V494q-3.24,0-4.61-7.34l-.62-.23v-.23l-6.6,0-7.22-.18-2,.25-9.33-.68c0,.41-1.75.7-5.23.88q-3.86,8.39-7.21,12.42l-.63,3.76q1.25,1.47,5.23,1.3a24.24,24.24,0,0,0,6.59-1.26v.56c-1.82,1.59-6.18,3.2-13.06,5l-2.74.15a30,30,0,0,1-11.18-1.59l-.62,0a36,36,0,0,1-10.56,2.83l-2.73.23c-10.51-.17-15.76-1.37-15.76-3.78a33.39,33.39,0,0,0,8.56.37q7.32-.61,10.55-5.53l.62,0-.62-.26V500c2.38-2.74,3.58-4.09,6-6.76l-.74-.21v-.59c1-1.81,1.56-2.7,2.6-4.49l-.62-.23c2.34-3.37,3.51-5,5.84-8.34l-.62-.28v-.24c.75-.37,1.45-1.57,2.11-3.6-1.16-1.24-3.81-2.76-8-4.61.75-.78,4-2.09,9.82-3.86,1.89-1,2.83-1.52,4.72-2.51q0-2.25,6.47-3.22v-.24l-1.87-.26a2,2,0,0,1-2.11,1.26h-.62v-.58c5.72-8,8.58-12.81,8.58-14.6l1.37-1.94c0-2.35-2.41-3.59-7.22-3.76l-6,.77v-.24c5.22-3.13,10.07-4.58,14.55-4.43,0-.38,1.07-.53,3.23-.46v.28l.62-.26,1.5,0v.56l1.24,0v-.56a52.4,52.4,0,0,1,17,3.49C1081.61,437.59,1086.47,436.29,1090.62,436.27ZM1028,491.48l-.63.27V492l.63,0,1.86-.31v-.24Zm3.85-.39v.25l.74,0,2.49-.33v-.28l-1.24,0Zm4.6-.68v.53l2-.35v-.24Zm12.56-30.35v.75l2.61-.72v-.24Zm6-19v.23l.62,0,2.74-.92h-.62C1055.93,440.57,1055,440.8,1055,441Zm0,17.88v.47l11.2-2.38v-.23h-1.37Zm14.56-2.12c-1,2.93-2.57,4.4-4.73,4.38l.62.24c-.74,1.48-1.12,2.22-1.86,3.71l.62.75c-2.24,1.94-4.9,5.47-8,10.64l-.62.28c1.41,0,2.12.24,2.12.73l.62.23h.62l2.49-.25c5.33.15,8,.23,13.32.41,0-.31,1.32-.47,4-.48-1.59-4.32-2.39-6.48-4-10.81l.62-.74c-3.48-4.07-5.23-7.11-5.23-9.08Zm-9.33-18.15V439l.62,0,2.11-.28v-.24h-.87Zm9.33,16.9-1.37,1h1.37l.62-.78v-.23Zm1.25.57h.62c2-.33,3.11-.66,3.36-1v-.23C1072.15,455.35,1070.83,455.76,1070.83,456.1Zm5.85.26,2.11.69,3.86-.22v.46h2.12q0-.69-3.36-.69v-.23l-.75.23H1080Zm2.73-2.21h.63l2.61-.51v-.5H1082Zm4.61-1.71v.47a33.06,33.06,0,0,0,7.84-2.19h-.62a18.81,18.81,0,0,0-5.85,1.72Zm2,4.85,2.12.78.62-.23v-.32Zm4.61,1,1.87.74v-.28l-1.25-.46Zm2.74,37.71-.88.74h1.5V496Zm.62-36.75v.23l2.61.27c0-.34-.66-.5-2-.5Zm1.24,36.54V496h1.37v-.69Zm1.37,2.46,2,.77v-.28l-1.36-.48Zm2,1v.28l2.62.5v-.74Zm2.62-3.86h.62l4.61-.44v-.51C1102.94,494.68,1101.2,495,1101.2,495.4Zm1.24,4.89,2.12,1.3,1.24,0v-.79l-2.61-.51Zm.75-6.58v.47l2-.2v-.47Zm11.2,9.86v.23a9.44,9.44,0,0,0,5.35,1.46Z" transform="translate(-763.17 -366.87)"/><path class="cls-1" d="M1197.4,429.21l3.83-.2.62-.36.74-.09,3.09-.11,2.59-.63c9.38-.26,14-.11,14,.54l.62-.45,1.23-.18c1.8-.26,5.82.29,12,1.8l.61-.09c0-.55.86-1,2.58-1.34q0-.71,2.46-1.08c0-1,1.92-2.66,5.76-5l.61.29c-.24,1-.36,1.5-.61,2.49.25.49.37.73.61,1.22l-.61.43c.25.94.37,1.41.61,2.35v2.39a46.44,46.44,0,0,0-9.44.61c.24.37.37.56.61.94l8.83-.56c-.24.73-.36,1.09-.61,1.81.25,2.42.37,3.64.61,6.08-.24,2.07-.36,3.1-.61,5.15.25.8.37,1.2.61,2-.24,1.67-.36,2.5-.61,4.15v1l-.61.44.61,1c-.24.7-.37,1-.61,1.75l1.22-.06v.66l-1.22.72-.62-.3-.73,0-3.8.5-.62-.3-.61,0-2.58.44-1.23.05-.61-.29-.62.35-.61,0-.61-.28-.74.34-1.23.05-1.23-.57v-1.24c.25-.54.37-.8.61-1.34l-.61-.28v-.31l.61-.41V453l-.61-.28v-.31l.61-.35v-.31c-.24-.51-.36-.76-.61-1.27l.61-.35v-.31c-.24-.76-.36-1.14-.61-1.89.25-.92.37-1.37.61-2.29-.82-1.39-3.56-3.53-8.24-6.23,0-.41-.66-.54-2-.4,0-.4-.82-.52-2.46-.35,0-.83-1.28-1.11-3.82-.84v-.59l-1.36.14v.3l-6.91.07-.61.41-.74.07-2.47-.1-2.6.59v-.33c-6.75,1.69-10.13,3.54-10.13,5.72l-1.36,2.66.62.77c-.5,1.16-.75,1.74-1.24,2.9l.62.78-.62.9c.25,1,.37,1.48.62,2.47v.54l-1.24.91v.28c1.24-.05,1.86.11,1.86.47v.6c-.25,1.23-.38,1.84-.62,3.06l.62.26V461l-.62.29v.27c.24,1.23.37,1.85.62,3.09v.54l-.62.28v.27h.62l1.36-.56,12.11.41c5.92-.45,8.88-1.2,8.88-2.21,0-1.71-2.14-3.26-6.41-4.56v-.34l.74,0a24.67,24.67,0,0,1,6.91,1.27c2.71-.08,5.71,1.82,9,5.92l-1.35.68,1.35,1.5c-.82,1.73-1.68,2.67-2.59,2.82,1.73,1.32,2.59,2.69,2.59,4.06,0,2.73-4.88,4.77-14.67,6l-2-.07V480c2.14.07,4.07-.95,5.8-3.12a15.59,15.59,0,0,0-5.8-1.62l-2.47.57-.62-.29v-.34l-7,.48v-.28l-.62.27-1.36,0-.62-.28-3.21.21v.55c-.25,1.12-.38,1.69-.62,2.81.24.44.37.66.62,1.1l-1.24,2.79,1.24,0v.28c-.25,4.47-.38,6.7-.62,11.16.24,1.25.37,1.88.62,3.14-.25.55-.38.82-.62,1.37l.62,1.14c-.25.87-.38,1.3-.62,2.17,0,3.18,2.35,5.48,7.05,7,1.53.4,2.29.61,3.83,1l1.85.23a36.51,36.51,0,0,0,10.86-.64l.62.08v.29q0,2.7-15.19,3.82v-.28l-.74.18-.62-.08-2.47-.88v.27l.62.91-.62-.08c-2.82-.24-4.23-.36-7-.58-2.57-.32-3.86-.48-6.44-.78a29.32,29.32,0,0,1-8.3-2.8A27.32,27.32,0,0,1,1163,511l-1.37-.13c-4.55-.43-10.71-1.94-18.5-4.31-2.33-1.26-3.5-1.88-5.84-3.11v-.24l.75,0c3.08.67,4.62,1,7.7,1.73,6,.39,8.94-.31,8.94-2.2.25-.8.37-1.2.62-2l-.62-1.33.62-.21V499l-.62-.84.62-.71c-.49-1.24-.74-1.87-1.24-3.11.5-.49.75-.73,1.24-1.23-.49-2.4-.74-3.59-1.24-6,.25-1.52.37-2.29.62-3.81l-.62-.82.62,0-.62-.27v-.49l1.24-.47c-.49-.75-.74-1.12-1.24-1.87l.62-2c0-2.39-3.43-4.58-10.3-6.46v-.24c4.12-1.91,6.18-2.87,10.3-4.86-.25-1-.37-1.52-.62-2.53v-2.09l.62-1.55-.62-1,.62-1.8-.62-.29,1.24-.53v-.25L1154,455v-.25a3.53,3.53,0,0,1,1.24-2.83l-.62-1c1.24-.05,1.86-.24,1.86-.58-1.65.07-2.48-.16-2.48-.69l.62-.28v-.25l-.62-.22v-.25l.62-.32v-.25l-.62-1.27.62-1-1.36-2.52.74-.79-.74-.75.74-.29-.74-.21c-2.07-.34-3.11-.71-3.11-1.1l-3.85.21a28.57,28.57,0,0,0-10.31,3l-.62-.21q6-5.73,16-7.95c4.39-.79,8.24-1.35,11.55-1.62,2.31-.19,5.91.44,10.78,2,4.63-2.18,8.26-3.46,10.9-3.74l.62.2C1185.28,431.32,1189.33,430.45,1197.4,429.21Zm-42.12,76.19v.25l3.23.26v-.81l-.62-.05Zm5.09-69.55v.25l1.24.41,3.23.32v-.26l-3.85-.77Zm2,11.86-1.37,1.12.62,0,3.23-1.22Zm-1.37,43,2,.91v-.3l-1.37-.58Zm.62-43.77v.26l2-.1v-.51Zm3.23,45v.51l1.36.08c0,.54.41.84,1.24.89l.62-.27V493Zm.62-55.48c0,.34.87.44,2.6.3l.62.21v.26l-.62.3,2-.15c.24-.33.37-.49.62-.82Zm0,69.7,1.36.64,2.48,0v-.25Zm.74-59.23,1.86-.1v-.82Zm3.85-1.55V446c2-.11,5-1.07,8.92-3v-.26A40.61,40.61,0,0,1,1170.05,445.45Zm0,49v.51c2.47.4,3.71.94,3.71,1.6l1.37.09v-.26l-4.46-1.91Zm4.46-25.55v.26l3.09.26h.75l1.24-.53-3.22-.26Zm1.24,30.26v.26l2.6,2.31.62.06v-1.32c-.91-.08-1.37-.47-1.37-1.17Zm3.22-1.7V498l1.85.14-.61.22v.26l-2.61-.73-.62,0v.26c3.89.61,5.83,1.31,5.83,2.05l2.47.22C1182.76,499.18,1181.49,498.59,1179,497.43Zm8.91-58.18v.27l1.24.76-6.31,1.05.61.22v.59l-.61,0-.62-.22-2.6,1,1.23-.09c2.56-.36,3.84-.73,3.84-1.09l-.62-.27,1.86-.41,2,.11c0-.36.62-.59,1.86-.7,1.53-.58,2.3-.88,3.83-1.48v-.27l-.62-.22v-.28l.62-.33-.62.06C1190.92,438.5,1189.91,438.75,1187.88,439.25Zm-7.67,29.61h.61l2.6-.86h-.61C1181.07,468.3,1180.21,468.58,1180.21,468.86Zm2-32.44c0,.39.62.53,1.85.42l.62,0v-.27Zm.62,66.8v.85l1.23.12c-.24-.37-.37-.55-.62-.92Zm1.85-35.49h1.24l2-.82v-.27C1186,467,1184.91,467.37,1184.66,467.73Zm0,37.59v.59l.62.33.62.07-.62-.93Zm1.24-68.65v.27l3.22,0,.62-.06v-.27l-2.48,0Zm2.6,72.68v.27c1,.11,2.68,1.06,5.07,2.91l.74.09c-2.39-2-4.12-3.08-5.19-3.2Zm5.81-71.22v.55l1.86-.17v-.83Zm8.28-2.27-2.59,0c-1.78.55-2.67.81-4.45,1.34v.28l4.45-.16,1.23-1.3.62.22,1.36-.15c3-1,4.44-1.64,4.44-1.91l-.62.07C1205.26,434.89,1204.37,435.22,1202.59,435.86Zm-1.36,75.32-1.23,1.3.61.36.62.08,1.36-.66-.74-.38.74-.18-.74-.44Zm7.65-77.79.62-.07,1.36-.74-.62.07Zm5.06-.31c0,.43-.61.72-1.85.86v.29l3.82-.44Zm4.56-3.89-1.35,1.07,1.35-.18,1.23-.76V429Zm1.85,3.76-.62,1,3.21-.39Zm4.43.05v.3c5.32-.27,8-.42,13.28-.72v-.7c-7.12,1-10.69,1.1-10.69.48Z" transform="translate(-763.17 -366.87)"/><path class="cls-1" d="M1383.42,375c8.65-.71,12.94,1.26,12.94,5.71l-.59.21.59.39v1.21c-.23.33-.35.49-.59.82v.6l1.76,1.21c0,3.16-1.17,7.44-3.52,12.62a19.22,19.22,0,0,1,4.11,11.59c0,6.1-4.68,11-14.11,14.34v-.58c1.89-2.2,3.32-4.79,3.53-7.1.23-2.47-2.54-3.48-7.66-2.3l-4.73.53c-2.6,1-3.9,1.55-6.51,2.56l-3,.11c-2.37.73-3.56,1.09-5.94,1.8l-1.19.25-3.57.24-2.39,1-1.19.24V420c-1.67.55-2.5.82-4.18,1.35l-6,1.18c-.24,2-.35,3-.59,4.92v3.85l-.6.57v.48l-3.6-1.34-.6.1c0,.56,1.6,1.25,4.8,2.11l.59.39v.48c-.24,1.58-.35,2.37-.59,3.94.24.73.35,1.1.59,1.84-.24,1.38-.35,2.07-.59,3.44l.59.42c-.47,3.71-.71,5.56-1.19,9.23l1.19.88c-.24.6-.35.89-.59,1.48.24,2.1.35,3.16.59,5.27V461l-.59.5c.24.57.35.86.59,1.43-.47,1.55-.71,2.32-1.19,3.86,0,4.35,3.6,8.89,10.76,14.33v1.5c-6.77,6.31-10.16,9.7-10.16,11,.24,2.14.35,3.21.59,5.36q-.36,4.77-1.19,4.65l.6.56v.48l-.6,1.83.6.58v.48l-.6,1.34.6.58-.6,1.82c.48,4.3.72,6.46,1.19,10.8-.47,3.56-.71,5.33-1.19,8.85,2.15,2.66,3.23,4,5.38,6.79,1.44.8,2.15,1.21,3.58,2l.6.18a14.45,14.45,0,0,0,7.16.08c.23.28.35.42.59.69v.52c-9.13,5.51-17.43,6.84-23.31,4.56-3.39-1.31-6.72-4-9.61-7-2.24,1.45-6.82,1.09-13.74-.86-5.15-1.46-11.81-6.73-20-14.76l.6-.26a20.69,20.69,0,0,0,6.07,2.54c1.7.38,2.54.58,4.24,1,4,.94,6.05-1.09,6.05-6.12l.6-4.91-.6-1.79.6-3.26c-.24-5.25-.36-7.87-.6-13.09l1.21-.7c-.49-1.91-.73-2.86-1.21-4.75l.6-.36c0-2.86-3.22-7-9.68-11.77.56-.89,3.8-2.87,9.68-6.3l-1.21,0c.73-2,1.09-2.95,1.82-4.94-.81-1.24-1.21-3.46-1.21-6.71l1.81-1.74-1.81-1.19,1.21-4.27c-.49-2.49-.73-3.74-1.21-6.21l1.81-.58c-.72-2.13-1.09-3.19-1.81-5.29l.6-1.33-.6-5.79.6-1.77-.6-1.59.6-.09-.6-.33v-2.93c-2.82.47-4.24.15-4.24-.95-1.93.83-2.9,1.24-4.84,2l-.61-.3-1.21,1-7.28.74c-2.18.5-3.28.74-5.47,1.22l-1.82-.11-2.44.73-4.26.25-4.27,1-3.66.15c-3.25.59-4.88,1-4.88,1.36l-.62,1.48c0,1.86,1.23,3.23,3.67,4.14v.35c-7.08.77-12.39-.9-15.9-4.69,0-1.11,1.22-3.14,3.67-6.2-3.26-.78-4.9-2.19-4.9-4.27v-1c0-3.89,5.32-7.34,15.91-10.86V415c-2,1.66-3.06,2.9-3.06,3.78v1c0,1.63,2.25,2,6.72,1.19l3.66-1.06,1.22-.24c4.07-.79,6.09-.84,6.09-.09l.61-.12a1.31,1.31,0,0,1,1.22-1.37l.61-.13,4.26-.5c1.94-.56,2.91-.84,4.86-1.42,4.85-.73,7.28-1.11,12.12-1.87,3.39-1.1,5.08-1.66,8.46-2.81l3,.14c7.68-2.18,11.5-3.32,19.13-5.71h1.8l2.4-1.11,2.4-.17c3.35-1.1,5-1.66,8.37-2.8,2.39-.67,3.58-1,6-1.7l5.36-1.05.6-.7.59-.17c4.76-1,7.13-1.5,11.87-2.52,8.28-3.42,12.4-6.37,12.4-8.53a9.55,9.55,0,0,0,1.77-5.27c-.23-4.27-1.65-6.35-3.54-5.62Zm-119.51,58v.35l3.66-.16.61-.45v-.35Zm23.15-5.8v.38l2.43-.41v-.39Zm10.32-2.61V425l2.42-.44v-.41Zm3-1v.41l4.24-.79v-.42Zm5.44.64v.41l2.42,0,.61-.11v-.43l-2.42,0Zm1.82-2.44v.42l4.23-.82v-.86C1310.21,421.12,1309.36,421.38,1307.67,421.87Zm3,104.15v.43l1.81.42V526Zm1.81-64.91v.43c1.69.63,2.54.95,4.22,1.6v-.87a4.37,4.37,0,0,1-3-1.2Zm4.22,64.17v.43l1.81.42v-.87Zm4.82-60.49,2.89,1.74v-.89l-2.28-.86Zm1.81-47.88v.44l3.49-.75v-.46Zm0,45.16h.6l1.08-.94-.6,0Zm2.89-1.44.6,0,1.2-1-.6,0Zm.6,6.78q0,.91,1.8.9h.6v-.46Zm0,46.19,1.2,1.14.6.11-1.2-1.14Zm2.4,1.82v.46l1.8.81.6.12v-.46l-1.8-.81Zm.6-100.87V415l2.4-.54V414Zm0,53.76v.46l1.8,1.29h.6Zm1.2-10.17v.47l.6,0,1.8-.55v-.46l-.6,0C1332.12,457.82,1331.76,457.93,1331,458.14Zm3,12.39-.6,1.87,1.8.49,1.8-.45V472Zm-.6,47.57V519l1.2.25a1.48,1.48,0,0,0,1.2,1.66v-.47C1334.88,519.51,1334.4,519,1333.44,518.1Zm2.4-105.87v.47l3-.71v-.48Zm7.19-2.71V410l2.39-.6v-.49Zm5.38-1.85v.49l2.39-.61v-.5Zm4.17-1.59v.5l4.18-1.1v-1Zm10.12-4.31v.53l2.38-.67v-.53Z" transform="translate(-763.17 -366.87)"/><path class="cls-2" d="M819.81,392.07c3.11.9,4.67,1.34,7.79,2.21a35.11,35.11,0,0,0,8.53,3.69c0,1,1.76,2,5.3,3.14,3.66,2.89,5.49,4.28,9.17,7,5-1.45,8.26-2.91,9.79-4.5l.61.14v4.47l.6.54v.49c-.64-.14-1.25.27-1.81,1.24,1.21.25,1.81.62,1.81,1.11v1.22l-.6.36.6.53v.4l-.6.29.6.52V417l-.6,2.25.6.51v.41l-.6,1.2.6,1.31-1.21.55,1.21,1-.6,2,.6,1.3c-.48.58-.72.88-1.21,1.46l1.21,1-.6.32.6.49v.4L861,439v.4l-.61.44V440l1.21,1v2c-.72.63-1.09.94-1.81,1.58l1.81,2.07v.81l-1.21.83c-6.59-.35-9.87-.53-16.43-.91l-.6-.56-.61.49-3-.18-.6-.56-.6,0-.6.5c-.25-.59-.37-.88-.61-1.47.24-2.86.36-4.28.61-7.12l-.61-.59v-.27c.48-1.07.73-1.6,1.21-2.65-.48-.41-.73-.61-1.21-1v-1.88l1.21.14v-.44l-1.21-1.4v-.45l1.21-.83a18,18,0,0,0-7.82-15.44c0-.8-3.65-2.27-10.91-4.63v-.38l-3.11.19v-.49c-5.18,2.18-7.76,6.6-7.76,13l-1.07.83v1c.19,1.49.28,2.23.47,3.72l-.47.43,1.07,1.07v5.65l-1.07-.13c.19,1,.28,1.56.47,2.59v1.52c-.19,1.23-.28,1.85-.47,3.09.43,1.21.64,1.82,1.07,3l-.6.46.6.65v1c-.43,1.79-.64,2.69-1.07,4.49l.47,2.05-.47,0c.43,1.64.64,2.45,1.07,4.07v2l-.6,2.12c0,.88,3.41,4.53,10.27,10.19-1.59,2.2-4.42,4.81-8.48,8-.9,3.08-1.36,4.63-2.26,7.77v2.64c.19.74.28,1.12.47,1.86l-.47,2.09c.43.79.64,1.19,1.07,2-.43,1.68-.64,2.52-1.07,4.21.43,1.39.64,2.09,1.07,3.46l-1.07,1.21-3.1-.47-.6.1v.52q4.17-.35,4.17,1.68c-.19,1.29-.28,1.94-.47,3.23l1.07,3.83-.6.63v.51c2.55,8.2,6.36,11.4,11.47,10.06l3.71-1c10-5.94,15-11.35,15-17.06l.6-.64,1.69.22,1.92-.36v-.52c-3.21.58-4.81-.34-4.81-2.79l.6-.55-.6-2.49.6-5.45-.6-2.69.6-.52,1.2-.14,1.09.75,1.92-.68c7-1,10.57-1.51,17.64-2.45v1.22l-.6.07c.48,2.76.72,4.13,1.21,6.86v4.88l-1.21,1.5c.48.38.72.57,1.21.94-.24.85-.37,1.28-.61,2.14v1.31l-1.93.36v-.9l-1.09.2c0,.88.8,1.16,2.42.86l.6.29v.41c-3,6.55-9.8,12.17-15.83,17.51a81.81,81.81,0,0,1-26.66,15.43c-2.94,1-11.46,1.67-18.49-1.58-4.8-2.23-9.49-7.75-12.57-11.4v-1.1c.24-.78.36-1.16.59-1.93l-.59.16c-.79.21-2.56-2.93-5.32-9.77l.59-.7c-1.18-1.13-1.77-1.71-3-2.88-1.23-4.54-1.84-6.84-3.06-11.5-.43-2.71-.64-4.07-1.06-6.8.18-.26.28-.39.47-.64v-.58c0-5.8-3.55-11-10.58-16.42-.71-.93-1.06-1.39-1.76-2.34,3.28-4.31,4.92-6.4,8.22-10.44.75-4,1.13-6,1.88-10-.24-.28-.35-.43-.59-.72.39-4.68,1-7.37,1.77-8.09-.24-1-.36-1.49-.59-2.49.47-.9.7-1.35,1.18-2.23-.24-.68-.36-1-.59-1.69,2.42-10,4.31-20.28,10-29,.23-2.11,1-3,2.36-2.7v-1.21c0-2.73,3.19-4.42,4.27-5.54,1.47-1.53,5-6.21,11.87-6.95.4-1.06,2.58-1.42,6.56-1.07C809.54,389.91,813,390.09,819.81,392.07Zm-37,119.2V513l2.25-1.59-.59-.44v-.55C783.81,510.72,783.48,510.9,782.82,511.27Zm6.51-5.72c-.87,1.84-1.7,3-2.49,3.34v-.55l-1.77.9v1l.59-.57,1.18-.24.59.33.6-.12c0-1.4,1-2.48,3.08-3.23v-.65Zm1.18-99.49,1.07.24v-1.08c1.19.28,1.78.06,1.78-.66l-.59-.14C791.86,405.07,791.41,405.39,790.51,406.06ZM797,498.85c0,.92-1.23,2-3.68,3.28v1.07c1.71-1.59,2.56-2.37,4.27-3.91v-.53Zm0-98.73-.6.38V401l.6.15,1.78-.08v-.53Zm1.19,101.71-.6,1.69,4.16-.72v-.52l-2.38-.65Zm5.94-.47-.59.61v.52l3.09.49.6-.1v-.51Zm18-94.18-.6.34V408l1.91.42Zm2.39-.88-.48.36v.95l.48.1.6-1.28Zm0-1.52v.57l2.4.56v-.56Zm7.32-2.88v1.46l.6.15c.2-.54.29-.81.48-1.35Zm5.41,1.32v.53l.61.15c0-.95.6-1.29,1.8-1l.6-1.19-.6-.15C838.94,401.5,838.13,402,837.33,403.22Zm.61,12.31V416c1.15.61,1.73.92,2.89,1.52v-1l-2.29-.87Zm4.21,6.59V423l1.81.28v-.43Zm2.41,82.28v.43l1.81-.32v-.87Zm1.21-82.22c1,1.24,1.52,1.85,2.53,3.07v.43l1.09.16-.49-.5v-.43l.49-.35v-.43A7.78,7.78,0,0,1,845.77,422.18Zm1.32,83.49v.43l1.81.1v-.86Zm2.3,0v.85l3-.56v-.42Zm.6-79.33v.76l1.21.17c0,.91.64,1.45,1.93,1.62v.84l1.21.16c-1.26-1.34-1.88-2-3.14-3.38Zm7.86,4.82v1.73l1.33.15c.81.1,1.21-.29,1.21-1.16v-.41l-.6-.07v.9l-1.33-.16v-.91Z" transform="translate(-763.17 -366.87)"/><path class="cls-2" d="M934.78,417.37a75,75,0,0,1,26.88,9.17c8.32,5,12.85,9.8,12.61,13.31-.11,1.71-.66,2.72-1.24,2.69l1.24,1.15c0,4.31-3.34,8.27-10,12.2-1.07,0-4,1.31-8.76,4.19v.57c9.87,2,15.52,3.75,16.93,5.57l1.23,1.07c-.24.35-.37.52-.62.87h.62c1.24,0,1.86,1,1.86,3v1.07l-.62,1.64.62.3c-.25.76-.37,1.14-.62,1.91l.62,3-1.24,1.14.62.83c-.49,1.45-.74,2.17-1.24,3.63,1.24,1.8,1.55,8.19,3.1,10.09.9,1.12,5,1.46,6.93,1.28l.62-.06a15.35,15.35,0,0,0,5.08-1.49l.62,0v.26c0,.9-.62,1.47-1.86,1.72l-1.86.16-3.84.1-.62.06V497l6.32-.06c-2.48,2.75-9.84,5.72-22,9.54l-2.47.67-2,.28c-4.86.69-9,0-12.47-2.33-1.81.26-4.52-.81-8.13-3.35.24-.16.37-.23.61-.38V501l-.61-1.78,1.85.12.61-.08V499c-.82.1-1.23-.14-1.23-.74l-1.85-.67c.25-.39.37-.59.62-1l-.62-1.13c.5-1.64.74-2.46,1.23-4.09l-1.23-.47V489l1.23-.71c-.24-.84-.37-1.26-.61-2.1l.61-.95c-.24-.7-.37-1.05-.61-1.75v-.95l.61-1.25-.61-1.15v-.3c.24-1,.37-1.5.61-2.49-.24-1-.37-1.45-.61-2.42.24-.14.37-.2.61-.33v-.3c-1,0-1.73-1.36-1.84-3.89-.07-1.53-5.64-2.4-16.85-2.38l-8.1.2v11.38c-.29,2.58-.44,3.87-.74,6.45.3.64.45.95.74,1.58l-.74.4.74,1.64v2.63l-1.35.82,1.35,2.21-.74.42.74.24-.74.42-.61.08c.54,1.28.81,1.92,1.35,3.18l-.74.44v.33c.3.48.45.72.74,1.21l-.74,1.1a11.26,11.26,0,0,0,10.07,3.39,19.39,19.39,0,0,0,6.88-3l.61-.09v.31a15.31,15.31,0,0,1-6.26,5.13,20.71,20.71,0,0,1-12.52,7.33,30.13,30.13,0,0,1-15.54-1.39c-3.75,3.4-7.25,5.57-10.5,6.33l-1.22.29c-6.33,1.5-13.75.16-22.24-5v-.41l9.22-.43c1.51-.49,2.26-.73,3.77-1.2h1.83l-.61-.25v-.38c.89-.19,2.11-2,3.65-5.33-.81.15-1.22-.15-1.22-.9l.61-.49c-.24-.7-.37-1.06-.61-1.77v-.75c.24-1.28.37-1.92.61-3.19-.24-.86-.37-1.29-.61-2.16.24-.52.37-.78.61-1.29-.24-.87-.37-1.3-.61-2.17v-1.88c.24-.22.37-.32.61-.53l-.61-.3V480.75l1.22-1.21c-.49-3.48-.73-5.22-1.22-8.73l.61-1.22c-3.7-2.31-5.55-3.51-9.24-6l-.61-.39v-.39c6.56-4.88,9.85-7.89,9.85-9.6.24-1.07.37-1.61.61-2.67l-.61-.41v-.75c.24-.59.37-.88.61-1.47-.49-1-.73-1.43-1.22-2.4v-.37l1.22-.67-1.22-2.8.61-1.83c-.24-1.4-.37-2.1-.61-3.51v-3.39c.24-.76.37-1.13.61-1.89-.24-1.08-.37-1.62-.61-2.71.49-3.61.73-5.4,1.22-9a18.31,18.31,0,0,0-8-4.16c-3.94.54-5.9.82-9.83,1.43v-.41a26.36,26.36,0,0,1,16.64-5.5c1.05-.84,4-1,8,.06,2.73.71,6.14,2.91,9.89,5.85,9.53-1.9,16.19-2.33,20-1.68l.61.1.61.43C925.41,416.28,928.53,416.65,934.78,417.37Zm-45.46,46.79c0,.68-2.48,1.33-7.43,2v.37l2,0a30.18,30.18,0,0,1,8-1.67v-.72l-.61.37h-.73l-.61-.36Zm-5.48.06v.37l3,0v-.36Zm1.82-13.5v.74l2.44.9V452Zm14.9,11.93v.69l3.05-.36v-.35Zm3.05-45.74v.34l3.18.53v-.34Zm18,8.48q0,1-1.23.81l-.61-.41-3.07-.07-1.84-.25v3.36c-.29.49-.44.73-.73,1.23l.73.41v.33l-.73,2.62c.29,1.91.44,2.86.73,4.75l-.73,1.92.73,2.75v2.37l-1.35.91,1.35,2.05c-.29.93-.44,1.4-.73,2.34l.73,1.35-.73,1.36q0,3,3.8,3l8.71.47c8.36-1,12.55-3,12.55-5.89,0-1.65,1-2.42,3.08-2.33v-.3c-1.64-.08-2.46-.41-2.46-1v-6.13l1.23-.52c-1.56-7-3.66-10.75-6.28-11.05,0-.73-3.12-1.68-9.34-3v-.32l-.62.24-2.58-.33v-.64Zm-6.14-6.53v.32l3.07.81.61.09v-.32l-3.06-.81Zm0,41.36v.32h1.84l4.3-.63v-.32h-1.84C918.07,459.83,917.21,460,915.49,460.22Zm.62,5.37v.65l1.84,0v-.32Zm4.29-45.32v.32l3.19.79,1.85.26V421l-.62-.09-2.58-.06-.61-.41Zm5,38.4.61.33v.31l2.46-.29v-.63Zm1.84,1.28v.31l3.19,0V460Zm2.46-37.32v.31l2.58.66V423Zm2.58,34.87v.62l3.08-.57v-.31l-1.24,0Zm5.54-33.18v.3c1.77.35,2.66.52,4.43.85l1.23.15v-.29l-3.69-.76Zm2,31.42v.6l1.84-.27v-.3Zm.61,5.53v.3l3.08.3h1.23v-.3l-3.69-.3Zm4.31-35.5v.3l2.59.3v-.29Zm2,36.09c0,.4.61.59,1.85.59h.61v-.29Zm1.23-7.43v.29l1.85,0,.62-.28v-.29h-.62Zm.62-27.62v.29l4.31.77,3.21.34v-.29c-2.76-.41-4.14-.61-6.91-1Zm3.08,71.48v.29l6.91,0,1.85-.21c0-.27-2.71-.34-8.14-.19ZM954.25,463v.29l2.47.27H958v-.29l-3.08-.26Zm3.09-34.66v.28l3.7.66,1.36.13v-.28c-1.53-.26-2.3-.39-3.83-.67Zm0,24v.28l1.23,0,2.47-.77-.62,0Zm5.06,45.59-.74.36v.28l5.69-.63v-.28Zm1.85-33.23v.56l2.48,0v-.28ZM973,497.31c0,.36.62.47,1.86.35l.62-.07v-.26Z" transform="translate(-763.17 -366.87)"/><path class="cls-2" d="M1082.62,428.27l1.87,0c4.48,0,9.33,1.52,14.56,4.7.6.68.89,1,1.49,1.69l-.87,0c-2.24-1.29-5.52-1.89-9.83-1.84a8.94,8.94,0,0,0-5.35,1.53l2.73,5.39c-.83,0-1.24.26-1.24.75l-.62-.27h-.87v1.25h.87l.62-1h1.24c3.65,12.06,7.39,18.12,11.21,18.12l1.24,1.48q2.24,0,8.09,2.2v.28a40.23,40.23,0,0,0-8.09,4.46q6.09,13.23,12.07,26.53a8.32,8.32,0,0,0,5.85,2.21l2,.09a18.06,18.06,0,0,0,8-1.61l.62.27c-7.62,3.67-14.88,5.29-21.76,5-3.19-.81-4.78-1.2-8-2l-1.25,0c-5.31,1.17-9,1.77-11.2,1.75l-2.74,0a32.23,32.23,0,0,1-17-4.91h.62a71,71,0,0,0,11.2,1.19c2.61,0,4-.72,4-1.92l-1.87-3.94,3.73-.95h-.62l-3.11.49-.87-.28V486q-3.24,0-4.61-7.34l-.62-.23v-.23l-6.6,0-7.22-.18-2,.25-9.33-.68c0,.41-1.75.7-5.23.88q-3.86,8.39-7.21,12.42l-.63,3.76q1.25,1.47,5.23,1.3a24.24,24.24,0,0,0,6.59-1.26v.56c-1.82,1.59-6.18,3.2-13.06,5l-2.74.15a30,30,0,0,1-11.18-1.59l-.62,0a36,36,0,0,1-10.56,2.83l-2.73.23c-10.51-.17-15.76-1.37-15.76-3.78a33.39,33.39,0,0,0,8.56.37q7.32-.61,10.55-5.53l.62,0-.62-.26V492c2.38-2.74,3.58-4.09,6-6.76l-.74-.21v-.59c1-1.81,1.56-2.7,2.6-4.49l-.62-.23c2.34-3.37,3.51-5,5.84-8.34l-.62-.28v-.24c.75-.37,1.45-1.57,2.11-3.6-1.16-1.24-3.81-2.76-8-4.61.75-.78,4-2.09,9.82-3.86,1.89-1,2.83-1.52,4.72-2.51q0-2.25,6.47-3.22v-.24l-1.87-.26a2,2,0,0,1-2.11,1.26h-.62v-.58c5.72-8,8.58-12.81,8.58-14.6l1.37-1.94c0-2.35-2.41-3.59-7.22-3.76l-6,.77v-.24c5.22-3.13,10.07-4.58,14.55-4.43,0-.38,1.07-.53,3.23-.46v.28l.62-.26,1.5,0v.56l1.24,0v-.56a52.4,52.4,0,0,1,17,3.49C1073.61,429.59,1078.47,428.29,1082.62,428.27ZM1020,483.48l-.63.27V484l.63,0,1.86-.31v-.24Zm3.85-.39v.25l.74,0,2.49-.33v-.28l-1.24,0Zm4.6-.68v.53l2-.35v-.24Zm12.56-30.35v.75l2.61-.72v-.24Zm6-19v.23l.62,0,2.74-.92h-.62C1047.93,432.57,1047,432.8,1047,433Zm0,17.88v.47l11.2-2.38v-.23h-1.37Zm14.56-2.12c-1,2.93-2.57,4.4-4.73,4.38l.62.24c-.74,1.48-1.12,2.22-1.86,3.71l.62.75c-2.24,1.94-4.9,5.47-8,10.64l-.62.28c1.41,0,2.12.24,2.12.73l.62.23h.62l2.49-.25c5.33.15,8,.23,13.32.41,0-.31,1.32-.47,4-.48-1.59-4.32-2.39-6.48-4-10.81l.62-.74c-3.48-4.07-5.23-7.11-5.23-9.08Zm-9.33-18.15V431l.62,0,2.11-.28v-.24h-.87Zm9.33,16.9-1.37,1h1.37l.62-.78v-.23Zm1.25.57h.62c2-.33,3.11-.66,3.36-1v-.23C1064.15,447.35,1062.83,447.76,1062.83,448.1Zm5.85.26,2.11.69,3.86-.22v.46h2.12q0-.69-3.36-.69v-.23l-.75.23H1072Zm2.73-2.21h.63l2.61-.51v-.5H1074Zm4.61-1.71v.47a33.06,33.06,0,0,0,7.84-2.19h-.62a18.81,18.81,0,0,0-5.85,1.72Zm2,4.85,2.12.78.62-.23v-.32Zm4.61,1,1.87.74v-.28l-1.25-.46Zm2.74,37.71-.88.74h1.5V488Zm.62-36.75v.23l2.61.27c0-.34-.66-.5-2-.5Zm1.24,36.54V488h1.37v-.69Zm1.37,2.46,2,.77v-.28l-1.36-.48Zm2,1v.28l2.62.5v-.74Zm2.62-3.86h.62l4.61-.44v-.51C1094.94,486.68,1093.2,487,1093.2,487.4Zm1.24,4.89,2.12,1.3,1.24,0v-.79l-2.61-.51Zm.75-6.58v.47l2-.2v-.47Zm11.2,9.86v.23a9.44,9.44,0,0,0,5.35,1.46Z" transform="translate(-763.17 -366.87)"/><path class="cls-2" d="M1189.4,421.21l3.83-.2.62-.36.74-.09,3.09-.11,2.59-.63c9.38-.26,14-.11,14,.54l.62-.45,1.23-.18c1.8-.26,5.82.29,12,1.8l.61-.09c0-.55.86-1,2.58-1.34q0-.71,2.46-1.08c0-1,1.92-2.66,5.76-5l.61.29c-.24,1-.36,1.5-.61,2.49.25.49.37.73.61,1.22l-.61.43c.25.94.37,1.41.61,2.35v2.39a46.44,46.44,0,0,0-9.44.61c.24.37.37.56.61.94l8.83-.56c-.24.73-.36,1.09-.61,1.81.25,2.42.37,3.64.61,6.08-.24,2.07-.36,3.1-.61,5.15.25.8.37,1.2.61,2-.24,1.67-.36,2.5-.61,4.15v1l-.61.44.61,1c-.24.7-.37,1-.61,1.75l1.22-.06v.66l-1.22.72-.62-.3-.73,0-3.8.5-.62-.3-.61,0-2.58.44-1.23.05-.61-.29-.62.35-.61,0-.61-.28-.74.34-1.23.05-1.23-.57v-1.24c.25-.54.37-.8.61-1.34l-.61-.28v-.31l.61-.41V445l-.61-.28v-.31l.61-.35v-.31c-.24-.51-.36-.76-.61-1.27l.61-.35v-.31c-.24-.76-.36-1.14-.61-1.89.25-.92.37-1.37.61-2.29-.82-1.39-3.56-3.53-8.24-6.23,0-.41-.66-.54-2-.4,0-.4-.82-.52-2.46-.35,0-.83-1.28-1.11-3.82-.84v-.59l-1.36.14v.3l-6.91.07-.61.41-.74.07-2.47-.1-2.6.59v-.33c-6.75,1.69-10.13,3.54-10.13,5.72l-1.36,2.66.62.77c-.5,1.16-.75,1.74-1.24,2.9l.62.78-.62.9c.25,1,.37,1.48.62,2.47v.54l-1.24.91v.28c1.24-.05,1.86.11,1.86.47v.6c-.25,1.23-.38,1.84-.62,3.06l.62.26V453l-.62.29v.27c.24,1.23.37,1.85.62,3.09v.54l-.62.28v.27h.62l1.36-.56,12.11.41c5.92-.45,8.88-1.2,8.88-2.21,0-1.71-2.14-3.26-6.41-4.56v-.34l.74,0a24.67,24.67,0,0,1,6.91,1.27c2.71-.08,5.71,1.82,9,5.92l-1.35.68,1.35,1.5c-.82,1.73-1.68,2.67-2.59,2.82,1.73,1.32,2.59,2.69,2.59,4.06,0,2.73-4.88,4.77-14.67,6l-2-.07V472c2.14.07,4.07-.95,5.8-3.12a15.59,15.59,0,0,0-5.8-1.62l-2.47.57-.62-.29v-.34l-7,.48v-.28l-.62.27-1.36,0-.62-.28-3.21.21v.55c-.25,1.12-.38,1.69-.62,2.81.24.44.37.66.62,1.1l-1.24,2.79,1.24,0v.28c-.25,4.47-.38,6.7-.62,11.16.24,1.25.37,1.88.62,3.14-.25.55-.38.82-.62,1.37l.62,1.14c-.25.87-.38,1.3-.62,2.17,0,3.18,2.35,5.48,7.05,7,1.53.4,2.29.61,3.83,1l1.85.23a36.51,36.51,0,0,0,10.86-.64l.62.08v.29q0,2.7-15.19,3.82v-.28l-.74.18-.62-.08-2.47-.88v.27l.62.91-.62-.08c-2.82-.24-4.23-.36-7-.58-2.57-.32-3.86-.48-6.44-.78a29.32,29.32,0,0,1-8.3-2.8A27.32,27.32,0,0,1,1155,503l-1.37-.13c-4.55-.43-10.71-1.94-18.5-4.31-2.33-1.26-3.5-1.88-5.84-3.11v-.24l.75,0c3.08.67,4.62,1,7.7,1.73,6,.39,8.94-.31,8.94-2.2.25-.8.37-1.2.62-2l-.62-1.33.62-.21V491l-.62-.84.62-.71c-.49-1.24-.74-1.87-1.24-3.11.5-.49.75-.73,1.24-1.23-.49-2.4-.74-3.59-1.24-6,.25-1.52.37-2.29.62-3.81l-.62-.82.62,0-.62-.27v-.49l1.24-.47c-.49-.75-.74-1.12-1.24-1.87l.62-2c0-2.39-3.43-4.58-10.3-6.46v-.24c4.12-1.91,6.18-2.87,10.3-4.86-.25-1-.37-1.52-.62-2.53v-2.09l.62-1.55-.62-1,.62-1.8-.62-.29,1.24-.53v-.25L1146,447v-.25a3.53,3.53,0,0,1,1.24-2.83l-.62-1c1.24-.05,1.86-.24,1.86-.58-1.65.07-2.48-.16-2.48-.69l.62-.28v-.25l-.62-.22v-.25l.62-.32v-.25l-.62-1.27.62-1-1.36-2.52.74-.79-.74-.75.74-.29-.74-.21c-2.07-.34-3.11-.71-3.11-1.1l-3.85.21a28.57,28.57,0,0,0-10.31,3l-.62-.21q6-5.73,16-7.95c4.39-.79,8.24-1.35,11.55-1.62,2.31-.19,5.91.44,10.78,2,4.63-2.18,8.26-3.46,10.9-3.74l.62.2C1177.28,423.32,1181.33,422.45,1189.4,421.21Zm-42.12,76.19v.25l3.23.26v-.81l-.62-.05Zm5.09-69.55v.25l1.24.41,3.23.32v-.26l-3.85-.77Zm2,11.86-1.37,1.12.62,0,3.23-1.22Zm-1.37,43,2,.91v-.3l-1.37-.58Zm.62-43.77v.26l2-.1v-.51Zm3.23,45v.51l1.36.08c0,.54.41.84,1.24.89l.62-.27V485Zm.62-55.48c0,.34.87.44,2.6.3l.62.21v.26l-.62.3,2-.15c.24-.33.37-.49.62-.82Zm0,69.7,1.36.64,2.48,0v-.25Zm.74-59.23,1.86-.1v-.82Zm3.85-1.55V438c2-.11,5-1.07,8.92-3v-.26A40.61,40.61,0,0,1,1162.05,437.45Zm0,49v.51c2.47.4,3.71.94,3.71,1.6l1.37.09v-.26l-4.46-1.91Zm4.46-25.55v.26l3.09.26h.75l1.24-.53-3.22-.26Zm1.24,30.26v.26l2.6,2.31.62.06v-1.32c-.91-.08-1.37-.47-1.37-1.17Zm3.22-1.7V490l1.85.14-.61.22v.26l-2.61-.73-.62,0v.26c3.89.61,5.83,1.31,5.83,2.05l2.47.22C1174.76,491.18,1173.49,490.59,1171,489.43Zm8.91-58.18v.27l1.24.76-6.31,1.05.61.22v.59l-.61,0-.62-.22-2.6,1,1.23-.09c2.56-.36,3.84-.73,3.84-1.09l-.62-.27,1.86-.41,2,.11c0-.36.62-.59,1.86-.7,1.53-.58,2.3-.88,3.83-1.48v-.27l-.62-.22v-.28l.62-.33-.62.06C1182.92,430.5,1181.91,430.75,1179.88,431.25Zm-7.67,29.61h.61l2.6-.86h-.61C1173.07,460.3,1172.21,460.58,1172.21,460.86Zm2-32.44c0,.39.62.53,1.85.42l.62,0v-.27Zm.62,66.8v.85l1.23.12c-.24-.37-.37-.55-.62-.92Zm1.85-35.49h1.24l2-.82v-.27C1178,459,1176.91,459.37,1176.66,459.73Zm0,37.59v.59l.62.33.62.07-.62-.93Zm1.24-68.65v.27l3.22,0,.62-.06v-.27l-2.48,0Zm2.6,72.68v.27c1,.11,2.68,1.06,5.07,2.91l.74.09c-2.39-2-4.12-3.08-5.19-3.2Zm5.81-71.22v.55l1.86-.17v-.83Zm8.28-2.27-2.59,0c-1.78.55-2.67.81-4.45,1.34v.28l4.45-.16,1.23-1.3.62.22,1.36-.15c3-1,4.44-1.64,4.44-1.91l-.62.07C1197.26,426.89,1196.37,427.22,1194.59,427.86Zm-1.36,75.32-1.23,1.3.61.36.62.08,1.36-.66-.74-.38.74-.18-.74-.44Zm7.65-77.79.62-.07,1.36-.74-.62.07Zm5.06-.31c0,.43-.61.72-1.85.86v.29l3.82-.44Zm4.56-3.89-1.35,1.07,1.35-.18,1.23-.76V421Zm1.85,3.76-.62,1,3.21-.39Zm4.43.05v.3c5.32-.27,8-.42,13.28-.72v-.7c-7.12,1-10.69,1.1-10.69.48Z" transform="translate(-763.17 -366.87)"/><path class="cls-2" d="M1375.42,367c8.65-.71,12.94,1.26,12.94,5.71l-.59.21.59.39v1.21c-.23.33-.35.49-.59.82v.6l1.76,1.21c0,3.16-1.17,7.44-3.52,12.62a19.22,19.22,0,0,1,4.11,11.59c0,6.1-4.68,11-14.11,14.34v-.58c1.89-2.2,3.32-4.79,3.53-7.1.23-2.47-2.54-3.48-7.66-2.3l-4.73.53c-2.6,1-3.9,1.55-6.51,2.56l-3,.11c-2.37.73-3.56,1.09-5.94,1.8l-1.19.25-3.57.24-2.39,1-1.19.24V412c-1.67.55-2.5.82-4.18,1.35l-6,1.18c-.24,2-.35,3-.59,4.92v3.85l-.6.57v.48l-3.6-1.34-.6.1c0,.56,1.6,1.25,4.8,2.11l.59.39v.48c-.24,1.58-.35,2.37-.59,3.94.24.73.35,1.1.59,1.84-.24,1.38-.35,2.07-.59,3.44l.59.42c-.47,3.71-.71,5.56-1.19,9.23l1.19.88c-.24.6-.35.89-.59,1.48.24,2.1.35,3.16.59,5.27V453l-.59.5c.24.57.35.86.59,1.43-.47,1.55-.71,2.32-1.19,3.86,0,4.35,3.6,8.89,10.76,14.33v1.5c-6.77,6.31-10.16,9.7-10.16,11,.24,2.14.35,3.21.59,5.36q-.36,4.77-1.19,4.65l.6.56v.48l-.6,1.83.6.58v.48l-.6,1.34.6.58-.6,1.82c.48,4.3.72,6.46,1.19,10.8-.47,3.56-.71,5.33-1.19,8.85,2.15,2.66,3.23,4,5.38,6.79,1.44.8,2.15,1.21,3.58,2l.6.18a14.45,14.45,0,0,0,7.16.08c.23.28.35.42.59.69v.52c-9.13,5.51-17.43,6.84-23.31,4.56-3.39-1.31-6.72-4-9.61-7-2.24,1.45-6.82,1.09-13.74-.86-5.15-1.46-11.81-6.73-20-14.76l.6-.26a20.69,20.69,0,0,0,6.07,2.54c1.7.38,2.54.58,4.24,1,4,.94,6.05-1.09,6.05-6.12l.6-4.91-.6-1.79.6-3.26c-.24-5.25-.36-7.87-.6-13.09l1.21-.7c-.49-1.91-.73-2.86-1.21-4.75l.6-.36c0-2.86-3.22-7-9.68-11.77.56-.89,3.8-2.87,9.68-6.3l-1.21,0c.73-2,1.09-2.95,1.82-4.94-.81-1.24-1.21-3.46-1.21-6.71l1.81-1.74-1.81-1.19,1.21-4.27c-.49-2.49-.73-3.74-1.21-6.21l1.81-.58c-.72-2.13-1.09-3.19-1.81-5.29l.6-1.33-.6-5.79.6-1.77-.6-1.59.6-.09-.6-.33v-2.93c-2.82.47-4.24.15-4.24-.95-1.93.83-2.9,1.24-4.84,2l-.61-.3-1.21,1-7.28.74c-2.18.5-3.28.74-5.47,1.22l-1.82-.11-2.44.73-4.26.25-4.27,1-3.66.15c-3.25.59-4.88,1-4.88,1.36l-.62,1.48c0,1.86,1.23,3.23,3.67,4.14v.35c-7.08.77-12.39-.9-15.9-4.69,0-1.11,1.22-3.14,3.67-6.2-3.26-.78-4.9-2.19-4.9-4.27v-1c0-3.89,5.32-7.34,15.91-10.86V407c-2,1.66-3.06,2.9-3.06,3.78v1c0,1.63,2.25,2,6.72,1.19l3.66-1.06,1.22-.24c4.07-.79,6.09-.84,6.09-.09l.61-.12a1.31,1.31,0,0,1,1.22-1.37l.61-.13,4.26-.5c1.94-.56,2.91-.84,4.86-1.42,4.85-.73,7.28-1.11,12.12-1.87,3.39-1.1,5.08-1.66,8.46-2.81l3,.14c7.68-2.18,11.5-3.32,19.13-5.71h1.8l2.4-1.11,2.4-.17c3.35-1.1,5-1.66,8.37-2.8,2.39-.67,3.58-1,6-1.7l5.36-1.05.6-.7.59-.17c4.76-1,7.13-1.5,11.87-2.52,8.28-3.42,12.4-6.37,12.4-8.53a9.55,9.55,0,0,0,1.77-5.27c-.23-4.27-1.65-6.35-3.54-5.62Zm-119.51,58v.35l3.66-.16.61-.45v-.35Zm23.15-5.8v.38l2.43-.41v-.39Zm10.32-2.61V417l2.42-.44v-.41Zm3-1v.41l4.24-.79v-.42Zm5.44.64v.41l2.42,0,.61-.11v-.43l-2.42,0Zm1.82-2.44v.42l4.23-.82v-.86C1302.21,413.12,1301.36,413.38,1299.67,413.87Zm3,104.15v.43l1.81.42V518Zm1.81-64.91v.43c1.69.63,2.54.95,4.22,1.6v-.87a4.37,4.37,0,0,1-3-1.2Zm4.22,64.17v.43l1.81.42v-.87Zm4.82-60.49,2.89,1.74v-.89l-2.28-.86Zm1.81-47.88v.44l3.49-.75v-.46Zm0,45.16h.6l1.08-.94-.6,0Zm2.89-1.44.6,0,1.2-1-.6,0Zm.6,6.78q0,.91,1.8.9h.6v-.46Zm0,46.19,1.2,1.14.6.11-1.2-1.14Zm2.4,1.82v.46l1.8.81.6.12v-.46l-1.8-.81Zm.6-100.87V407l2.4-.54V406Zm0,53.76v.46l1.8,1.29h.6Zm1.2-10.17v.47l.6,0,1.8-.55v-.46l-.6,0C1324.12,449.82,1323.76,449.93,1323,450.14Zm3,12.39-.6,1.87,1.8.49,1.8-.45V464Zm-.6,47.57V511l1.2.25a1.48,1.48,0,0,0,1.2,1.66v-.47C1326.88,511.51,1326.4,511,1325.44,510.1Zm2.4-105.87v.47l3-.71v-.48Zm7.19-2.71V402l2.39-.6v-.49Zm5.38-1.85v.49l2.39-.61v-.5Zm4.17-1.59v.5l4.18-1.1v-1Zm10.12-4.31v.53l2.38-.67v-.53Z" transform="translate(-763.17 -366.87)"/></g><g id="Carnival_textures" data-name="Carnival textures"><path class="cls-3" d="M838.09,570.6l4.64-1.63a10.81,10.81,0,0,0,5.08-.32c0,1,1.05,1.3,3.16.88,2.18,1.46,3.27,2.22,5.45,3.79a35.87,35.87,0,0,0,5.83-9.79l.36-.12V569l.36.4v.6c-.39.11-.75.89-1.08,2.32.72-.2,1.08,0,1.08.61v1.52c-.15.28-.22.42-.36.7l.36.41v.5l-.36.6.36.41v2.62c-.15,1.21-.22,1.81-.36,3l.36.43v.5c-.15.68-.22,1-.36,1.7.14.57.21.86.36,1.43l-.72,1.06.72.86c-.15,1.08-.22,1.62-.36,2.69.14.58.21.87.36,1.45-.29.86-.44,1.29-.72,2.15.28.35.43.52.72.87l-.36.57c.14.18.21.27.36.44v.51c-.15,3.9-.22,5.85-.36,9.74v.5c-.15.26-.22.39-.36.65v.3c.28.41.43.61.72,1v2.53c-.44.89-.65,1.34-1.08,2.23.43.92.64,1.38,1.08,2.31v1c-.29.47-.44.7-.72,1.17-3.92.33-5.87.5-9.78.85-.14-.22-.21-.32-.36-.54l-.35.61-1.8.16c-.14-.22-.21-.33-.36-.54l-.35,0c-.15.24-.22.37-.36.61-.15-.6-.22-.9-.36-1.49.14-3.05.21-4.57.36-7.63l-.36-.52V610c.29-1.21.43-1.82.72-3l-.72-.84v-2l.72-.12v-.48l-.72-1.2v-.48l.72-1.17c0-7-1.56-11.67-4.66-13.67,0-.81-2.17-1-6.5-.59v-.36l-1.85,1.32V587a21.65,21.65,0,0,0-4.63,14l-.64,1v.87c.11,1.22.17,1.84.28,3.07l-.28.49.64.66v4.88L831,612c.11.85.17,1.28.28,2.13v1.31c-.11,1.09-.17,1.64-.28,2.72.25,1,.38,1.47.64,2.45l-.36.48.36.48v.87c-.26,1.59-.39,2.39-.64,4l.28,1.71-.28,0c.25,1.37.38,2.06.64,3.44v1.74c-.15.74-.22,1.11-.36,1.84s2,3.67,6.13,9.28a24.82,24.82,0,0,1-5.06,6.52c-.54,2.58-.81,3.87-1.35,6.42v2.25c.11.68.17,1,.28,1.69-.11.68-.17,1-.28,1.7.25.76.38,1.14.64,1.91-.26,1.36-.39,2-.64,3.38.25,1.29.38,1.94.64,3.24l-.64.75-1.85-1.19-.36-.06v.42c1.66.53,2.49,1.37,2.49,2.53s-.17,1.59-.28,2.64c.25,1.44.38,2.16.64,3.61l-.36.36v.43c1.52,7.88,3.8,12.39,6.84,13.24l2.21.62c6-1.57,9-5.65,9-11.74l.35-.5,1,.77,1.15.23v-.58c-1.92-.37-2.87-1.86-2.87-4.46l.36-.41c-.15-1.13-.22-1.69-.36-2.82.14-2.25.21-3.38.36-5.64-.15-1.2-.22-1.8-.36-3l.36-.43.71.09.65,1,1.15-.34c4.18.33,6.28.48,10.49.76v1.51l-.36,0c.28,3.49.43,5.24.72,8.76v6c-.29.6-.44.89-.72,1.48.28.62.43.93.72,1.55-.15,1-.22,1.47-.36,2.44v1.61l-1.16-.24v-1.1l-.64-.14a1.72,1.72,0,0,0,1.44,1.91c.14.23.21.35.36.58v.5c-1.78,7-6.58,11.43-9.42,13.86-3,2.57-8.32,5-15.88,2.33-1.76-.63-6.68-4.46-11-10.47-3.35-4.63-5.68-10.17-7.52-14v-.81c.15-.47.22-.71.36-1.19l-.36-.1c-.47-.12-1.53-3.1-3.18-8.67l.35-.32c-.7-1.14-1.06-1.7-1.76-2.81-.74-3.44-1.1-5.14-1.84-8.5-.25-1.89-.38-2.83-.63-4.71l.28-.35v-.39c0-3.86-2.12-7.88-6.34-11.59l-1.06-1.5c2-2.43,3-3.7,4.93-6.31.45-2.58.68-3.89,1.13-6.51-.14-.18-.21-.27-.36-.44.24-3.06.59-4.88,1.06-5.44l-.35-1.58c.28-.64.42-1,.71-1.62-.15-.41-.22-.62-.36-1,2.17-11.28,4.17-18.87,6-22.17q.21-2.37,1.41-2.7v-.89c0-2,1.74-4.06,2.55-5.62,1.13-2.16,3-6.72,7.1-10.34q.36-1.56,3.91-3.86C832,573.55,834,572,838.09,570.6ZM816,671.05v1.19l1.34-.52-.35-.47v-.4Zm3.89-2.48c-.52,1.16-1,1.76-1.49,1.83V670l-1.06.2v.72l.36-.25.7.14c.15.15.22.23.36.39l.35.07c0-1,.61-1.56,1.84-1.61v-.49Zm.71-74.3.64-.18v-.82c.71-.2,1.06-.57,1.06-1.12l-.35.1Zm3.9,70.93c0,.73-.74,1.32-2.2,1.74v.82c1-.82,1.53-1.23,2.55-2.08v-.42Zm0-77.86c-.14.21-.21.32-.36.53v.42l.36-.11,1.06-.74V587Zm.71,80.49c-.14.48-.21.72-.36,1.2l2.49.42V669L825.92,668Zm3.55,1-.35.37v.42l1.84,1.18.36.06v-.43C829.87,669.79,829.5,669.47,828.76,668.84Zm10.76-85-.36.55v.45l1.14-.31ZM841,582l-.29.53v.92l.29-.08.35-1.48Zm0-1.47v.55l1.43-.41v-.56Zm4.36-5.94v1.5l.36-.11c.11-.63.17-1,.28-1.59Zm3.22-1v.57l.36-.11c0-1,.36-1.63,1.07-1.85.15-.62.22-.93.36-1.55l-.36.12C849.48,571.09,849,572,848.53,573.63Zm.36,12.8v.48l1.72.63v-1l-1.36-.14Zm2.51,5.73v1l1.07-.22v-.49Zm1.43,90.67v.48l1.08.21v-1Zm.72-91.71,1.51,2.7v.49l.64-.13-.28-.43v-.49l.28-.54v-.49C855.08,592.35,854.36,592,853.55,591.12Zm.79,93.94v.49l1.08.71v-1Zm1.36.77v1l1.8.37v-.49Zm.36-91.23v.89l.72-.14c0,1,.38,1.5,1.15,1.36v1l.72-.13-1.87-3.11Zm4.67,3.6v2.11l.8-.13c.48-.08.72-.66.72-1.73V598l-.36.06v1.1l-.8.13v-1.1Z" transform="translate(-763.17 -366.87)"/><path class="cls-3" d="M918.31,547.45l1.09-.25c2.64-.61,5.5,3,8.58,11.17.35,1.76.53,2.65.88,4.42l-.52.09c-1.32-3.31-3.25-4.7-5.79-4.21-1.32.26-2.37,1.77-3.15,4.5.65,5.53,1,8.32,1.61,13.9-.48.07-.73.76-.73,2l-.36-.67-.52.08v3.26l.52-.07c.14-1,.22-1.56.36-2.6L921,579c1,13.48-.78,35.18,6.6,47.4.29,1.57.44,2.36.73,3.94.88,0,2.47,1.87,4.78,5.77v.75a70.38,70.38,0,0,0-4.78,11.89q3.61,35.34,7.13,70.7,1.17,5.47,3.45,5.9l1.18.21c1.47.26,3-1.24,4.71-4.56.14.28.22.42.37.7-4.52,10.11-8.81,14.52-12.87,13.66-1.88-2.25-2.82-3.36-4.7-5.58l-.73-.15c-3.13,2.79-5.33,4-6.6,3.68l-1.61-.37c-3.61-.84-6.95-6-10-15l.36.08c2.82,2.72,5.12,4.41,6.58,4.61s2.34-1.43,2.34-4.57c-.44-4.18-.66-6.27-1.1-10.43l2.2-2.16-.37-.06-1.83,1c-.2-.33-.31-.49-.51-.81v-7.56c-1.27-.19-2.17-6.67-2.71-19.36l-.36-.63v-.6l-3.87-.39-4.24-1-1.16.46c-2.19-1-3.28-1.53-5.47-2.53,0,1-1,1.53-3,1.61-1.17,9.5-2.2,19.1-4.22,28.47-.15,3.51-.22,5.26-.36,8.75.48,2.49,1.5,3.94,3.05,4.31,1.21.29,2.5-.23,3.85-1.59v1.37c-1.06,3.47-3.61,6.46-7.63,8.77l-1.6-.44c-2.13-.6-4.3-3-6.52-6.94l-.37-.1c-2.27,2.41-4.32,3.29-6.15,2.75l-1.59-.47c-6.12-4.07-9.16-8.43-9.16-13.17a10.64,10.64,0,0,0,5,3.61c2.84.78,4.89-2,6.14-8.42l.36.08c-.14-.29-.21-.43-.36-.72v-1.7c1.39-5.25,2.09-7.91,3.48-13.31l-.44-.61V685c.61-3.76.91-5.65,1.52-9.46l-.36-.58c1.36-7.11,2-10.71,3.4-18-.14-.27-.21-.41-.36-.68v-.54c.44-.78.85-3.44,1.23-8a39.08,39.08,0,0,0-4.63-10.45c.43-1.73,2.34-4.6,5.72-8.82,1.1-2.37,1.66-3.56,2.76-6a9.22,9.22,0,0,1,3.78-7.94V614l-1.09-.47c-.2,2-.61,3.06-1.24,3.11l-.36,0v-1.34c2.05-11.75,4.39-23.64,5-35.59l.8-4.89q0-8.49-4.21-7.53l-3.49,3.13v-.55c3.05-8.43,5.88-13.14,8.5-13.81,0-.9.63-1.52,1.89-1.84v.68l.37-.78.87-.22v1.37l.73-.18v-1.37c3.25-.83,6.58,1,10,5.68C913,552.08,915.86,548,918.31,547.45ZM881.67,683.79c-.14.19-.21.29-.36.48v.54l.36.06,1.09-.37V684Zm2.25-.21v.55l.43.06,1.45-.33v-.66l-.72-.1Zm2.68-.81V684l1.16-.5v-.55ZM893.94,612v1.81l1.53-1.94v-.56Zm3.49-46.77v.57l.36-.08c.65-1.1,1-1.65,1.61-2.76l-.37.09C898,564,897.43,564.7,897.43,565.23Zm0,43.52v1.13c2.62-2.64,3.93-4,6.56-6.72v-.58l-.8.08C900.88,605.13,899.73,606.34,897.43,608.75Zm8.53-6.38c-.59,7.46-1.51,11.2-2.77,11.29.14.23.21.34.36.56-.44,3.74-.66,5.61-1.09,9.32.14.74.21,1.11.36,1.84-1.31,4.91-2.87,13.73-4.66,26.22l-.37.67c.83,0,1.24.66,1.24,1.88l.37.59h.36l1.46-.51,7.8,1.5q0-1.17,2.34-1.08C910.42,643.53,910,638,909,627c.15-.76.22-1.14.37-1.9-2-10.29-3.07-17.8-3.07-22.79Zm-5.47-44v.8l.36-.08,1.24-1.1v-.58l-.51.12ZM906,599.22c-.32,1.06-.49,1.59-.81,2.65l.81-.08c.14-.81.22-1.22.36-2v-.58Zm.73,1.32.36,0a5.06,5.06,0,0,0,2-2.8v-.59C907.46,598.54,906.69,599.68,906.69,600.54Zm3.43.22,1.24,1.65,2.26-.82v1.19l1.25-.12c0-1.19-.66-1.73-2-1.59v-.6c-.17.26-.26.39-.44.64l-.36,0Zm1.6-5.86.37,0,1.53-1.49v-1.32l-.36.05Zm2.71-4.74v1.2c1.17-.7,2.7-2.77,4.61-6.25l-.37,0c-1.07.63-2.22,2.27-3.44,4.9Zm1.17,12.43,1.24,1.93.37-.64V603Zm2.71,2.4c.43.74.65,1.1,1.09,1.84v-.72l-.73-1.15Zm1.61,98.69c-.21.75-.31,1.12-.52,1.86l.88.14v-1.94Zm.36-96.31v.6l1.54.61c0-.89-.39-1.3-1.17-1.24Zm.73,95.88v.61l.81.12v-1.82Zm.81,6.57L923,712v-.74l-.8-1.35Zm1.17,2.77v.73l1.54,1.49v-2Zm1.54-10,.37,0,2.71-1v-1.36C925.56,700.76,924.53,701.51,924.53,702.57Zm.73,13,1.25,3.54.73.14v-2.1l-1.54-1.5Zm.44-17.36v1.23l1.18-.46v-1.23Zm6.61,26.57v.62q1,3.57,3.16,4Z" transform="translate(-763.17 -366.87)"/><path class="cls-3" d="M987.9,534.54c5.79-.77,12.14,3.33,16.19,11.57,4.39,8.94,7.85,19.82,7.59,30.7-.12,4.77-.4,7.2-.75,7.22l.75,2.78a84.64,84.64,0,0,1-6,32.37c-.64,0-2.4,3.61-5.28,10.69v1.39c6,4.68,9.35,9.47,10.19,14.26.3,1.13.45,1.69.74,2.82-.15.9-.22,1.35-.37,2.25h.37c.75,0,1.12,2.64,1.12,7.91v2.81c-.15,1.69-.22,2.54-.37,4.22l.37.86c-.15,2-.22,3-.37,4.92.15,3.16.22,4.74.37,7.9-.3,1.12-.45,1.67-.74,2.79.14.9.22,1.36.37,2.27l-.75,9.26c.75,4.91-.58,16.8,1.86,27.16.72,3,3,5.31,4.17,5.4l.37,0c.95.07,2-.8,3.06-2.61l.37,0v.71c0,2.46-.37,3.86-1.12,4.18l-1.12-.08-2.3-.88-.38,0v.7l3.8,1.71c-1.49,6.79-5.91,12.69-13.24,17.41l-1.49.68-1.19-.13c-2.92-.33-5.42-4-7.5-10.87-1.09-.12-2.73-3.82-4.9-11,.14-.26.22-.39.37-.65v-.69c-.15-1.73-.23-2.59-.37-4.31l1.11.94.37,0v-.83c-.49,0-.74-.76-.74-2.14l-1.12-2.17.38-2c-.15-1.12-.23-1.68-.38-2.79l.75-9-.75-1.43v-4.27l.75-1.33c-.15-2-.23-3-.37-5,.14-.81.22-1.22.37-2-.15-1.66-.23-2.5-.37-4.16v-2.2c.14-1.1.22-1.65.37-2.74-.15-1.11-.23-1.67-.37-2.78v-.69c.14-2.25.22-3.38.37-5.63-.15-2.27-.23-3.4-.37-5.67.14-.27.22-.4.37-.67v-.69c-.6,0-1-3.14-1.12-9.12,0-3.63-3.39-5.82-10.16-6.44l-4.88-.05v23.34l-.45,13.06.45,3.41-.45.64.45,3.54v5.4l-.82,1.28c.33,2,.49,2.95.82,4.93l-.45.63.45.72-.45.63-.37,0c.33,2.78.49,4.18.82,7l-.45.63v.68l.45,2.74-.45,2c1.83,7.13,3.85,10.87,6.08,11.14,1.18.15,2.56-1.09,4.15-3.74l.37,0V726q-1.41,6.42-3.78,8.56c-1.88,6.75-4.78,10.08-7.56,9.37-3.12-.81-6.49-4.74-9.39-10.4-2.27,4.61-4.39,6.7-6.36,6.36l-.73-.12c-3.84-.67-8.34-7.29-13.5-19.37v-.64l5.6,3.45,2.29-.29,1.1.82c-.14-.28-.22-.42-.36-.71v-.65c.54.08,1.27-2.45,2.21-7.63-.49-.07-.74-.75-.74-2.06l.37-.6c-.15-1.33-.22-2-.37-3.31v-1.31c.15-2.12.22-3.18.37-5.3-.15-1.58-.22-2.38-.37-4,.15-.82.22-1.23.37-2-.15-1.58-.22-2.37-.37-4v-3.26l.37-.75-.37-.68V667l.74-1.92c-.3-6.13-.44-9.18-.74-15.29.15-.84.22-1.25.37-2.08-2.24-4.27-3.36-6.38-5.6-10.55l-.37-.64v-.65c4-8,6-13.66,6-16.62.15-1.88.22-2.82.37-4.71l-.37-.64v-1.3c.15-1.05.22-1.58.37-2.63-.3-1.61-.44-2.41-.74-4v-.65l.74-1.35c-.3-1.86-.44-2.79-.74-4.65.15-1.31.22-2,.37-3.29-.15-2.39-.22-3.58-.37-6v-5.87c.15-1.37.22-2,.37-3.43-.15-1.81-.22-2.71-.37-4.52.3-6.4.44-9.6.74-16-1.67-2.9-3.3-4.2-4.87-4-2.39,2.5-3.58,3.74-6,6.2v-.64c2.85-7.69,6.21-13.1,10.1-16.1a5.35,5.35,0,0,1,4.87-3.57c1.45,0,3.72,2.46,6,6.47,5.76-7.58,9.79-11.64,12.06-12l.37,0,.37.62C982.25,536.12,984.13,535.59,987.9,534.54ZM960.44,638.43q0,1.85-4.5,3.41v.65h1.18c2.11-1.82,3.74-2.74,4.87-2.74v-1.32l-.37.66h-.44l-.37-.66Zm-3.32,0v.65H959v-.66Zm1.11-24v1.31l1.47,1.39v-.66Zm9,21.33v1.33l1.85-.67v-.67Zm1.85-89v.67l1.92-.28v-.67ZM980,557.09c0,1.35-.25,2.06-.74,2.12l-.37-.64-1.85.89-1.11.13v6.88l-.45,2.74.45.63v.68l-.45,5.57.45,9.54-.45,4.08.45,5.5v4.86l-.82,2.07c.33,1.6.49,2.4.82,4l-.45,4.87.45,2.68-.45,2.85q0,6.08,2.3,6l5.26.56c5-2.65,7.56-7.36,7.56-14.06q0-5.64,1.86-5.73v-.69c-1,.05-1.49-.62-1.49-2v-14l.75-1.43c-.94-15.83-2.21-23.63-3.79-23.47,0-1.65-1.88-2.84-5.63-3.51v-.68c-.15.29-.23.43-.37.72l-1.56.17V557Zm-3.7-11.32v.68l1.85.43.37,0v-.68l-1.85-.43Zm0,85.07v.67h1.11l2.59-1.39v-.68l-1.11,0Zm.37,11.07v1.35h1.11v-.68Zm2.59-95.18v.68l1.93.43,1.11-.14v-1.36l-.37,0-1.56.88-.37-.64Zm3,80.63c.14.27.22.4.37.67v.69l1.48-.71v-1.36Zm1.11,2.71v.68l1.93,0V630Zm1.48-81.87v.69l1.56.5V548Zm1.56,76.35v1.37l1.85-1.4v-.69l-.74,0ZM989.76,549v.68l2.67.4.74-.08v-.69l-2.23-.45Zm1.18,71.19v1.38l1.12-.72v-.69Zm.37,12.66v.69l1.86.68h.74v-.69l-2.22-.67Zm2.6-82.93v.69l1.56-.16v-.69Zm1.19,84.29q0,1.38,1.11,1.38h.38v-.69Zm.74-17.6v.7l1.12,0,.37-.71v-.69H997Zm.37-65.55v.7l2.6.43,1.94-.18v-.7c-1.67-.12-2.5-.18-4.16-.28Zm1.86,170.61v.69l4.16,2.47,1.12.1q0-1-4.91-3.23ZM999.63,637v.7l1.49.69h.74v-.7L1000,637Zm1.86-85v.69l2.23.5.82-.08v-.7l-2.31-.48Zm0,58.81v.7l.74,0c.6-.86.89-1.29,1.49-2.14h-.37Zm3,113.59-.45.66v.7l3.42.3v-.71Zm1.11-83.06v1.4h1.49V642Zm5.28,85c0,.94.37,1.44,1.12,1.5l.37,0v-.7Z" transform="translate(-763.17 -366.87)"/><path class="cls-3" d="M1038,528.27l.75,1.39.82-1.49,1.94,2.18v-.86c5.12,4.39,7.83,7.56,8.13,9.38,1.44-.07,2.49,1.63,3.13,5.07.75,0,1.12,1,1.12,3q2.47-.09,3.89,11.18c-.15.93-.23,1.4-.38,2.33l.38-.74h.37c4.75,14.86,6,31.29,8.21,46.62.78,3.95,1.17,5.93,1.94,9.88l-.45.73v.72c2.66,10.45,3.91,21.21,5.46,31.86h.37c.33-7.28.49-10.92.82-18.2-.15-1.22-.22-1.83-.37-3V625.2c.3-.58.45-.88.74-1.46-.29-1.22-.44-1.83-.74-3,.15-1.52.22-2.28.37-3.79-.15-2.45-.22-3.67-.37-6.12l.37-.73v-.72c-.33-1.81-.49-2.71-.82-4.51.48-.94.72-1.4,1.19-2.34h-1.19V590.4c0-5.91.27-9.95.82-12.09-.33-2.73-.49-4.1-.82-6.83l.45-.74-.45-3.78.45-3.79-.45-3.78.45-2.33q-.83-14.41-5.08-14.33-1.5,0-5.82,5.52l-.38-.87v-.72q5-12.2,9.34-14.61c0-1,.37-1.46,1.12-1.48l1.19.71v-.73c.45-.94.67-1.41,1.12-2.34l1.57,0c1.74,0,3.44,1.77,5.08,5.35q2.68-4.53,4.63-4.53l1.57.73,2.31-.72c2.51,2.4,3.77,3.61,6.28,6l-.45,2.33.45-.73h.37q3.81,7.33,4.26,10.55l-.38.86H1101a6.62,6.62,0,0,0-6.65-4.75q-3.88,0-3.88,14.41h-.37c.15,1.52.22,2.28.37,3.79v8.31c0,1.07-.37,1.6-1.12,1.6.45,1.52.67,2.28,1.12,3.79l-1.12,2.19v.87l1.12.73v1.46h-.37c.15,2.16.22,3.23.37,5.39v12.1a35.2,35.2,0,0,1-.75,8.3l.38.73v.87l-.38.73v.73l.38,3.06-.38.73.38,2.33c.49,0,.74,2,.74,6a6,6,0,0,1,2.77,5.39v1.46l1.12-1.46c.77,1.81,1.16,2.71,1.94,4.52v1.46q-6.95,15.13-7,20.54l.75,1.46-.75,2.33.38.73h.37c-.15,1.52-.22,2.27-.37,3.79v1.46c.15,1.22.22,1.83.37,3.06l-.37.72v.73l.37.88v.73l-.37.73v.72c.15.94.22,1.4.37,2.33l-.37.73v.73l.37.73v.88l-.37.72v.73l.37.73V679c-.15.93-.22,1.4-.37,2.33.15,1.81.22,2.71.37,4.52l-.75,1.6v2.19l.75,2.33v1.46c-.15,1.22-.22,1.83-.37,3.06.15,1.22.22,1.83.37,3.06l-.75,4.52.75,1.6v.73l-.37.73.37.72v1.61l-.37.73.37.72v3.06l-.75,1.46.75,5.25-.37.73a41.44,41.44,0,0,0,2.69,13.68l4.7,0,3.51-6.17c.15.29.22.44.37.72-2,9.54-4.85,15.66-8.58,18.31-2.33,1.89-3.5,2.82-5.83,4.69h-1.12c-7.52,0-11.28-1.41-11.28-4l-2.31-1.5c-5.54-8.74-6.22-20.5-7.77-30.4l.37-.72h.38v-1.45c-1.3,0-1.94-1.54-1.94-4.54.14-.93.22-1.39.37-2.32l-.75-1.46.75-2.31q-1.58,0-1.57-6.86l-.37.87h-.38c-.29-1.86-.44-2.8-.74-4.66.3-.57.45-.86.74-1.44-.84,0-1.37-1.52-1.56-4.52h-.38c.15-2.14.23-3.22.38-5.36v-1.45c-1.4,0-1.47-4.92-2.69-11.35-1.93-10.17-4.63-23.72-6.2-35.5q-1.48-3.75-2.38-12h-.38v18.78c-.3.92-.44,1.38-.74,2.31.3,2.08.44,3.12.74,5.2-.3,2.71-.44,4.07-.74,6.78.3,1.79.44,2.69.74,4.48v2.31c-.15,5.72-.22,8.58-.37,14.3l.37.73v.72l-.37.71v.73c.15,4.21.22,6.32.37,10.55v3.75c0,1.06-.37,1.58-1.12,1.56.45,1.23.68,1.84,1.12,3.06-.15,1.15-.22,1.73-.37,2.88.15,3,.22,4.51.37,7.52-.15,1.85-.22,2.77-.37,4.61q0,12.42,5.82,19.59h.37v-1.45l1.2,0c.84,0,1.74-.72,2.69-2.23h.37c.33.64.49,1,.82,1.62-3,5.9-5.57,8.79-7.76,8.7q-3,4.35-6.2,4.18-2.68-.13-5.44-4c-1.55,1.12-2.33,1.68-3.88,2.78l-1.56-.1c-.55,0-.82-.82-.82-2.34l-.38,0-1.11,1.5c-.9-1.78-2.84-3.38-5.82-4.83l-5.06-8.62v-.71l.74.06,3.13,1.78,1.19.08,1.94-.73.75,1.61.37,0-.37-.74v-.86c1.4-2.88,2.1-4.32,3.5-7.23l-.82-5.19.82-3.54c-.33-3-.49-4.49-.82-7.48l.45-3.7-.45-2.31.45-.69-.45-3.74v-6l.45-3-.45-3,.45-8.14-.45-9.6v-2.29l.45-4.43-.45-3.72V652.2l.45-.71a23.58,23.58,0,0,0-4.33-14.16c-.59-1.77-.89-2.65-1.49-4.41v-2.14c3.88-6.87,5.82-12.87,5.82-17.93l-.45-8.14V593.55l.45-6.74-.45-5.28q0-6.43,3.5-9v-.72h-.37l-2.31,3-.82-1.4V564.5l.82,0c-.15-1.19-.22-1.79-.37-3,.15-.93.22-1.39.37-2.31-.6,0-1-2.9-1.19-8.81l-3.06-4.23-1.56.11q-2.24.15-4.25,3.14l-.82.06v-.71c4.62-9.14,7.33-13.78,8.12-13.84l3.5-4Q1034,529.26,1038,528.27Zm-3.5,46.4h.37l.82-1.47-.45,0C1035,573.79,1034.84,574.09,1034.54,574.67Zm1.94-6v.72c.15.91.22,1.36.37,2.28l.37,0v-2.3l-.37-.7Zm1.94-1.67v.87c.15.85.22,1.28.37,2.14l.37,0v-.72c-.15-.91-.22-1.37-.37-2.28Zm0,129.34h.37l.82-1.41-.45,0C1038.86,695.53,1038.71,695.81,1038.42,696.38Zm2.76-5.1v2.16l.74,0,1.57-2.83c-.15-.35-.23-.53-.37-.88.14-.28.22-.42.37-.71Zm18.58-14.66v1.45l1.19-.71V675.9Zm3.88-3.74h.37l1.2-.72v-1.6Zm3.51-4.48c0,1-.4,1.46-1.2,1.45l-.37.72v.73h.37l1.57-2.89Zm3.51-3.76-.38.73v.73h.38l1.12-.72v-.73Zm6.2-8.42-3.89,6.1v.73q4.26-4.93,4.26-6.83Zm-1.95-112.86a2.3,2.3,0,0,0,1.95,2.31A2.3,2.3,0,0,0,1074.91,543.36Zm5.46,6.06v1.46l2.31,1.59h.38v-.73Zm0,102.29h.37l.82-1.46h-.45C1080.81,650.83,1080.67,651.12,1080.37,651.71Zm3.88-97.79.75,1.6h.82v-1.6ZM1085,655.5l-.38.73v.87l2.32-.87v-.73Zm0-11.37v1.6l1.19-.87v-.73Zm2.39-4.52h.37l.75-1.45h-.38C1087.84,638.74,1087.69,639,1087.39,639.61Zm2.31-9c-.15.87-.22,1.31-.37,2.18v1.61h.37l.38-3.06v-.73Zm.38,6.7v.88h1.57v-.88Zm2.69-9-.75,1.46-1.2,3h.45l1.94-3.78v-.73Z" transform="translate(-763.17 -366.87)"/><path class="cls-3" d="M1118.23,527.78q2.24.09,6,7.21c1.64-4.06,3.24-6,4.77-6,10.23.61,15.21,11.19,16.55,20.11-2.2-1.35-3.3-2-5.51-3.35-3.68.34-5.52,2.26-5.52,5.71.15,7.94.23,11.91.38,19.85V576c-.15,2.41-.23,3.61-.38,6,.15,2.42.23,3.63.38,6-.15,2.13-.23,3.19-.38,5.31.15,2.76.23,4.15.38,6.91v17.53c2.53,6.13,3.8,9.18,6.33,15.26v1.57c-1.84,5.06-3.3,7.6-4.4,7.6l.45.71v.72a23.44,23.44,0,0,0-2.76,10.65c.15,5.8.23,8.7.38,14.51v12.93l-.83,0v6.9l.45,4.59-.45.73v.72c.33,3.67.5,5.5.83,9.17-.15,7-.23,10.44-.38,17.41.15.91.23,1.37.38,2.28-.15,1.21-.23,1.82-.38,3,2.74,6,4.58,8.93,5.52,8.87q2.31-.15,5.14-4.19l.37,0q0,8.57-8.72,14.32l-.37-.84-.37,0c-2.29,3.79-4.13,5.72-5.52,5.81-2.74.16-5-1.79-6.72-5.85,0,2.21-3.16,4.5-6.71,4.2-5.33-.45-11-5.74-13.52-11.22l-1.94-4.62.38-.73c1.91,1.83,2.86,2.74,4.78,4.56q6.35-3.79,6.34-11.79l-.45-.71v-4.65l.83-2.34c-.33-2.43-.5-3.64-.83-6.07l.45-.74-.45-9.13v-1.6c0-10.78,0-21.63.83-32.38-.33-1.79-.5-2.69-.83-4.49l.45-4.65-.45-7.69v-2.32c-2.36-5.85-3.53-8.79-5.89-14.67,4.23-10.07,6.34-16.72,6.34-20,.15-5.52.23-8.27.38-13.79-.33-2.79-.5-4.18-.83-7V590.7l1.2-20.87c-.9,0-1.42-4.87-1.57-14.56.15-.92.22-1.38.37-2.31q0-6.83-5.89-9.45h-.38q-2.46-.06-4.4,3.84v-1.6c2.49-8.31,6.84-14.37,13.06-18.1Zm-3.14,21.33c0,1.07.4,1.61,1.2,1.64h.37V550Zm0,101.53v.72h.82l1.2-3.05v-.73c-.66,1.22-1,1.83-1.64,3Zm2-4.65v.73h.74l1.2-3v-.73c-.4,0-.8,1-1.2,3Zm2.76,6.07v.87h1.57v-1.59Zm.75-15.34c-.15.93-.23,1.39-.38,2.31h.82v-2.31Zm2-6.07-.82,3v1.59h.37c.33-1.56.5-2.34.82-3.9v-.72Zm-.45-82.74v.73L1125,548v-.87l-1.64-.07Zm2,164v.72l1.57.67c0-1-.4-1.43-1.2-1.4Zm.82-5.37v1.44l1.12,0v-.72Zm.75-85.08c-.15.92-.23,1.38-.38,2.31h.75v-2.31Zm0-74.95c.32.65.49,1,.82,1.63l.37,0v-1.59Zm.82,71.92-.45,2.31h.82c.15-.92.22-1.39.37-2.31Zm.74,90.34v.72l1.64.66h.38v-.72l-1.57-.67Zm.45-94.07v.72l.75-1.58v-.72Zm.37-69.52v1.44l1.57-.64v-.72Zm0,95.48v.72l1.2-2.3H1129Zm0,74.86v1.44l1.57.81Zm1.57-107.72c-.15.92-.22,1.38-.37,2.3v.72h.37c.33-1.21.49-1.81.82-3Zm.82-4.59v1.58l1.19-.7v-1.58Zm0,107.61v1.58l1.94-.07.37.7.45,0v-1.44l-2,.08-.38-.85Z" transform="translate(-763.17 -366.87)"/><path class="cls-3" d="M1173.28,532.18c4.11.48,8.34,6.73,12.69,18.47.15.89.23,1.34.37,2.23l-.37,0a11.29,11.29,0,0,0-5.56-2.81q-2.67-.28-3.19,9.23c.14,1.78.22,2.68.37,4.46l-.75,1.46c.63,1.55.94,2.33,1.56,3.87v7.33q2,8,3.57,26.86c-.15.27-.23.41-.37.68.44,0,1.23,5.71,2.37,17l-.37.68v.69c.77,7.11,1.16,10.66,1.93,17.74v1.37l-.37.82c1.1,7.9,1.64,11.84,2.74,19.68l.82,0c.71-14.34,2.94-28.67,4.74-42.9q.74-13.41,2-15.1v-.81l-.37-.69c.3-1.72.45-2.58.74-4.29l-.37-.84v-.67a11.4,11.4,0,0,1,1.19-4.93v-.81c-.15-1.15-.23-1.72-.37-2.87.49-3.83,1-5.73,1.55-5.68-.15-1.42-.22-2.12-.37-3.54q0-4.46,1.56-4.3c-.33-.9-.49-1.35-.82-2.24v-2.83c.33-1.1.49-1.65.82-2.74-.15-.34-.23-.51-.37-.85.14-1.39.22-2.08.37-3.46v-5.79l.81.1V556l-2.37-3.26-.44-.05c-.77.77-1.16,1.15-1.93,1.93l-.44-.06v-.68c3.6-9.23,7.3-13.44,11.1-12.84l1.55.24c.89.14,1.82,1,2.81,2.57a1.85,1.85,0,0,1,2.36-1.73l.74.12c4,.66,6,2.4,6,5.18l1.18-.45v.65c.29.88.44,1.32.74,2.2l1.18-.45c1.26,3.79,1.9,5.67,3.17,9.42-.15.29-.23.43-.37.72l-.44-.07c-.94-1.51-1.85-2.35-2.73-2.48l-.81-.13c-10.64,7-9.8,34.47-11,45-.47,3.67-.71,5.51-1.18,9.2.14.86.22,1.29.37,2.14-.33,3.65-.49,5.47-.82,9.12l.45,2.14-.45.65c2.66,5.81,4,9.8,4,12.09-.74,0-1.7,3.87-4,7.15-1.41,2-4.06,7.63-5.1,16.49a10.13,10.13,0,0,1-1.18,4.32c.29.53.44.79.74,1.31a15.11,15.11,0,0,1-1.56,6.51c.15,1.17.23,1.76.37,2.93-1.24,7.79-1.86,11.71-3.1,19.57.14,1.12.22,1.68.37,2.79-.63,3.83-.94,5.74-1.56,9.58l-2,.2v.68q2.37-.24,2.37,1.92c-.32.9-.49,1.35-.81,2.25.17,1.38.26,2.07.44,3.46-.18.34-.27.51-.44.86l-.37,0c0,7.83,1.58,12.19,4.73,13,.79-.11,1.19.33,1.19,1.31,2.07-1.74,3.1-2.61,5.17-4.33V728a25.71,25.71,0,0,1-5.17,10.64,24.38,24.38,0,0,1-8.66,5.74c-2.08-.62-3.12-.94-5.19-1.59-.15.35-.22.53-.37.87l-.45.06-1.93-1.93-3.56,3.35-2.82-1.16-1.19,1c-5.34-2.11-8.64-4.52-9.88-7.1l-1.19.82-3.64-6.39v-.7l.45,0c1.57.76,2.36,1.13,3.94,1.88,3.37-.33,5.5-3.52,6.39-9.53v-1.53c-1-8.48-1.43-12.73-2.38-21.25l.37,0c-.62-3.25-.93-4.87-1.56-8.13v-.7l.37-.85v-.7q-1.18.06-1.56-8.86l1.19,0v-.7q-2,.09-3.19-16.38c.14-1.18.22-1.77.37-2.95l-.75-3.76c.15-1.52.23-2.27.38-3.79-1.34,0-2-1.46-2-4.46-2.23-4.46-3.35-6.71-5.58-11.22a3,3,0,0,1-1.56-2.27v-1.55c2.92-8.83,4.39-15,4.39-18.68.14-.34.22-.51.37-.84-1.14,0-2.33-7.31-3.57-21.95l.37-.68v-.71c-.5,0-.89-3-1.19-9.09-1.59-9.3-2.38-15.16-2.38-17.52.32-.6.49-.9.82-1.5v-1.55c-.8-.06-1.2-.55-1.2-1.5l.38-.82c-1-2.44-1.43-3.67-2.39-6.12-.29-1.83-.44-2.75-.74-4.59a1.54,1.54,0,0,1-1.64-1.68q-4.54.66-5.59,2.6l-.37,0v-.71c3.63-9.46,6.68-14,9.16-13.8,1.43-1.35,2.15-2,3.58-3.35,2.23.21,4.76,2.73,7.58,7.5C1170.16,534.53,1172.54,532.09,1173.28,532.18Zm-15.54,16.43v.84l1.63.14.38-.82v-.71l-.38,0Zm7.14,60.68v.7l.82,0v-2.25Zm2-56.12c.32.65.49,1,.82,1.61l.37,0-.75-1.61Zm0,53.1v.84l1.19.74c0-1,.39-1.53,1.19-1.5v-.7h-.38Zm4.75-48.91c0,.93.4,1.43,1.19,1.5l.45,0v-.7Zm.82,40.89v1.53a2.11,2.11,0,0,0,2.38-2.12l-.37,0-.45.68-.37,0v-.7Zm1.56,85.58v.7l1.64.75.37,0v-.83l-1.19-.64Zm.45-123.3v.7l1.19.94.37,0v-.83l-1.19-.8Zm.74,35.62v1.53l1.19-.64v-1.53Zm1.63-1.31v.7l1.19.06v-1.53C1177.56,594.38,1177.32,594.54,1176.84,594.84Zm16.62,102.46V698c1.42.76,2.13,1.13,3.56,1.87l.44,0v-.67l-3.18-1.9ZM1199,582.39v.81c.32-.57.48-.85.81-1.41v-.68C1199.5,581.62,1199.34,581.88,1199,582.39Zm1.18-3.4v1.35c1-1.31,1.42-2,2.37-3.27l-.37,0Zm3.18-2.65v.81l.37,0c.33-1.14.49-1.71.81-2.86v-.66C1203.87,573.59,1203.48,574.48,1203.38,576.34Zm1.18,3.06v.67l1.19.11v-1.47Zm3.18-9c-.32.55-.48.83-.81,1.38v.66l.81.09c.3-.82.45-1.23.74-2Zm1.19-.53.37,0,.81-1.36-.44,0C1209.37,569.05,1209.22,569.32,1208.93,569.87Zm1.55,5.07.37.7,1.62-.48v-1.45l-1.18-.13Z" transform="translate(-763.17 -366.87)"/><path class="cls-3" d="M1280.14,553.71l1.09.29c2.62.7,5.45,5.45,8.5,13.89.34,1.7.52,2.55.87,4.24l-.51-.12c-1.31-3.42-3.22-5.47-5.73-6.07-1.31-.31-2.35.63-3.13,2.85.64,5.39,1,8.07,1.6,13.4-.48-.08-.72.47-.72,1.66l-.37-.74-.51-.09v3l.51.08c.15-.91.22-1.37.37-2.28l.72.13c1,12.33-.64,32.9,6.53,44l.73,3.51c.87,0,2.44,1.78,4.71,5.16v.65a52.62,52.62,0,0,0-4.71,10.41q3.45,29.76,7,59.5c.77,2.78,1.91,4,3.4,3.57l1.15-.31c1.45-.39,3-2.26,4.62-5.56l.36.42c-4.42,9.82-8.63,15.64-12.64,16.81-1.85-1.06-2.78-1.6-4.64-2.71l-.72.19c-3.09,3.9-5.27,6.07-6.53,6.42l-1.6.43c-3.59,1-6.91-2.17-10-9.75l.36-.08c2.82,1.46,5.13,2,6.55,1.59s2.33-2.37,2.33-5.29c-.44-3.73-.65-5.6-1.09-9.36.87-1.12,1.31-1.67,2.18-2.78l-.36.07-1.82,1.58c-.2-.23-.31-.34-.51-.58v-7.12c-1.26.21-2.16-5.66-2.69-17.69-.15-.21-.22-.31-.36-.53v-.57l-3.87.42-4.22-.15-1.17.71c-2.19-.57-3.29-.87-5.48-1.47,0,1-1,1.81-3.07,2.33-1.1,10.63-2.3,21.29-4.25,31.8-.14,3.86-.22,5.79-.36,9.65q.74,3.74,3.07,3.25c1.22-.26,2.51-1.42,3.88-3.45v1.43c-1.07,4.12-3.63,8.48-7.68,13.13l-1.62.37c-2.15.49-4.35-.93-6.59-4.36l-.37.08c-2.3,3.94-4.38,6.14-6.24,6.52l-1.62.33c-6.23-1.42-9.35-5.27-9.35-11.27,1.72,1.6,3.41,2.24,5.08,2,2.9-.51,5-4.91,6.25-13.07l.37-.06-.37-.69v-2c1.41-6.8,2.12-10.17,3.53-16.88l-.44-.57v-1.5c.62-4.56.92-6.83,1.54-11.37l-.37-.59c1.38-8.54,2.07-12.78,3.45-21.19l-.36-.72v-.62q.66-1.39,1.24-9.18a50.43,50.43,0,0,0-4.69-11.86c.44-2,2.37-5.31,5.79-9.8,1.12-2.57,1.67-3.85,2.79-6.39,0-3.82,1.27-6.57,3.81-8.17v-.61l-1.1-.68c-.2,2.17-.61,3.24-1.25,3.2l-.36,0v-1.46c2-12.32,4.43-24.72,5.05-37.21l.8-4.91q0-9-4.24-9.83c-1.41.75-2.11,1.13-3.52,1.9v-.61c3.08-8,5.94-11.56,8.57-11,0-1,.63-1.3,1.9-1V551c.15-.25.22-.37.36-.63l.88.21V552l.73.16v-1.42c3.26.77,6.6,4.31,10,10.39C1274.88,555.45,1277.72,553.06,1280.14,553.71ZM1243.4,690.22l-.37.66v.62l.37,0,1.1-.75v-.62Zm2.27-.88V690l.44-.05,1.47-.78v-.74l-.73.08Zm2.72-1.67V689l1.17-.87v-.61Zm7.39-77.56V612l1.54-1.81v-.6Zm3.51-48.42v.6l.37.07c.64-.87,1-1.31,1.61-2.17l-.37-.07C1259.83,560.6,1259.29,561.13,1259.29,561.69Zm0,45.58v1.2c2.64-2.32,4-3.45,6.58-5.67v-.59l-.81-.08C1262.76,604.15,1261.6,605.18,1259.29,607.27Zm8.55-4.86c-.59,7.33-1.51,11-2.78,10.88l.37.61-1.1,9.35c.15.76.22,1.14.37,1.9-1.31,4.88-2.87,13.81-4.68,27-.14.29-.21.44-.36.73.83,0,1.24.59,1.24,1.86l.37.57h.36l1.46-.65c3.13.34,4.69.51,7.81.83,0-.77.78-1.19,2.33-1.25-.93-10.71-1.4-16.1-2.33-27,.15-.73.22-1.1.36-1.83-2-10.25-3.06-18-3.06-23Zm-5.48-46.48v.82l.37.09c.49-.23.74-.34,1.24-.55v-.59l-.51-.12Zm5.48,43.34-.8,2.48.8.08c.14-.78.22-1.16.36-1.94v-.58Zm.73,1.48.36,0a3.77,3.77,0,0,0,2-2.33v-.58C1269.34,598.93,1268.57,599.89,1268.57,600.75Zm3.42,1,1.24,1.86,2.26-.33v1.14l1.24.13c0-1.13-.66-1.78-2-1.92V602l-.44.52-.36,0Zm1.61-5.33.36,0,1.53-1.06v-1.25l-.36-.05C1274.51,595,1274.21,595.44,1273.6,596.37Zm2.69-3.86v1.14c1.16-.37,2.69-1.94,4.58-4.63l-.36-.06c-1.07.28-2.21,1.49-3.42,3.66Zm1.16,12.07,1.24,2c.15-.21.22-.31.36-.53v-.79Zm2.69,2.76,1.09,1.91v-.68l-.72-1.19Zm1.6,91.46c-.2.75-.3,1.13-.51,1.89l.88-.17v-1.79Zm.37-88.91v.56l1.52.81a1.18,1.18,0,0,0-1.16-1.34Zm.72,88.15v.55l.8-.15v-1.66Zm.8,5.74,1.16,1.53v-.66c-.32-.38-.48-.56-.79-.94Zm1.16,2.09v.66l1.53.77v-1.76Zm1.53-9.59.36-.07,2.68-1.7v-1.2Q1286.32,694.84,1286.32,696.28Zm.72,11.41c.5,1.08.74,1.61,1.24,2.68l.72-.17v-1.86l-1.52-.75Zm.44-15.69v1.1l1.16-.76v-1.09Zm6.52,21v.53c.68,1.76,1.71,2.44,3.11,2.06C1295.87,714.54,1295.25,714,1294,713Z" transform="translate(-763.17 -366.87)"/><path class="cls-3" d="M1334.19,569.68c5.53,2,10.08,7.81,13.67,16.77l-.35-.11a10,10,0,0,0-4.48-3.61l-.71-.23c-2.8-.87-4.42.49-4.84,4.11.17,1.51.25,2.27.42,3.77-.17,3.86-.25,5.8-.42,9.68l-.72.75.36.52v.45l-.71.84.71,1.48c-.14.9-.21,1.35-.36,2.25l.72,1.11-.72.77c.29,1.37.43,2,.72,3.41l-.72,2.22.72,1v.89c-.15.73-.22,1.1-.36,1.83.14.77.21,1.15.36,1.91v.45l-.72,1.36v.44c.89,3.23,1.33,4.83,2.21,8,.86,0,2.33,1.85,4.42,5.23-4.17,5.82-6.27,9.81-6.27,11.36-.14,1.14-.21,1.72-.36,2.87.29,1.45.43,2.18.72,3.62-.15,2.61-.22,3.92-.36,6.54.14,2,.21,3,.36,5l-.72,1.07v.45l.72,1.24c-.15,1.16-.22,1.74-.36,2.9.14,2.37.21,3.56.36,5.92v1l-.72,1.48.72.83-.36.52v.45l.78.72v4.18c0,6.16,2.34,8.58,7,7.2,4.27-1.26,7.95-7.23,11.06-17.06.15-1.89.22-2.83.36-4.72-.28-.93-.43-1.4-.71-2.35v-.4l1.84-.33v-.79l-.35.46-.43.08-1.41-.64.35-2.55-.35-7.43c.14-1.73.49-2.62,1.06-2.67l1.84-.17.77.8.36-.43,3.67,0c2.34-.57,3.51-.85,5.85-1.39l.35.4-.35,7.67v1.91l-.78.87a36.76,36.76,0,0,1,1.13,9.33c-1.13,5.84-2.58,10-4.37,12.38-2.72,5.86-5,9.34-7,10,0,1.32-2,3-5.87,5.12l-1.14-.08c0,1.76-3.53,4-10.66,6.6-3.41,1.23-7.74,1-13-1.35l-.79,1.28-.36-.45-.36.11-2.57,1.86c-4.83,1.51-10.32.37-16.47-4.15l-.36-.42v-1l.36-.09c2.4,0,3.59,0,6,0a9.1,9.1,0,0,0,4.1-7.68c0-1.37.26-2.12.79-2.24-.15-1-.22-1.48-.36-2.47l.72-1.63-.72-1.41v-2.07c.14-1,.21-1.57.36-2.61l-.36-.43-.43.08c.17-2.08.26-3.11.43-5.18v-8.64c.14-.21.21-.32.36-.53-.15-.61-.22-.92-.36-1.53-.17-3.67-.26-5.51-.43-9.19.17-1.24.26-1.85.43-3.08l-.43-2.53c.17-1.62.26-2.43.43-4.05,0-3.2-1.87-7.21-5.61-12.37a47.21,47.21,0,0,0,6.33-13.09,24.42,24.42,0,0,1-1.15-7.27c.31-2.2.47-3.31.79-5.5-.32-2.51-.48-3.77-.79-6.3.31-2.58.47-3.87.79-6.44-.15-.85-.22-1.27-.36-2.13V594l.36-.42V593l-.79-1.15v-6.09c-.77-7.39-2.49-11.51-5.18-12.24l-.79-.22c-1.11-.3-2.48.41-4.11,2.18-.14-.28-.21-.42-.36-.7,1.06-3.77,2.93-6.42,5.62-7.89l.36.11,1.51,1.45.36.11V568l-1.51-.95c2.21-2.14,5-2.62,8.26-1.52,2.34.77,4.57,3,6.67,6.64C1329.67,569.66,1331.91,568.87,1334.19,569.68ZM1317.08,571l.72,1.19.36.1-.72-1.19Zm2.94,2.33v1.06l1.15.82v-1Zm0,43.41v.48l.79-1v-.49C1320.5,616.16,1320.34,616.35,1320,616.75Zm1.15,1.08.36,0,.72-.89-.36,0Zm1.51-4.83c-.32.57-.48.86-.79,1.44l.79.09c.14-.6.21-.9.36-1.49Zm-.43,78.71.43-.11.71-1.12-.35.08Zm1.5-114.79v.57l1.15.81v-1Zm.36,112.82-.36.66v.47l.36-.08,1.15-.75v-.56Zm1.86-.81c-.14.19-.21.28-.36.46V690l1.15-.27Zm0-110.33v.47l1.51.43V579Zm.36,29.95V609l1.15-1.24-.36-.06Zm1.5,3.58v.56l1.15-1.34-.36-.05Zm.36,75.26v.47l.79-.19,1.07-.71v-.46l-.71.16Zm1.15-80.81V607c.28-.33.43-.49.71-.81v-.46C1329.77,606.09,1329.62,606.25,1329.34,606.58Zm1.5,78.82v.46l.35-.08a15.48,15.48,0,0,0,5.22-4l-.36.08C1333.48,684,1331.74,685.2,1330.84,685.4Zm2.57-82.9.36.07.78-.76-.36-.06Zm16.65,88.27.71.61.36-.11-.71-.61Zm2.56.44.78.65.35-.11-.78-.65Zm4.46,1.13v.4l2.54-.48v-.78Zm3.25-35.13v.86l1.13-.6v-.39Zm2.61,4.52v.76c2.4-1.34,3.73-2.42,4-3.31l-.36.05A6.72,6.72,0,0,1,1362.94,661.73Zm4.37-5v.44l.7-.9v-.37Z" transform="translate(-763.17 -366.87)"/><path class="cls-2" d="M830.09,562.6l4.64-1.63a10.81,10.81,0,0,0,5.08-.32c0,1,1.05,1.3,3.16.88,2.18,1.46,3.27,2.22,5.45,3.79a35.87,35.87,0,0,0,5.83-9.79l.36-.12V561l.36.4v.6c-.39.11-.75.89-1.08,2.32.72-.2,1.08,0,1.08.61v1.52c-.15.28-.22.42-.36.7l.36.41v.5l-.36.6.36.41v2.62c-.15,1.21-.22,1.81-.36,3l.36.43v.5c-.15.68-.22,1-.36,1.7.14.57.21.86.36,1.43l-.72,1.06.72.86c-.15,1.08-.22,1.62-.36,2.69.14.58.21.87.36,1.45-.29.86-.44,1.29-.72,2.15.28.35.43.52.72.87l-.36.57c.14.18.21.27.36.44v.51c-.15,3.9-.22,5.85-.36,9.74v.5c-.15.26-.22.39-.36.65v.3c.28.41.43.61.72,1v2.53c-.44.89-.65,1.34-1.08,2.23.43.92.64,1.38,1.08,2.31v1c-.29.47-.44.7-.72,1.17-3.92.33-5.87.5-9.78.85-.14-.22-.21-.32-.36-.54l-.35.61-1.8.16c-.14-.22-.21-.33-.36-.54l-.35,0c-.15.24-.22.37-.36.61-.15-.6-.22-.9-.36-1.49.14-3.05.21-4.57.36-7.63l-.36-.52V602c.29-1.21.43-1.82.72-3l-.72-.84v-2l.72-.12v-.48l-.72-1.2v-.48l.72-1.17c0-7-1.56-11.67-4.66-13.67,0-.81-2.17-1-6.5-.59v-.36l-1.85,1.32V579a21.65,21.65,0,0,0-4.63,14l-.64,1v.87c.11,1.22.17,1.84.28,3.07l-.28.49.64.66v4.88L823,604c.11.85.17,1.28.28,2.13v1.31c-.11,1.09-.17,1.64-.28,2.72.25,1,.38,1.47.64,2.45l-.36.48.36.48v.87c-.26,1.59-.39,2.39-.64,4l.28,1.71-.28,0c.25,1.37.38,2.06.64,3.44v1.74c-.15.74-.22,1.11-.36,1.84s2,3.67,6.13,9.28a24.82,24.82,0,0,1-5.06,6.52c-.54,2.58-.81,3.87-1.35,6.42v2.25c.11.68.17,1,.28,1.69-.11.68-.17,1-.28,1.7.25.76.38,1.14.64,1.91-.26,1.36-.39,2-.64,3.38.25,1.29.38,1.94.64,3.24l-.64.75-1.85-1.19-.36-.06v.42c1.66.53,2.49,1.37,2.49,2.53s-.17,1.59-.28,2.64c.25,1.44.38,2.16.64,3.61l-.36.36v.43c1.52,7.88,3.8,12.39,6.84,13.24l2.21.62c6-1.57,9-5.65,9-11.74l.35-.5,1,.77,1.15.23v-.58c-1.92-.37-2.87-1.86-2.87-4.46l.36-.41c-.15-1.13-.22-1.69-.36-2.82.14-2.25.21-3.38.36-5.64-.15-1.2-.22-1.8-.36-3l.36-.43.71.09.65,1,1.15-.34c4.18.33,6.28.48,10.49.76v1.51l-.36,0c.28,3.49.43,5.24.72,8.76v6c-.29.6-.44.89-.72,1.48.28.62.43.93.72,1.55-.15,1-.22,1.47-.36,2.44v1.61l-1.16-.24v-1.1l-.64-.14a1.72,1.72,0,0,0,1.44,1.91c.14.23.21.35.36.58v.5c-1.78,7-6.58,11.43-9.42,13.86-3,2.57-8.32,5-15.88,2.33-1.76-.63-6.68-4.46-11-10.47-3.35-4.63-5.68-10.17-7.52-14v-.81c.15-.47.22-.71.36-1.19l-.36-.1c-.47-.12-1.53-3.1-3.18-8.67l.35-.32c-.7-1.14-1.06-1.7-1.76-2.81-.74-3.44-1.1-5.14-1.84-8.5-.25-1.89-.38-2.83-.63-4.71l.28-.35v-.39c0-3.86-2.12-7.88-6.34-11.59l-1.06-1.5c2-2.43,3-3.7,4.93-6.31.45-2.58.68-3.89,1.13-6.51-.14-.18-.21-.27-.36-.44.24-3.06.59-4.88,1.06-5.44l-.35-1.58c.28-.64.42-1,.71-1.62-.15-.41-.22-.62-.36-1,2.17-11.28,4.17-18.87,6-22.17q.21-2.37,1.41-2.7v-.89c0-2,1.74-4.06,2.55-5.62,1.13-2.16,3-6.72,7.1-10.34q.36-1.56,3.91-3.86C824,565.55,826,564,830.09,562.6ZM808,663.05v1.19l1.34-.52-.35-.47v-.4Zm3.89-2.48c-.52,1.16-1,1.76-1.49,1.83V662l-1.06.2v.72l.36-.25.7.14c.15.15.22.23.36.39l.35.07c0-1,.61-1.56,1.84-1.61v-.49Zm.71-74.3.64-.18v-.82c.71-.2,1.06-.57,1.06-1.12l-.35.1Zm3.9,70.93c0,.73-.74,1.32-2.2,1.74v.82c1-.82,1.53-1.23,2.55-2.08v-.42Zm0-77.86c-.14.21-.21.32-.36.53v.42l.36-.11,1.06-.74V579Zm.71,80.49c-.14.48-.21.72-.36,1.2l2.49.42V661L817.92,660Zm3.55,1-.35.37v.42l1.84,1.18.36.06v-.43C821.87,661.79,821.5,661.47,820.76,660.84Zm10.76-85-.36.55v.45l1.14-.31ZM833,574l-.29.53v.92l.29-.08.35-1.48Zm0-1.47v.55l1.43-.41v-.56Zm4.36-5.94v1.5l.36-.11c.11-.63.17-1,.28-1.59Zm3.22-1v.57l.36-.11c0-1,.36-1.63,1.07-1.85.15-.62.22-.93.36-1.55l-.36.12C841.48,563.09,841,564,840.53,565.63Zm.36,12.8v.48l1.72.63v-1l-1.36-.14Zm2.51,5.73v1l1.07-.22v-.49Zm1.43,90.67v.48l1.08.21v-1Zm.72-91.71,1.51,2.7v.49l.64-.13-.28-.43v-.49l.28-.54v-.49C847.08,584.35,846.36,584,845.55,583.12Zm.79,93.94v.49l1.08.71v-1Zm1.36.77v1l1.8.37v-.49Zm.36-91.23v.89l.72-.14c0,1,.38,1.5,1.15,1.36v1l.72-.13-1.87-3.11Zm4.67,3.6v2.11l.8-.13c.48-.08.72-.66.72-1.73V590l-.36.06v1.1l-.8.13v-1.1Z" transform="translate(-763.17 -366.87)"/><path class="cls-2" d="M910.31,539.45l1.09-.25c2.64-.61,5.5,3,8.58,11.17.35,1.76.53,2.65.88,4.42l-.52.09c-1.32-3.31-3.25-4.7-5.79-4.21-1.32.26-2.37,1.77-3.15,4.5.65,5.53,1,8.32,1.61,13.9-.48.07-.73.76-.73,2l-.36-.67-.52.08v3.26l.52-.07c.14-1,.22-1.56.36-2.6L913,571c1,13.48-.78,35.18,6.6,47.4.29,1.57.44,2.36.73,3.94.88,0,2.47,1.87,4.78,5.77v.75a70.38,70.38,0,0,0-4.78,11.89q3.61,35.34,7.13,70.7,1.17,5.47,3.45,5.9l1.18.21c1.47.26,3-1.24,4.71-4.56.14.28.22.42.37.7-4.52,10.11-8.81,14.52-12.87,13.66-1.88-2.25-2.82-3.36-4.7-5.58l-.73-.15c-3.13,2.79-5.33,4-6.6,3.68l-1.61-.37c-3.61-.84-6.95-6-10-15l.36.08c2.82,2.72,5.12,4.41,6.58,4.61s2.34-1.43,2.34-4.57c-.44-4.18-.66-6.27-1.1-10.43l2.2-2.16-.37-.06-1.83,1c-.2-.33-.31-.49-.51-.81v-7.56c-1.27-.19-2.17-6.67-2.71-19.36l-.36-.63v-.6l-3.87-.39-4.24-1-1.16.46c-2.19-1-3.28-1.53-5.47-2.53,0,1-1,1.53-3,1.61-1.17,9.5-2.2,19.1-4.22,28.47-.15,3.51-.22,5.26-.36,8.75.48,2.49,1.5,3.94,3.05,4.31,1.21.29,2.5-.23,3.85-1.59v1.37c-1.06,3.47-3.61,6.46-7.63,8.77l-1.6-.44c-2.13-.6-4.3-3-6.52-6.94l-.37-.1c-2.27,2.41-4.32,3.29-6.15,2.75l-1.59-.47c-6.12-4.07-9.16-8.43-9.16-13.17a10.64,10.64,0,0,0,5,3.61c2.84.78,4.89-2,6.14-8.42l.36.08c-.14-.29-.21-.43-.36-.72v-1.7c1.39-5.25,2.09-7.91,3.48-13.31l-.44-.61V677c.61-3.76.91-5.65,1.52-9.46l-.36-.58c1.36-7.11,2-10.71,3.4-18-.14-.27-.21-.41-.36-.68v-.54c.44-.78.85-3.44,1.23-8a39.08,39.08,0,0,0-4.63-10.45c.43-1.73,2.34-4.6,5.72-8.82,1.1-2.37,1.66-3.56,2.76-6a9.22,9.22,0,0,1,3.78-7.94V606l-1.09-.47c-.2,2-.61,3.06-1.24,3.11l-.36,0v-1.34c2.05-11.75,4.39-23.64,5-35.59l.8-4.89q0-8.49-4.21-7.53l-3.49,3.13v-.55c3.05-8.43,5.88-13.14,8.5-13.81,0-.9.63-1.52,1.89-1.84v.68l.37-.78.87-.22v1.37l.73-.18v-1.37c3.25-.83,6.58,1,10,5.68C905,544.08,907.86,540,910.31,539.45ZM873.67,675.79c-.14.19-.21.29-.36.48v.54l.36.06,1.09-.37V676Zm2.25-.21v.55l.43.06,1.45-.33v-.66l-.72-.1Zm2.68-.81V676l1.16-.5v-.55ZM885.94,604v1.81l1.53-1.94v-.56Zm3.49-46.77v.57l.36-.08c.65-1.1,1-1.65,1.61-2.76l-.37.09C890,556,889.43,556.7,889.43,557.23Zm0,43.52v1.13c2.62-2.64,3.93-4,6.56-6.72v-.58l-.8.08C892.88,597.13,891.73,598.34,889.43,600.75Zm8.53-6.38c-.59,7.46-1.51,11.2-2.77,11.29.14.23.21.34.36.56-.44,3.74-.66,5.61-1.09,9.32.14.74.21,1.11.36,1.84-1.31,4.91-2.87,13.73-4.66,26.22l-.37.67c.83,0,1.24.66,1.24,1.88l.37.59h.36l1.46-.51,7.8,1.5q0-1.17,2.34-1.08C902.42,635.53,902,630,901,619c.15-.76.22-1.14.37-1.9-2-10.29-3.07-17.8-3.07-22.79Zm-5.47-44v.8l.36-.08,1.24-1.1v-.58l-.51.12ZM898,591.22c-.32,1.06-.49,1.59-.81,2.65l.81-.08c.14-.81.22-1.22.36-2v-.58Zm.73,1.32.36,0a5.06,5.06,0,0,0,2-2.8v-.59C899.46,590.54,898.69,591.68,898.69,592.54Zm3.43.22,1.24,1.65,2.26-.82v1.19l1.25-.12c0-1.19-.66-1.73-2-1.59v-.6c-.17.26-.26.39-.44.64l-.36,0Zm1.6-5.86.37,0,1.53-1.49v-1.32l-.36.05Zm2.71-4.74v1.2c1.17-.7,2.7-2.77,4.61-6.25l-.37,0c-1.07.63-2.22,2.27-3.44,4.9Zm1.17,12.43,1.24,1.93.37-.64V595Zm2.71,2.4c.43.74.65,1.1,1.09,1.84v-.72l-.73-1.15Zm1.61,98.69c-.21.75-.31,1.12-.52,1.86l.88.14v-1.94Zm.36-96.31v.6l1.54.61c0-.89-.39-1.3-1.17-1.24Zm.73,95.88v.61l.81.12v-1.82Zm.81,6.57L915,704v-.74l-.8-1.35Zm1.17,2.77v.73l1.54,1.49v-2Zm1.54-10,.37,0,2.71-1v-1.36C917.56,692.76,916.53,693.51,916.53,694.57Zm.73,13,1.25,3.54.73.14v-2.1l-1.54-1.5Zm.44-17.36v1.23l1.18-.46v-1.23Zm6.61,26.57v.62q1,3.57,3.16,4Z" transform="translate(-763.17 -366.87)"/><path class="cls-2" d="M979.9,526.54c5.79-.77,12.14,3.33,16.19,11.57,4.39,8.94,7.85,19.82,7.59,30.7-.12,4.77-.4,7.2-.75,7.22l.75,2.78a84.64,84.64,0,0,1-6,32.37c-.64,0-2.4,3.61-5.28,10.69v1.39c6,4.68,9.35,9.47,10.19,14.26.3,1.13.45,1.69.74,2.82-.15.9-.22,1.35-.37,2.25h.37c.75,0,1.12,2.64,1.12,7.91v2.81c-.15,1.69-.22,2.54-.37,4.22l.37.86c-.15,2-.22,3-.37,4.92.15,3.16.22,4.74.37,7.9-.3,1.12-.45,1.67-.74,2.79.14.9.22,1.36.37,2.27l-.75,9.26c.75,4.91-.58,16.8,1.86,27.16.72,3,3,5.31,4.17,5.4l.37,0c.95.07,2-.8,3.06-2.61l.37,0v.71c0,2.46-.37,3.86-1.12,4.18l-1.12-.08-2.3-.88-.38,0v.7l3.8,1.71c-1.49,6.79-5.91,12.69-13.24,17.41l-1.49.68-1.19-.13c-2.92-.33-5.42-4-7.5-10.87-1.09-.12-2.73-3.82-4.9-11,.14-.26.22-.39.37-.65v-.69c-.15-1.73-.23-2.59-.37-4.31l1.11.94.37,0v-.83c-.49,0-.74-.76-.74-2.14l-1.12-2.17.38-2c-.15-1.12-.23-1.68-.38-2.79l.75-9-.75-1.43v-4.27l.75-1.33c-.15-2-.23-3-.37-5,.14-.81.22-1.22.37-2-.15-1.66-.23-2.5-.37-4.16v-2.2c.14-1.1.22-1.65.37-2.74-.15-1.11-.23-1.67-.37-2.78v-.69c.14-2.25.22-3.38.37-5.63-.15-2.27-.23-3.4-.37-5.67.14-.27.22-.4.37-.67v-.69c-.6,0-1-3.14-1.12-9.12,0-3.63-3.39-5.82-10.16-6.44l-4.88-.05v23.34l-.45,13.06.45,3.41-.45.64.45,3.54v5.4l-.82,1.28c.33,2,.49,2.95.82,4.93l-.45.63.45.72-.45.63-.37,0c.33,2.78.49,4.18.82,7l-.45.63v.68l.45,2.74-.45,2c1.83,7.13,3.85,10.87,6.08,11.14,1.18.15,2.56-1.09,4.15-3.74l.37,0V718q-1.41,6.42-3.78,8.56c-1.88,6.75-4.78,10.08-7.56,9.37-3.12-.81-6.49-4.74-9.39-10.4-2.27,4.61-4.39,6.7-6.36,6.36l-.73-.12c-3.84-.67-8.34-7.29-13.5-19.37v-.64l5.6,3.45,2.29-.29,1.1.82c-.14-.28-.22-.42-.36-.71v-.65c.54.08,1.27-2.45,2.21-7.63-.49-.07-.74-.75-.74-2.06l.37-.6c-.15-1.33-.22-2-.37-3.31v-1.31c.15-2.12.22-3.18.37-5.3-.15-1.58-.22-2.38-.37-4,.15-.82.22-1.23.37-2-.15-1.58-.22-2.37-.37-4v-3.26l.37-.75-.37-.68V659l.74-1.92c-.3-6.13-.44-9.18-.74-15.29.15-.84.22-1.25.37-2.08-2.24-4.27-3.36-6.38-5.6-10.55l-.37-.64v-.65c4-8,6-13.66,6-16.62.15-1.88.22-2.82.37-4.71l-.37-.64v-1.3c.15-1.05.22-1.58.37-2.63-.3-1.61-.44-2.41-.74-4v-.65l.74-1.35c-.3-1.86-.44-2.79-.74-4.65.15-1.31.22-2,.37-3.29-.15-2.39-.22-3.58-.37-6v-5.87c.15-1.37.22-2,.37-3.43-.15-1.81-.22-2.71-.37-4.52.3-6.4.44-9.6.74-16-1.67-2.9-3.3-4.2-4.87-4-2.39,2.5-3.58,3.74-6,6.2v-.64c2.85-7.69,6.21-13.1,10.1-16.1a5.35,5.35,0,0,1,4.87-3.57c1.45,0,3.72,2.46,6,6.47,5.76-7.58,9.79-11.64,12.06-12l.37,0,.37.62C974.25,528.12,976.13,527.59,979.9,526.54ZM952.44,630.43q0,1.85-4.5,3.41v.65h1.18c2.11-1.82,3.74-2.74,4.87-2.74v-1.32l-.37.66h-.44l-.37-.66Zm-3.32,0v.65H951v-.66Zm1.11-24v1.31l1.47,1.39v-.66Zm9,21.33v1.33l1.85-.67v-.67Zm1.85-89v.67l1.92-.28v-.67ZM972,549.09c0,1.35-.25,2.06-.74,2.12l-.37-.64-1.85.89-1.11.13v6.88l-.45,2.74.45.63v.68l-.45,5.57.45,9.54-.45,4.08.45,5.5v4.86l-.82,2.07c.33,1.6.49,2.4.82,4l-.45,4.87.45,2.68-.45,2.85q0,6.08,2.3,6l5.26.56c5-2.65,7.56-7.36,7.56-14.06q0-5.64,1.86-5.73v-.69c-1,.05-1.49-.62-1.49-2v-14l.75-1.43c-.94-15.83-2.21-23.63-3.79-23.47,0-1.65-1.88-2.84-5.63-3.51v-.68c-.15.29-.23.43-.37.72l-1.56.17V549Zm-3.7-11.32v.68l1.85.43.37,0v-.68l-1.85-.43Zm0,85.07v.67h1.11l2.59-1.39v-.68l-1.11,0Zm.37,11.07v1.35h1.11v-.68Zm2.59-95.18v.68l1.93.43,1.11-.14v-1.36l-.37,0-1.56.88-.37-.64Zm3,80.63c.14.27.22.4.37.67v.69l1.48-.71v-1.36Zm1.11,2.71v.68l1.93,0V622Zm1.48-81.87v.69l1.56.5V540Zm1.56,76.35v1.37l1.85-1.4v-.69l-.74,0ZM981.76,541v.68l2.67.4.74-.08v-.69l-2.23-.45Zm1.18,71.19v1.38l1.12-.72v-.69Zm.37,12.66v.69l1.86.68h.74v-.69l-2.22-.67Zm2.6-82.93v.69l1.56-.16v-.69Zm1.19,84.29q0,1.38,1.11,1.38h.38v-.69Zm.74-17.6v.7l1.12,0,.37-.71v-.69H989Zm.37-65.55v.7l2.6.43,1.94-.18v-.7c-1.67-.12-2.5-.18-4.16-.28Zm1.86,170.61v.69l4.16,2.47,1.12.1q0-1-4.91-3.23ZM991.63,629v.7l1.49.69h.74v-.7L992,629Zm1.86-85v.69l2.23.5.82-.08v-.7l-2.31-.48Zm0,58.81v.7l.74,0c.6-.86.89-1.29,1.49-2.14h-.37Zm3,113.59-.45.66v.7l3.42.3v-.71Zm1.11-83.06v1.4h1.49V634Zm5.28,85c0,.94.37,1.44,1.12,1.5l.37,0v-.7Z" transform="translate(-763.17 -366.87)"/><path class="cls-2" d="M1030,520.27l.75,1.39.82-1.49,1.94,2.18v-.86c5.12,4.39,7.83,7.56,8.13,9.38,1.44-.07,2.49,1.63,3.13,5.07.75,0,1.12,1,1.12,3q2.47-.09,3.89,11.18c-.15.93-.23,1.4-.38,2.33l.38-.74h.37c4.75,14.86,6,31.29,8.21,46.62.78,3.95,1.17,5.93,1.94,9.88l-.45.73v.72c2.66,10.45,3.91,21.21,5.46,31.86h.37c.33-7.28.49-10.92.82-18.2-.15-1.22-.22-1.83-.37-3V617.2c.3-.58.45-.88.74-1.46-.29-1.22-.44-1.83-.74-3,.15-1.52.22-2.28.37-3.79-.15-2.45-.22-3.67-.37-6.12l.37-.73v-.72c-.33-1.81-.49-2.71-.82-4.51.48-.94.72-1.4,1.19-2.34h-1.19V582.4c0-5.91.27-9.95.82-12.09-.33-2.73-.49-4.1-.82-6.83l.45-.74-.45-3.78.45-3.79-.45-3.78.45-2.33q-.83-14.41-5.08-14.33-1.5,0-5.82,5.52l-.38-.87v-.72q5-12.2,9.34-14.61c0-1,.37-1.46,1.12-1.48l1.19.71v-.73c.45-.94.67-1.41,1.12-2.34l1.57,0c1.74,0,3.44,1.77,5.08,5.35q2.68-4.53,4.63-4.53l1.57.73,2.31-.72c2.51,2.4,3.77,3.61,6.28,6l-.45,2.33.45-.73h.37q3.81,7.33,4.26,10.55l-.38.86H1093a6.62,6.62,0,0,0-6.65-4.75q-3.88,0-3.88,14.41h-.37c.15,1.52.22,2.28.37,3.79v8.31c0,1.07-.37,1.6-1.12,1.6.45,1.52.67,2.28,1.12,3.79l-1.12,2.19v.87l1.12.73v1.46h-.37c.15,2.16.22,3.23.37,5.39v12.1a35.2,35.2,0,0,1-.75,8.3l.38.73v.87l-.38.73v.73l.38,3.06-.38.73.38,2.33c.49,0,.74,2,.74,6a6,6,0,0,1,2.77,5.39v1.46l1.12-1.46c.77,1.81,1.16,2.71,1.94,4.52v1.46q-6.95,15.13-7,20.54l.75,1.46-.75,2.33.38.73h.37c-.15,1.52-.22,2.27-.37,3.79v1.46c.15,1.22.22,1.83.37,3.06l-.37.72v.73l.37.88v.73l-.37.73v.72c.15.94.22,1.4.37,2.33l-.37.73v.73l.37.73v.88l-.37.72v.73l.37.73V671c-.15.93-.22,1.4-.37,2.33.15,1.81.22,2.71.37,4.52l-.75,1.6v2.19l.75,2.33v1.46c-.15,1.22-.22,1.83-.37,3.06.15,1.22.22,1.83.37,3.06l-.75,4.52.75,1.6v.73l-.37.73.37.72v1.61l-.37.73.37.72v3.06l-.75,1.46.75,5.25-.37.73a41.44,41.44,0,0,0,2.69,13.68l4.7,0,3.51-6.17c.15.29.22.44.37.72-2,9.54-4.85,15.66-8.58,18.31-2.33,1.89-3.5,2.82-5.83,4.69h-1.12c-7.52,0-11.28-1.41-11.28-4l-2.31-1.5c-5.54-8.74-6.22-20.5-7.77-30.4l.37-.72h.38v-1.45c-1.3,0-1.94-1.54-1.94-4.54.14-.93.22-1.39.37-2.32l-.75-1.46.75-2.31q-1.58,0-1.57-6.86l-.37.87h-.38c-.29-1.86-.44-2.8-.74-4.66.3-.57.45-.86.74-1.44-.84,0-1.37-1.52-1.56-4.52h-.38c.15-2.14.23-3.22.38-5.36v-1.45c-1.4,0-1.47-4.92-2.69-11.35-1.93-10.17-4.63-23.72-6.2-35.5q-1.48-3.75-2.38-12h-.38v18.78c-.3.92-.44,1.38-.74,2.31.3,2.08.44,3.12.74,5.2-.3,2.71-.44,4.07-.74,6.78.3,1.79.44,2.69.74,4.48v2.31c-.15,5.72-.22,8.58-.37,14.3l.37.73v.72l-.37.71v.73c.15,4.21.22,6.32.37,10.55v3.75c0,1.06-.37,1.58-1.12,1.56.45,1.23.68,1.84,1.12,3.06-.15,1.15-.22,1.73-.37,2.88.15,3,.22,4.51.37,7.52-.15,1.85-.22,2.77-.37,4.61q0,12.42,5.82,19.59h.37v-1.45l1.2,0c.84,0,1.74-.72,2.69-2.23h.37c.33.64.49,1,.82,1.62-3,5.9-5.57,8.79-7.76,8.7q-3,4.35-6.2,4.18-2.68-.13-5.44-4c-1.55,1.12-2.33,1.68-3.88,2.78l-1.56-.1c-.55,0-.82-.82-.82-2.34l-.38,0-1.11,1.5c-.9-1.78-2.84-3.38-5.82-4.83l-5.06-8.62v-.71l.74.06,3.13,1.78,1.19.08,1.94-.73.75,1.61.37,0-.37-.74v-.86c1.4-2.88,2.1-4.32,3.5-7.23l-.82-5.19.82-3.54c-.33-3-.49-4.49-.82-7.48l.45-3.7-.45-2.31.45-.69-.45-3.74v-6l.45-3-.45-3,.45-8.14-.45-9.6v-2.29l.45-4.43-.45-3.72V644.2l.45-.71a23.58,23.58,0,0,0-4.33-14.16c-.59-1.77-.89-2.65-1.49-4.41v-2.14c3.88-6.87,5.82-12.87,5.82-17.93l-.45-8.14V585.55l.45-6.74-.45-5.28q0-6.43,3.5-9v-.72h-.37l-2.31,3-.82-1.4V556.5l.82,0c-.15-1.19-.22-1.79-.37-3,.15-.93.22-1.39.37-2.31-.6,0-1-2.9-1.19-8.81l-3.06-4.23-1.56.11q-2.24.15-4.25,3.14l-.82.06v-.71c4.62-9.14,7.33-13.78,8.12-13.84l3.5-4Q1026,521.26,1030,520.27Zm-3.5,46.4h.37l.82-1.47-.45,0C1027,565.79,1026.84,566.09,1026.54,566.67Zm1.94-6v.72c.15.91.22,1.36.37,2.28l.37,0v-2.3l-.37-.7Zm1.94-1.67v.87c.15.85.22,1.28.37,2.14l.37,0v-.72c-.15-.91-.22-1.37-.37-2.28Zm0,129.34h.37l.82-1.41-.45,0C1030.86,687.53,1030.71,687.81,1030.42,688.38Zm2.76-5.1v2.16l.74,0,1.57-2.83c-.15-.35-.23-.53-.37-.88.14-.28.22-.42.37-.71Zm18.58-14.66v1.45l1.19-.71V667.9Zm3.88-3.74h.37l1.2-.72v-1.6Zm3.51-4.48c0,1-.4,1.46-1.2,1.45l-.37.72v.73h.37l1.57-2.89Zm3.51-3.76-.38.73v.73h.38l1.12-.72v-.73Zm6.2-8.42-3.89,6.1v.73q4.26-4.93,4.26-6.83Zm-1.95-112.86a2.3,2.3,0,0,0,1.95,2.31A2.3,2.3,0,0,0,1066.91,535.36Zm5.46,6.06v1.46l2.31,1.59h.38v-.73Zm0,102.29h.37l.82-1.46h-.45C1072.81,642.83,1072.67,643.12,1072.37,643.71Zm3.88-97.79.75,1.6h.82v-1.6ZM1077,647.5l-.38.73v.87l2.32-.87v-.73Zm0-11.37v1.6l1.19-.87v-.73Zm2.39-4.52h.37l.75-1.45h-.38C1079.84,630.74,1079.69,631,1079.39,631.61Zm2.31-9c-.15.87-.22,1.31-.37,2.18v1.61h.37l.38-3.06v-.73Zm.38,6.7v.88h1.57v-.88Zm2.69-9-.75,1.46-1.2,3h.45l1.94-3.78v-.73Z" transform="translate(-763.17 -366.87)"/><path class="cls-2" d="M1110.23,519.78q2.24.09,6,7.21c1.64-4.06,3.24-6,4.77-6,10.23.61,15.21,11.19,16.55,20.11-2.2-1.35-3.3-2-5.51-3.35-3.68.34-5.52,2.26-5.52,5.71.15,7.94.23,11.91.38,19.85V568c-.15,2.41-.23,3.61-.38,6,.15,2.42.23,3.63.38,6-.15,2.13-.23,3.19-.38,5.31.15,2.76.23,4.15.38,6.91v17.53c2.53,6.13,3.8,9.18,6.33,15.26v1.57c-1.84,5.06-3.3,7.6-4.4,7.6l.45.71v.72a23.44,23.44,0,0,0-2.76,10.65c.15,5.8.23,8.7.38,14.51v12.93l-.83,0v6.9l.45,4.59-.45.73v.72c.33,3.67.5,5.5.83,9.17-.15,7-.23,10.44-.38,17.41.15.91.23,1.37.38,2.28-.15,1.21-.23,1.82-.38,3,2.74,6,4.58,8.93,5.52,8.87q2.31-.15,5.14-4.19l.37,0q0,8.57-8.72,14.32l-.37-.84-.37,0c-2.29,3.79-4.13,5.72-5.52,5.81-2.74.16-5-1.79-6.72-5.85,0,2.21-3.16,4.5-6.71,4.2-5.33-.45-11-5.74-13.52-11.22l-1.94-4.62.38-.73c1.91,1.83,2.86,2.74,4.78,4.56q6.35-3.79,6.34-11.79l-.45-.71v-4.65l.83-2.34c-.33-2.43-.5-3.64-.83-6.07l.45-.74-.45-9.13v-1.6c0-10.78,0-21.63.83-32.38-.33-1.79-.5-2.69-.83-4.49l.45-4.65-.45-7.69v-2.32c-2.36-5.85-3.53-8.79-5.89-14.67,4.23-10.07,6.34-16.72,6.34-20,.15-5.52.23-8.27.38-13.79-.33-2.79-.5-4.18-.83-7V582.7l1.2-20.87c-.9,0-1.42-4.87-1.57-14.56.15-.92.22-1.38.37-2.31q0-6.83-5.89-9.45h-.38q-2.46-.06-4.4,3.84v-1.6c2.49-8.31,6.84-14.37,13.06-18.1Zm-3.14,21.33c0,1.07.4,1.61,1.2,1.64h.37V542Zm0,101.53v.72h.82l1.2-3.05v-.73c-.66,1.22-1,1.83-1.64,3Zm2-4.65v.73h.74l1.2-3v-.73c-.4,0-.8,1-1.2,3Zm2.76,6.07v.87h1.57v-1.59Zm.75-15.34c-.15.93-.23,1.39-.38,2.31h.82v-2.31Zm2-6.07-.82,3v1.59h.37c.33-1.56.5-2.34.82-3.9v-.72Zm-.45-82.74v.73L1117,540v-.87l-1.64-.07Zm2,164v.72l1.57.67c0-1-.4-1.43-1.2-1.4Zm.82-5.37v1.44l1.12,0v-.72Zm.75-85.08c-.15.92-.23,1.38-.38,2.31h.75v-2.31Zm0-74.95c.32.65.49,1,.82,1.63l.37,0v-1.59Zm.82,71.92-.45,2.31h.82c.15-.92.22-1.39.37-2.31Zm.74,90.34v.72l1.64.66h.38v-.72l-1.57-.67Zm.45-94.07v.72l.75-1.58v-.72Zm.37-69.52v1.44l1.57-.64v-.72Zm0,95.48v.72l1.2-2.3H1121Zm0,74.86v1.44l1.57.81Zm1.57-107.72c-.15.92-.22,1.38-.37,2.3v.72h.37c.33-1.21.49-1.81.82-3Zm.82-4.59v1.58l1.19-.7v-1.58Zm0,107.61v1.58l1.94-.07.37.7.45,0v-1.44l-2,.08-.38-.85Z" transform="translate(-763.17 -366.87)"/><path class="cls-2" d="M1165.28,524.18c4.11.48,8.34,6.73,12.69,18.47.15.89.23,1.34.37,2.23l-.37,0a11.29,11.29,0,0,0-5.56-2.81q-2.67-.28-3.19,9.23c.14,1.78.22,2.68.37,4.46l-.75,1.46c.63,1.55.94,2.33,1.56,3.87v7.33q2,8,3.57,26.86c-.15.27-.23.41-.37.68.44,0,1.23,5.71,2.37,17l-.37.68v.69c.77,7.11,1.16,10.66,1.93,17.74v1.37l-.37.82c1.1,7.9,1.64,11.84,2.74,19.68l.82,0c.71-14.34,2.94-28.67,4.74-42.9q.74-13.41,2-15.1v-.81l-.37-.69c.3-1.72.45-2.58.74-4.29l-.37-.84v-.67a11.4,11.4,0,0,1,1.19-4.93v-.81c-.15-1.15-.23-1.72-.37-2.87.49-3.83,1-5.73,1.55-5.68-.15-1.42-.22-2.12-.37-3.54q0-4.46,1.56-4.3c-.33-.9-.49-1.35-.82-2.24v-2.83c.33-1.1.49-1.65.82-2.74-.15-.34-.23-.51-.37-.85.14-1.39.22-2.08.37-3.46v-5.79l.81.1V548l-2.37-3.26-.44-.05c-.77.77-1.16,1.15-1.93,1.93l-.44-.06v-.68c3.6-9.23,7.3-13.44,11.1-12.84l1.55.24c.89.14,1.82,1,2.81,2.57a1.85,1.85,0,0,1,2.36-1.73l.74.12c4,.66,6,2.4,6,5.18l1.18-.45v.65c.29.88.44,1.32.74,2.2l1.18-.45c1.26,3.79,1.9,5.67,3.17,9.42-.15.29-.23.43-.37.72l-.44-.07c-.94-1.51-1.85-2.35-2.73-2.48l-.81-.13c-10.64,7-9.8,34.47-11,45-.47,3.67-.71,5.51-1.18,9.2.14.86.22,1.29.37,2.14-.33,3.65-.49,5.47-.82,9.12l.45,2.14-.45.65c2.66,5.81,4,9.8,4,12.09-.74,0-1.7,3.87-4,7.15-1.41,2-4.06,7.63-5.1,16.49a10.13,10.13,0,0,1-1.18,4.32c.29.53.44.79.74,1.31a15.11,15.11,0,0,1-1.56,6.51c.15,1.17.23,1.76.37,2.93-1.24,7.79-1.86,11.71-3.1,19.57.14,1.12.22,1.68.37,2.79-.63,3.83-.94,5.74-1.56,9.58l-2,.2v.68q2.37-.24,2.37,1.92c-.32.9-.49,1.35-.81,2.25.17,1.38.26,2.07.44,3.46-.18.34-.27.51-.44.86l-.37,0c0,7.83,1.58,12.19,4.73,13,.79-.11,1.19.33,1.19,1.31,2.07-1.74,3.1-2.61,5.17-4.33V720a25.71,25.71,0,0,1-5.17,10.64,24.38,24.38,0,0,1-8.66,5.74c-2.08-.62-3.12-.94-5.19-1.59-.15.35-.22.53-.37.87l-.45.06-1.93-1.93-3.56,3.35-2.82-1.16-1.19,1c-5.34-2.11-8.64-4.52-9.88-7.1l-1.19.82-3.64-6.39v-.7l.45,0c1.57.76,2.36,1.13,3.94,1.88,3.37-.33,5.5-3.52,6.39-9.53v-1.53c-1-8.48-1.43-12.73-2.38-21.25l.37,0c-.62-3.25-.93-4.87-1.56-8.13v-.7l.37-.85v-.7q-1.18.06-1.56-8.86l1.19,0v-.7q-2,.09-3.19-16.38c.14-1.18.22-1.77.37-2.95l-.75-3.76c.15-1.52.23-2.27.38-3.79-1.34,0-2-1.46-2-4.46-2.23-4.46-3.35-6.71-5.58-11.22a3,3,0,0,1-1.56-2.27v-1.55c2.92-8.83,4.39-15,4.39-18.68.14-.34.22-.51.37-.84-1.14,0-2.33-7.31-3.57-21.95l.37-.68v-.71c-.5,0-.89-3-1.19-9.09-1.59-9.3-2.38-15.16-2.38-17.52.32-.6.49-.9.82-1.5v-1.55c-.8-.06-1.2-.55-1.2-1.5l.38-.82c-1-2.44-1.43-3.67-2.39-6.12-.29-1.83-.44-2.75-.74-4.59a1.54,1.54,0,0,1-1.64-1.68q-4.54.66-5.59,2.6l-.37,0v-.71c3.63-9.46,6.68-14,9.16-13.8,1.43-1.35,2.15-2,3.58-3.35,2.23.21,4.76,2.73,7.58,7.5C1162.16,526.53,1164.54,524.09,1165.28,524.18Zm-15.54,16.43v.84l1.63.14.38-.82v-.71l-.38,0Zm7.14,60.68v.7l.82,0v-2.25Zm2-56.12c.32.65.49,1,.82,1.61l.37,0-.75-1.61Zm0,53.1v.84l1.19.74c0-1,.39-1.53,1.19-1.5v-.7h-.38Zm4.75-48.91c0,.93.4,1.43,1.19,1.5l.45,0v-.7Zm.82,40.89v1.53a2.11,2.11,0,0,0,2.38-2.12l-.37,0-.45.68-.37,0v-.7Zm1.56,85.58v.7l1.64.75.37,0v-.83l-1.19-.64Zm.45-123.3v.7l1.19.94.37,0v-.83l-1.19-.8Zm.74,35.62v1.53l1.19-.64v-1.53Zm1.63-1.31v.7l1.19.06v-1.53C1169.56,586.38,1169.32,586.54,1168.84,586.84Zm16.62,102.46V690c1.42.76,2.13,1.13,3.56,1.87l.44,0v-.67l-3.18-1.9ZM1191,574.39v.81c.32-.57.48-.85.81-1.41v-.68C1191.5,573.62,1191.34,573.88,1191,574.39Zm1.18-3.4v1.35c1-1.31,1.42-2,2.37-3.27l-.37,0Zm3.18-2.65v.81l.37,0c.33-1.14.49-1.71.81-2.86v-.66C1195.87,565.59,1195.48,566.48,1195.38,568.34Zm1.18,3.06v.67l1.19.11v-1.47Zm3.18-9c-.32.55-.48.83-.81,1.38v.66l.81.09c.3-.82.45-1.23.74-2Zm1.19-.53.37,0,.81-1.36-.44,0C1201.37,561.05,1201.22,561.32,1200.93,561.87Zm1.55,5.07.37.7,1.62-.48v-1.45l-1.18-.13Z" transform="translate(-763.17 -366.87)"/><path class="cls-2" d="M1272.14,545.71l1.09.29c2.62.7,5.45,5.45,8.5,13.89.34,1.7.52,2.55.87,4.24l-.51-.12c-1.31-3.42-3.22-5.47-5.73-6.07-1.31-.31-2.35.63-3.13,2.85.64,5.39,1,8.07,1.6,13.4-.48-.08-.72.47-.72,1.66l-.37-.74-.51-.09v3l.51.08c.15-.91.22-1.37.37-2.28l.72.13c1,12.33-.64,32.9,6.53,44l.73,3.51c.87,0,2.44,1.78,4.71,5.16v.65a52.62,52.62,0,0,0-4.71,10.41q3.45,29.76,7,59.5c.77,2.78,1.91,4,3.4,3.57l1.15-.31c1.45-.39,3-2.26,4.62-5.56l.36.42c-4.42,9.82-8.63,15.64-12.64,16.81-1.85-1.06-2.78-1.6-4.64-2.71l-.72.19c-3.09,3.9-5.27,6.07-6.53,6.42l-1.6.43c-3.59,1-6.91-2.17-10-9.75l.36-.08c2.82,1.46,5.13,2,6.55,1.59s2.33-2.37,2.33-5.29c-.44-3.73-.65-5.6-1.09-9.36.87-1.12,1.31-1.67,2.18-2.78l-.36.07-1.82,1.58c-.2-.23-.31-.34-.51-.58v-7.12c-1.26.21-2.16-5.66-2.69-17.69-.15-.21-.22-.31-.36-.53v-.57l-3.87.42-4.22-.15-1.17.71c-2.19-.57-3.29-.87-5.48-1.47,0,1-1,1.81-3.07,2.33-1.1,10.63-2.3,21.29-4.25,31.8-.14,3.86-.22,5.79-.36,9.65q.74,3.74,3.07,3.25c1.22-.26,2.51-1.42,3.88-3.45v1.43c-1.07,4.12-3.63,8.48-7.68,13.13l-1.62.37c-2.15.49-4.35-.93-6.59-4.36l-.37.08c-2.3,3.94-4.38,6.14-6.24,6.52l-1.62.33c-6.23-1.42-9.35-5.27-9.35-11.27,1.72,1.6,3.41,2.24,5.08,2,2.9-.51,5-4.91,6.25-13.07l.37-.06-.37-.69v-2c1.41-6.8,2.12-10.17,3.53-16.88l-.44-.57v-1.5c.62-4.56.92-6.83,1.54-11.37l-.37-.59c1.38-8.54,2.07-12.78,3.45-21.19l-.36-.72v-.62q.66-1.39,1.24-9.18a50.43,50.43,0,0,0-4.69-11.86c.44-2,2.37-5.31,5.79-9.8,1.12-2.57,1.67-3.85,2.79-6.39,0-3.82,1.27-6.57,3.81-8.17v-.61l-1.1-.68c-.2,2.17-.61,3.24-1.25,3.2l-.36,0v-1.46c2-12.32,4.43-24.72,5.05-37.21l.8-4.91q0-9-4.24-9.83c-1.41.75-2.11,1.13-3.52,1.9v-.61c3.08-8,5.94-11.56,8.57-11,0-1,.63-1.3,1.9-1V543c.15-.25.22-.37.36-.63l.88.21V544l.73.16v-1.42c3.26.77,6.6,4.31,10,10.39C1266.88,547.45,1269.72,545.06,1272.14,545.71ZM1235.4,682.22l-.37.66v.62l.37,0,1.1-.75v-.62Zm2.27-.88V682l.44-.05,1.47-.78v-.74l-.73.08Zm2.72-1.67V681l1.17-.87v-.61Zm7.39-77.56V604l1.54-1.81v-.6Zm3.51-48.42v.6l.37.07c.64-.87,1-1.31,1.61-2.17l-.37-.07C1251.83,552.6,1251.29,553.13,1251.29,553.69Zm0,45.58v1.2c2.64-2.32,4-3.45,6.58-5.67v-.59l-.81-.08C1254.76,596.15,1253.6,597.18,1251.29,599.27Zm8.55-4.86c-.59,7.33-1.51,11-2.78,10.88l.37.61-1.1,9.35c.15.76.22,1.14.37,1.9-1.31,4.88-2.87,13.81-4.68,27-.14.29-.21.44-.36.73.83,0,1.24.59,1.24,1.86l.37.57h.36l1.46-.65c3.13.34,4.69.51,7.81.83,0-.77.78-1.19,2.33-1.25-.93-10.71-1.4-16.1-2.33-27,.15-.73.22-1.1.36-1.83-2-10.25-3.06-18-3.06-23Zm-5.48-46.48v.82l.37.09c.49-.23.74-.34,1.24-.55v-.59l-.51-.12Zm5.48,43.34-.8,2.48.8.08c.14-.78.22-1.16.36-1.94v-.58Zm.73,1.48.36,0a3.77,3.77,0,0,0,2-2.33v-.58C1261.34,590.93,1260.57,591.89,1260.57,592.75Zm3.42,1,1.24,1.86,2.26-.33v1.14l1.24.13c0-1.13-.66-1.78-2-1.92V594l-.44.52-.36,0Zm1.61-5.33.36,0,1.53-1.06v-1.25l-.36-.05C1266.51,587,1266.21,587.44,1265.6,588.37Zm2.69-3.86v1.14c1.16-.37,2.69-1.94,4.58-4.63l-.36-.06c-1.07.28-2.21,1.49-3.42,3.66Zm1.16,12.07,1.24,2c.15-.21.22-.31.36-.53v-.79Zm2.69,2.76,1.09,1.91v-.68l-.72-1.19Zm1.6,91.46c-.2.75-.3,1.13-.51,1.89l.88-.17v-1.79Zm.37-88.91v.56l1.52.81a1.18,1.18,0,0,0-1.16-1.34Zm.72,88.15v.55l.8-.15v-1.66Zm.8,5.74,1.16,1.53v-.66c-.32-.38-.48-.56-.79-.94Zm1.16,2.09v.66l1.53.77v-1.76Zm1.53-9.59.36-.07,2.68-1.7v-1.2Q1278.32,686.84,1278.32,688.28Zm.72,11.41c.5,1.08.74,1.61,1.24,2.68l.72-.17v-1.86l-1.52-.75Zm.44-15.69v1.1l1.16-.76v-1.09Zm6.52,21v.53c.68,1.76,1.71,2.44,3.11,2.06C1287.87,706.54,1287.25,706,1286,705Z" transform="translate(-763.17 -366.87)"/><path class="cls-2" d="M1326.19,561.68c5.53,2,10.08,7.81,13.67,16.77l-.35-.11a10,10,0,0,0-4.48-3.61l-.71-.23c-2.8-.87-4.42.49-4.84,4.11.17,1.51.25,2.27.42,3.77-.17,3.86-.25,5.8-.42,9.68l-.72.75.36.52v.45l-.71.84.71,1.48c-.14.9-.21,1.35-.36,2.25l.72,1.11-.72.77c.29,1.37.43,2,.72,3.41l-.72,2.22.72,1v.89c-.15.73-.22,1.1-.36,1.83.14.77.21,1.15.36,1.91v.45l-.72,1.36v.44c.89,3.23,1.33,4.83,2.21,8,.86,0,2.33,1.85,4.42,5.23-4.17,5.82-6.27,9.81-6.27,11.36-.14,1.14-.21,1.72-.36,2.87.29,1.45.43,2.18.72,3.62-.15,2.61-.22,3.92-.36,6.54.14,2,.21,3,.36,5l-.72,1.07v.45l.72,1.24c-.15,1.16-.22,1.74-.36,2.9.14,2.37.21,3.56.36,5.92v1l-.72,1.48.72.83-.36.52v.45l.78.72v4.18c0,6.16,2.34,8.58,7,7.2,4.27-1.26,7.95-7.23,11.06-17.06.15-1.89.22-2.83.36-4.72-.28-.93-.43-1.4-.71-2.35v-.4l1.84-.33v-.79l-.35.46-.43.08-1.41-.64.35-2.55-.35-7.43c.14-1.73.49-2.62,1.06-2.67l1.84-.17.77.8.36-.43,3.67,0c2.34-.57,3.51-.85,5.85-1.39l.35.4-.35,7.67v1.91l-.78.87a36.76,36.76,0,0,1,1.13,9.33c-1.13,5.84-2.58,10-4.37,12.38-2.72,5.86-5,9.34-7,10,0,1.32-2,3-5.87,5.12l-1.14-.08c0,1.76-3.53,4-10.66,6.6-3.41,1.23-7.74,1-13-1.35l-.79,1.28-.36-.45-.36.11-2.57,1.86c-4.83,1.51-10.32.37-16.47-4.15l-.36-.42v-1l.36-.09c2.4,0,3.59,0,6,0a9.1,9.1,0,0,0,4.1-7.68c0-1.37.26-2.12.79-2.24-.15-1-.22-1.48-.36-2.47l.72-1.63-.72-1.41v-2.07c.14-1,.21-1.57.36-2.61l-.36-.43-.43.08c.17-2.08.26-3.11.43-5.18v-8.64c.14-.21.21-.32.36-.53-.15-.61-.22-.92-.36-1.53-.17-3.67-.26-5.51-.43-9.19.17-1.24.26-1.85.43-3.08l-.43-2.53c.17-1.62.26-2.43.43-4.05,0-3.2-1.87-7.21-5.61-12.37a47.21,47.21,0,0,0,6.33-13.09,24.42,24.42,0,0,1-1.15-7.27c.31-2.2.47-3.31.79-5.5-.32-2.51-.48-3.77-.79-6.3.31-2.58.47-3.87.79-6.44-.15-.85-.22-1.27-.36-2.13V586l.36-.42V585l-.79-1.15v-6.09c-.77-7.39-2.49-11.51-5.18-12.24l-.79-.22c-1.11-.3-2.48.41-4.11,2.18-.14-.28-.21-.42-.36-.7,1.06-3.77,2.93-6.42,5.62-7.89l.36.11,1.51,1.45.36.11V560l-1.51-.95c2.21-2.14,5-2.62,8.26-1.52,2.34.77,4.57,3,6.67,6.64C1321.67,561.66,1323.91,560.87,1326.19,561.68ZM1309.08,563l.72,1.19.36.1-.72-1.19Zm2.94,2.33v1.06l1.15.82v-1Zm0,43.41v.48l.79-1v-.49C1312.5,608.16,1312.34,608.35,1312,608.75Zm1.15,1.08.36,0,.72-.89-.36,0Zm1.51-4.83c-.32.57-.48.86-.79,1.44l.79.09c.14-.6.21-.9.36-1.49Zm-.43,78.71.43-.11.71-1.12-.35.08Zm1.5-114.79v.57l1.15.81v-1Zm.36,112.82-.36.66v.47l.36-.08,1.15-.75v-.56Zm1.86-.81c-.14.19-.21.28-.36.46V682l1.15-.27Zm0-110.33v.47l1.51.43V571Zm.36,29.95V601l1.15-1.24-.36-.06Zm1.5,3.58v.56l1.15-1.34-.36-.05Zm.36,75.26v.47l.79-.19,1.07-.71v-.46l-.71.16Zm1.15-80.81V599c.28-.33.43-.49.71-.81v-.46C1321.77,598.09,1321.62,598.25,1321.34,598.58Zm1.5,78.82v.46l.35-.08a15.48,15.48,0,0,0,5.22-4l-.36.08C1325.48,676,1323.74,677.2,1322.84,677.4Zm2.57-82.9.36.07.78-.76-.36-.06Zm16.65,88.27.71.61.36-.11-.71-.61Zm2.56.44.78.65.35-.11-.78-.65Zm4.46,1.13v.4l2.54-.48v-.78Zm3.25-35.13v.86l1.13-.6v-.39Zm2.61,4.52v.76c2.4-1.34,3.73-2.42,4-3.31l-.36.05A6.72,6.72,0,0,1,1354.94,653.73Zm4.37-5v.44l.7-.9v-.37Z" transform="translate(-763.17 -366.87)"/></g></svg>