<svg xmlns="http://www.w3.org/2000/svg" width="1869.062" height="1742.94" viewBox="0 0 1869.062 1742.94">
  <metadata><?xpacket begin="﻿" id="W5M0MpCehiHzreSzNTczkc9d"?>
<x:xmpmeta xmlns:x="adobe:ns:meta/" x:xmptk="Adobe XMP Core 5.6-c142 79.160924, 2017/07/13-01:06:39        ">
   <rdf:RDF xmlns:rdf="http://www.w3.org/1999/02/22-rdf-syntax-ns#">
      <rdf:Description rdf:about=""/>
   </rdf:RDF>
</x:xmpmeta>
                                                                                                    
                                                                                                    
                                                                                                    
                                                                                                    
                                                                                                    
                                                                                                    
                                                                                                    
                                                                                                    
                                                                                                    
                                                                                                    
                                                                                                    
                                                                                                    
                                                                                                    
                                                                                                    
                                                                                                    
                                                                                                    
                                                                                                    
                                                                                                    
                                                                                                    
                                                                                                    
                           
<?xpacket end="w"?></metadata>
<defs>
    <style>
      .cls-1 {
        fill: #f6c120;
        fill-rule: evenodd;
      }
    </style>
  </defs>
  <path class="cls-1" d="M2101.34,1700.5c-83.38-55.23-104.13-162.26-46.36-239.04,46.66-62.02,130.27-85.32,204.63-62.9a818.141,818.141,0,0,0-1.34-114.09,194.7,194.7,0,0,1-70.11,6.13c-101.09-9.44-176.28-93.39-167.93-187.51,6.64-74.87,64.16-133.579,138.3-149.718a884.258,884.258,0,0,0-61.61-97.312,179.253,179.253,0,0,1-54.15,35.451c-91.72,38.884-201.19.5-244.51-85.725-33.87-67.407-17.28-144.1,35.39-192.941a970.709,970.709,0,0,0-103.05-55.533,162.6,162.6,0,0,1-26.49,52.862c-57.77,76.788-172.19,94.261-255.56,39.024-64.14-42.487-91.17-115.608-73.96-182.048a1007.533,1007.533,0,0,0-116.52-.871,160.345,160.345,0,0,1,4.87,55.692c-8.34,94.116-97.05,162.759-198.14,153.32-77.136-7.2-139.139-57.8-160.514-123.174a935.3,935.3,0,0,0-99.755,53.056,175.136,175.136,0,0,1,32.933,45.366c43.321,86.226,4.09,187.646-87.629,226.529-70.033,29.69-150.381,14.293-203.763-33.012a835.838,835.838,0,0,0-57.778,92.8,192.971,192.971,0,0,1,53.4,24.567c83.377,55.236,104.135,162.256,46.366,239.036-44.488,59.14-122.57,83.05-194.2,65.71a817.905,817.905,0,0,0-.17,109.05,195.238,195.238,0,0,1,61.184-3.89c101.092,9.44,176.28,93.38,167.939,187.5-6.53,73.68-62.325,131.74-134.75,148.95a879.828,879.828,0,0,0,59.211,96.96,179.486,179.486,0,0,1,53-34.33c91.72-38.88,201.188-.5,244.51,85.73,34.526,68.71,16.577,147.05-38.543,195.72a967.371,967.371,0,0,0,104.7,58.45,162.141,162.141,0,0,1,27.989-58.56c57.769-76.79,172.187-94.26,255.567-39.03,67.4,44.65,93.85,123.14,71.01,192.15a1009.728,1009.728,0,0,0,122.89,2.1,160.919,160.919,0,0,1-8.3-67.02c8.34-94.12,97.06-162.76,198.15-153.32,82.47,7.7,147.69,65.01,164.39,136.96a935.04,935.04,0,0,0,107-56.58,176.337,176.337,0,0,1-44.06-55.62c-43.33-86.23-4.09-187.65,87.63-226.54,74.81-31.71,161.42-12.01,214.32,43.12a834.824,834.824,0,0,0,61.03-99.43A193.609,193.609,0,0,1,2101.34,1700.5Zm-787.76-218.67c-86.23-8.05-150.36-79.66-143.24-159.93s82.78-138.82,169-130.77,150.36,79.65,143.24,159.92S1399.8,1489.88,1313.58,1481.83Z" transform="translate(-391.938 -465)"/>
</svg>
