<svg xmlns="http://www.w3.org/2000/svg" viewBox="0 0 270.65 169.34"><defs><style>.cls-1{fill:#fff;}</style></defs><title>Asset 2</title><g id="Layer_2" data-name="Layer 2"><g id="Layer_2-2" data-name="Layer 2"><path class="cls-1" d="M58.74,0l.14.58-.1.54,1.35-.3c.82.9,1.66,3.13,2.56,6.65a10.8,10.8,0,0,1,3.24-3.91l.53.1.12.68.24,0c.34-1.83,1.25-2.6,2.72-2.32,3.49,4.66,4.92,8.87,4.28,12.81l-.48-.08-.08.52c1.28.42,1.74,1.77,1.39,4l-1-.15L72,18.43l-.32.48-.16-.56.08-.52L70.12,19.2,70,18.64l-.24,0c-2.24,3.66-4.17,10.9-5.26,21.7,0,.9,0,1.35,0,2.25l-.24,0,.19.55,0,.53c-.17,2.85-.24,4.27-.36,7.12-.33,3-.48,4.5-.76,7.51l-.06,1.06-.27.52.21.54c-.16,1.1-.24,1.65-.39,2.75l0,.53c-.09,2,.91,6.77,3.27,14.18,0,.42,0,.63,0,1.05h-.24l.24.53c0,.42,0,.63,0,1.05A61.88,61.88,0,0,0,62.31,91.9l.52,1.58c-.07,1.28-.1,1.91-.17,3.19.16,2.21.25,3.31.43,5.51,0,2.59,0,3.89.07,6.48.19,1.73.3,2.6.51,4.33-.11,1.28-.16,1.93-.27,3.21l0,.53c.29,1.3.44,2,.74,3.25l-.2.55,0,.53c.21,1.31.31,2,.53,3.26l0,.53c-.19,1.13-.28,1.69-.46,2.82.32,1.25.48,1.88.81,3.13l.11,1.06c.21,5.83.11,8.78-.47,8.86l.36.49c.32,2.47-.19,6.9-1.35,13.41l-.48.08a5.87,5.87,0,0,1-1.25,4.7c.32,1.85-.09,2.88-1.25,3.08l-.24,0-.35-.6-.24,0c.42,2.36-.24,3.81-2,4.36l-.34-.49q.24,1.29-1.43,1.94l-.34-.5-.24,0-1.74,1.56-.12-.65L53,169l-.84-.52-.88.85c-4.79-1.14-7.45-3.23-8-6.2l-.63.68a47.77,47.77,0,0,1-4.9-8.51c-1.45.22-4.44-5.76-8.23-18.3a31.28,31.28,0,0,1-1.17-6.48c-.13-1.38-.2-2.06-.32-3.44-.14-4.76.12-7.17.68-7.21l.1,1.26.24,0,0-.57c-.17-1-.26-1.43-.42-2.39a10.45,10.45,0,0,0,1.81-6,10.06,10.06,0,0,1,3.8-3.74c4,4,6.31,10.73,7.23,20.24.31,3.2.2,6.88.38,10.33.23,4.46,1.94,8,4,9.86l2.22,1.37,1.26-.18c2.19-.32,2.71-6.27,2.23-17.83l-.3-.52c-.09-.87-.14-1.31-.22-2.18s0-1.39,0-2.32c-.18-.86-.27-1.3-.45-2.16l.53,0-.1-1.09c-.43-2.47-.64-3.7-1-6.18a25.55,25.55,0,0,1,.12-6.16c-.2-1.3-.29-2-.48-3.26.07-.92.1-1.39.18-2.31-.16-.87-.24-1.3-.39-2.17,0-2.24,0-3.35.09-5.59-.31-3.14-.45-4.72-.71-7.87h.24c-1.08-5.46-2-8.25-2.77-8.33,0-.22,0-.33,0-.55l.25-.66c0-.22,0-.33,0-.55-1,0-1.46-1.12-1.42-3.33,2.57-5.63,4-9.28,4-11.11,0-.7,0-1.05.08-1.75.35-6.35.77-9.5,1.06-9.48L50,54l0-.55c.18-.87.27-1.3.45-2.16l-.45-1.13c.07-.92.11-1.38.18-2.29s.25-1.3.43-2.16c0-.93,0-1.39,0-2.31.1-1.09.15-1.64.26-2.73l.3-.52L51,39.61c.09-.92.14-1.37.23-2.29.21-1.08.32-1.62.54-2.7.05-1.36.08-2,.14-3.41.21-1.79.32-2.68.55-4.47l.75-1.56c-.36,0-.34-1.56.08-4.53-.26,0-.4-1.39-.39-4.06l-.56-1.2L51,15.75l-.72-.11-.16-.58-.33.51-2.46-.38-.21-.6-.24,0A47.89,47.89,0,0,1,52,3.9l.24,0,.14.59.24,0,.2-1.09,2.73-2.42ZM31.52,117.39l.08,1.14,1-.07,0-.57ZM35,120.67l0,.56.78.51-.09-1.13Zm2.13,1.53.09,1.12,1.26.46.29,0,0-.56Zm14.55,8.37.06.54,1.27.42.24,0-.06-.54-1.27-.42ZM56.24,6.9,56,8.09l.63.66.2-1.19ZM50.81,54.1l0,.55.41,1.23.24,0Zm3.57,78.38.06.54.79.46.24,0-.06-.54-.79-.46ZM58.43,11.82l-.17,1.08,1,.16.09-.54ZM53.65,60.49c0,.72.19,1.1.67,1.12h.29l0-.54Zm1.14,60.81,0,.54,1-.09.2-.56,0-.54-.24,0ZM59.36,13.73l-.09.54.93.7.24,0,.08-.54-.88-.69ZM57,133.29q.13,1.19.86,1.1l.49-.05-.06-.54ZM55.49,63.84c.81,2.27,1.52,3.41,2.1,3.43-.75-1.36-1.12-2-1.86-3.42ZM60.69,15l.72,1.75.08-.53-.32-1.14ZM59,134.26l.12,1.07,1.57.36-.12-1.07Zm.77-2.36a3.85,3.85,0,0,0,1.76,2.62l-.12-1.07C61,133.49,60.49,133,59.82,131.9ZM62.41,18.58l-.08.53,1,1.35.29,0,.08-.53-1.08-1.36ZM61.22,135.64l.06.53,2.11.83.24,0-.06-.53-2.11-.83ZM66.79,14.92l-.08.53,1,.15.08-.53Zm-4.91,59v.53l1,.55q0-1.06-.71-1.08Zm6.21-59.45-.1.63,1,.15.1-.63Z" transform="translate(-28)"/><path class="cls-1" d="M85.74,5.46c1.53,1.2,2.71,3.36,3.58,6.47,2-3.15,3.55-4.61,4.58-4.41l.24,0c1.83,1.37,3,3.65,3.52,6.84l-.65.9.48.08L98.3,15c.64,2.73,1,4.09,1.66,6.79l-.08.49L98.05,21,96.6,20.8c-.74-.12-2,3.09-3.42,9.67l.23.53c-.63,3.18-.93,4.77-1.5,8-.11,1.84-.15,2.75-.24,4.59-.48,2.8-.7,4.2-1.13,7l.41,1c-.18,1-.26,1.48-.43,2.47,0,1.2,0,1.8,0,3l0,.5-.73,0L90.17,59c-.17,1.23-.26,1.84-.42,3.07a26.81,26.81,0,0,0,4.14,15.63c-1.19,3.27-2,5.12-2.49,5.52l-.24-.5c0,1.66-.33,2.48-1,2.48l.25.5c0,.2,0,.3,0,.5-.5,2.23-.74,3.35-1.21,5.59l.52,1.49c0,.4,0,.6,0,1-.08.8-.12,1.2-.19,2,.12.79.18,1.19.31,2s0,1.25.08,2.09l-.67,1.52c.32,3,.65,4.46.95,4.45,0,1.24,0,1.86-.07,3.1.34,4,.54,6,1,10L90.79,121c.35,1.77.54,2.66.91,4.42l.1,1-.19.52c2.21,10.27,4.85,15.14,7.33,14.79l1.93-.28c3.54-.51,5-5.16,4.74-13.93-.31-1.75-.46-2.63-.75-4.39-.11-1.15-.17-1.73-.27-2.88l.41-1.49-.62-.91-.08-1,.41-1.58-.35-1.42.21-.5-.6-.92c0-3.71,0-5.56,0-9.27-.21-2.34-.3-3.51-.48-5.86h.24c-.3-2.5-.44-3.74-.69-6.25l.29-.49v-.48a29,29,0,0,0-1.55-6.84c0-.39,0-.58,0-1l-.25.48h-.24c0-1.29-.31-1.94-1-1.94-.48-1.21-.71-1.81-1.18-3,2.7-5.86,4.16-9.19,4.2-10.15s.24-1.44.4-2.39l-.22-1.46.32-.47h.24c-.16-1-.24-1.46-.4-2.44l.29,0-.26-.59c.23-1.92.36-2.88.61-4.79,0-2,0-3,.09-4.93.46-2.87.7-4.3,1.21-7.15l-.43-1,.35-.54c0-1,0-1.46,0-2.43l.05-.48.35-.45-.24-.51c.25-2.15.38-3.22.67-5.37l.66-.89c0-1,0-1.45.08-2.42.19-1.34.28-2,.48-3.35-.46-1.67-.69-2.51-1.14-4.19l-1.69-.27c-.55-.09-1.2.3-2,1.18l-.24,0,.08-.48c2.09-4.76,4.53-8,7.2-9.74l.63.61,1-1.29.48.09c.8.15,1.61,1.64,2.47,4.44,1.3-1.77,2.52-2.54,3.65-2.34l.53.1c3.5,3.66,5,7.07,4.47,10.37l.34,1-.07.46-.24,0L119.83,24c-1.24.56-2.13,2.52-2.61,5.88,0,.76,0,1.14,0,1.9-.35,1.13-.53,1.69-.87,2.83,0,1.15.08,1.72.13,2.86-.76,6.23-1.08,9.36-1.58,15.61-.19,1.12-.28,1.67-.46,2.79,0,1.13,0,1.7,0,2.83-.17,1.16-.26,1.73-.43,2.89,0,1.32,0,2,.06,3.29l-.31,1.39c-.07,1.56,1.15,5.28,3.84,11,0,.56,0,.84,0,1.39a44.27,44.27,0,0,0-4.46,10.45l.25.47h.24c-.17,2.25-.24,3.38-.37,5.64.22.93.33,1.4.56,2.33-.06,1-.1,1.47-.15,2.45.18,2.06.28,3.09.49,5.15l.05.94c-.13,1.17-.19,1.76-.31,2.94.25.93.38,1.39.64,2.31.06,2.29.1,3.44.2,5.73l.36,1.38-.4,1,.57.89,0,.47c.22,2.31.11,3.58-.36,3.82l-.78-.39q.11,1,1.08.93l.29.44.05.47c.41,3.8.08,9.52-1.06,16.9-1.46,9.53-5,15.16-10.76,16.23l-1.92.36-1.6-.3-.85.77c-4.51-.57-8.62-2.32-11.21-5.25-3.5-4-6-9.84-7.65-16.13l.18-.54-.06-.51c-1.15-5.08-1.69-7.63-2.69-12.75,0-1.45-.06-2.17-.08-3.61-.26-1.88-.39-2.82-.63-4.7.11-1.45.16-2.18.28-3.63-.36,0-.92-3.76-1.39-11.37.13-1.7.2-2.54.34-4.24-.23-1.23-.35-1.84-.57-3.07,0-.62,0-.93,0-1.54.08-.83.12-1.24.21-2.06,0-2.54-1.39-6.86-3.89-13.13,1.53-3.76,2.31-5.62,3.92-9.31A17.06,17.06,0,0,1,77.38,63c-.39,0-.7-.72-.92-2.11l.06-1h.24c0-1.49,0-2.23,0-3.72.44-6.58,1.52-9.8,3-9.66l0-.51-.49,0-1.06.94c-.1-1.25-.16-1.87-.25-3.13.06-.62.09-.92.15-1.54l.45-2c-.08-1.09-.12-1.63-.2-2.72l.11-1,.24,0C79.88,24.35,80.24,18.22,79,18l-2.94-.46-.88.92-.24,0,.24-1.55A21.22,21.22,0,0,1,85.74,5.46Zm-5.33,15-.15,1,1.59,1.28.48.07.08-.51ZM77.58,83.74c0,.21,0,.31,0,.51l1,1h.24a2.21,2.21,0,0,0-1-1.54Zm2.77,22.64,0,.51,2.08,1.41q0-.81-1.87-1.94ZM83,44.22l0,.51.24,0,1.26-.39,0-.51-.73-.07ZM85.7,25.37l-.07.5,1.21.17.07-.5ZM86.82,147.6l.15,1,.65-.61-.08-.5ZM85.06,42.9l-.1,1,.78-.43,0-.5Zm2.19-16.28-.07.5,1.31,1.2.24,0,.07-.5-1.31-1.2Zm.63,119.79.08.5,1.21-.18-.08-.5ZM85.06,93.93l-.23.51v.5l1,0v-.5Zm1.33,17.79,0,.5.28.49.73,0,0-.5ZM88,113.12l0,.5,1.53.89q-.07-.9-1.32-1.41Zm17.35,9,.58.91.24,0-.58-.91Zm1.85-85.85-.06.48,1.21.15.06-.48-.48-.06.06-.48Zm-.45,87.65.58.91.24,0-.58-.91Zm.45-2.94.09,1,1,.38-.09-1Zm-.62-15,0,.48.44-1,0-.48Zm2.32,19.78.05.48,1.71,1.73-.1-.95Zm-1.91-45.31.79-.47c0-.42,0-.63,0-1Zm3.36-45.68A7.79,7.79,0,0,0,113,31.65l-.24,0A4.88,4.88,0,0,0,110.3,34.76Zm-.77,87.47,0,.47,1,.38q-.09-.95-.82-.88Zm1.92,6.6a.85.85,0,0,0,1.08.83l.11.94.73-.09-.06-.47Zm-.42-6.26.09.95,1.21-.12,0-.47Zm2.39,8.42.06.47,1,.35q-.12-.94-.84-.85Zm-.55-7.18,0,.47.78.39.24,0,0-.47-.78-.4Z" transform="translate(-28)"/><path class="cls-1" d="M137,14.92l.31,1,.7-.78,1,1.65.1-.53c2.75,3.5,4.16,5.76,4.17,6.89.93.16,1.42,1.32,1.5,3.46.48.08.62.72.43,1.93,1.06.17,1.52,2.54,1.52,7.1L146.26,37l.3-.4.24,0c1.48,9.27,1.83,18.73,2.72,28.07.38,2.34.58,3.51,1,5.84l-.31.41,0,.42c.62,1.61,1.5,7.87,3.37,18.56h.24c.15-4.21.25-6.31.53-10.51-.09-.71-.13-1.06-.21-1.77s0-1.06,0-1.76l.51-.83-.44-1.78c.13-.87.19-1.31.32-2.17,0-1.41-.06-2.12-.09-3.54l.26-.41,0-.42c-.16-1.05-.24-1.58-.39-2.63l.86-1.3-.78,0c.17-2.79.27-4.18.5-7a27.17,27.17,0,0,1,1.18-6.9c-.05-1.59-.07-2.39-.11-4l.34-.38c0-.88,0-1.32,0-2.21.22-.86.34-1.28.56-2.14,0-.88,0-1.33,0-2.21l.47-1.3c.41-5.56-.2-8.49-2-8.78-.64-.11-2.07.72-4.26,2.53l-.16-.55.07-.43c2.89-4.37,5.41-6.76,7.43-7.31q.15-.83.87-.7l.69.56.08-.41,1-1.19,1,.19c1.12.21,2,1.43,2.71,3.64,1.46-1.48,2.61-2.13,3.44-2l.93.59,1.56-.13c1.37,1.62,2.05,2.42,3.44,4l-.51,1.22.36-.35.24,0c1.18,2.93,1.79,5,1.81,6.15l-.31.44-.24,0a4.32,4.32,0,0,0-3.89-3.23c-1.67-.27-3,2.25-3.7,7.59l-.24,0c0,.86,0,1.28,0,2.14-.24,1.85-.36,2.77-.57,4.62q-.1.89-.83.81c.19.88.29,1.32.49,2.19l-.86,1.14-.05.49.69.48-.08.81-.24,0c0,1.21,0,1.82,0,3-.24,2.7-.35,4-.54,6.74a18,18,0,0,1-.78,4.61l.22.42,0,.49-.27.39,0,.41c.06.69.09,1,.16,1.72l-.26.4.19,1.31c.32,0,.44,1.13.37,3.36a3.22,3.22,0,0,1,1.73,3.05c0,.32,0,.49,0,.81l.75-.79c.49,1,.73,1.52,1.22,2.52,0,.32,0,.48,0,.8-3.09,5.54-4.53,9.44-4.48,11.45l.51.8L164.34,94l.26.4h.24c-.07.85-.11,1.27-.17,2.13,0,.33,0,.49,0,.81L165,99l-.23.42,0,.41.27.48,0,.41-.22.42,0,.41.31,1.29-.22.42,0,.41.27.39,0,.49-.22.42,0,.41.27.39,0,.41-.16,1.32c.17,1,.25,1.5.43,2.5l-.42.93c0,.49.06.73.1,1.22l.6,1.26.07.81c0,.69-.05,1-.09,1.73l.41,1.68c-.09,1-.14,1.54-.23,2.57l.58.84,0,.41-.2.43.29.38.1.89-.2.43.29.38c.08.68.12,1,.21,1.7l-.38.87c.34,1.14.51,1.71.87,2.85l-.19.44a19.39,19.39,0,0,0,2.86,7.32l3-.49c.69-1.48,1-2.22,1.75-3.68l.3.36c-.51,5.36-1.75,9-3.89,10.87-1.31,1.3-2,2-3.27,3.27l-.72.14q-7.24,1.37-7.66-.86l-1.64-.56c-2.27-1.77-5-7.29-7.72-16.74l.19-.46.24,0-.11-.85c-.84.11-1.37-.72-1.58-2.49,0-.56,0-.84.09-1.39l-.58-.8.34-1.42c-.68.07-1.17-1.23-1.43-3.92l-.19.54-.24,0c-.3-1.08-.45-1.62-.74-2.7l.41-.9c-.55,0-1-.81-1.24-2.58l-.24,0c0-1.28,0-1.92,0-3.21l-.06-.86c-.91.06-1-3.24-2.15-6.64a114.49,114.49,0,0,1-4.46-21.29,26.3,26.3,0,0,1-1.41-7.33h-.24C137,77.74,137,80,137,84.62L136.52,86c.2,1.27.3,1.9.52,3.17-.17,1.66-.26,2.49-.41,4.16.22,1.09.34,1.63.57,2.72,0,.56,0,.85,0,1.41,0,3.49.06,5.24.18,8.73l.27.43,0,.44-.22.46,0,.44c.26,2.57.41,3.85.72,6.41.08.91.12,1.37.2,2.29q.09,1-.64,1l.9,1.78c0,.71,0,1.07-.07,1.78.28,1.82.43,2.73.74,4.54,0,1.13,0,1.7.09,2.84.62,5,2.46,8.77,5.4,11.15l.24,0-.13-.86.77-.12c.55-.08,1.05-.63,1.53-1.64l.24,0,.67.86c-1.39,3.83-2.75,5.91-4.16,6.15-1,2-2.15,3.15-3.53,3.39-1.15.2-2.46-.35-3.91-1.69l-2.18,2.29-1,.18c-.35.06-.61-.39-.78-1.34l-.24,0-.55,1.11a7.26,7.26,0,0,0-4.23-2.16c-1.66-1.89-2.48-2.84-4.11-4.77l-.07-.46.48-.07,2.18.7.77-.12,1.17-.73.63.92.24,0-.31-.42-.08-.54c.62-2,.94-3,1.6-5-.39-1.27-.58-1.9-1-3.17.1-.93.15-1.39.25-2.32-.44-1.85-.66-2.78-1.08-4.63,0-1,0-1.43,0-2.38l-.44-1.42.25-.48c-.21-.93-.31-1.39-.52-2.32-.14-1.52-.21-2.28-.33-3.8.05-.77.08-1.16.14-1.92L127,111c0-2.07,0-3.11,0-5.18-.26-2.42-.38-3.63-.59-6.06,0-.58,0-.87-.06-1.45.08-1.13.11-1.69.2-2.82-.15-.94-.22-1.41-.36-2.35,0-.4,0-.6,0-1l.28-.46a15.32,15.32,0,0,0-2.9-9c-.39-1.14-.58-1.7-1-2.85,0-.55,0-.82,0-1.37,2.61-4.36,4-8.07,4.16-11.28,0-2.07,0-3.11,0-5.18.17-2.83.27-4.24.49-7.07.25-1.69.38-2.54.65-4.23,0-1.35,0-2,0-3.38.27-2.71,1.24-4.5,2.88-5.35l.05-.45-.24,0-1.71,1.63-.43-1c.25-2.24.39-3.36.68-5.6l.53.07c0-.77,0-1.15,0-1.92l.44-1.41c-.39-.05-.4-2,0-5.7-.62-1.24-.93-1.86-1.54-3.11l-1-.16a3.57,3.57,0,0,0-3,1.39l-.53-.08.07-.46c3.88-5.21,6.16-7.65,6.67-7.56l2.69-1.92Q134.29,14.87,137,14.92Zm-6.59,28.4.24,0,.63-.84-.29,0Zm1.69-3.53-.05.45c0,.58,0,.88.07,1.46l.24,0,.17-1.43-.19-.48Zm1.38-.83-.07.54c0,.55,0,.82.08,1.37l.24,0,.05-.45c0-.58,0-.87-.07-1.46Zm-1.11,80.6.24,0,.45-.94-.29,0Zm1.51-3.38c0,.53.07.8.12,1.33l.49,0,.87-1.87-.29-.51.21-.46Zm11.45-10,.05.86.75-.48-.05-.86Zm2.4-2.38h.24l.76-.47,0-.94Zm2.16-2.76c0,.57-.22.86-.74.89l-.22.44,0,.43h.24l.94-1.75ZM152,98.73l-.23.43,0,.42h.24l.71-.45,0-.42Zm3.88-5c-1,1.43-1.46,2.15-2.42,3.6l0,.42c1.78-2,2.67-3.31,2.65-4ZM159,28.9q-.16,1,1,1.53C160.14,29.76,159.8,29.26,159,28.9Zm3,4-.12.82,1.36,1.13.24,0,.06-.41Zm-3.81,58.16h.24l.52-.84h-.29Zm5.95-55.24.36,1,.53.08.13-.9Zm-2.87,57.32-.23.42v.49l1.5-.54v-.41Zm-.11-6.42c0,.36,0,.54,0,.91l.78-.5c0-.16,0-.25,0-.41Zm1.55-2.55h.24l.49-.82h-.24Zm1.55-5.06L164,80.35c0,.36,0,.54,0,.9h.24c.1-.68.16-1,.26-1.71v-.41Zm.21,3.75c0,.2,0,.29,0,.49h1c0-.2,0-.29,0-.49Zm1.82-5-.5.8-.81,1.7h.29l1.3-2.09v-.41Z" transform="translate(-28)"/><path class="cls-1" d="M218.44,30.82l.24,0q-.13.69.64.83c-.63,3.88-.91,5.83-1.4,9.72a6.22,6.22,0,0,1-2.1,4l.3-.38.24,0,.23.45.24,0,.15-1.1.39.76c-.25,1.12-.38,1.67-.62,2.79-.35,3.49-.49,5.23-.74,8.73-.23,2.38-.33,3.57-.51,5.95-.14,1.89-.54,2.82-1.22,2.77L212.41,65l-1,.28-1.93-.48-2,.22c0-1.32,0-2,0-3.29.23-1.7.35-2.55.6-4.25,0-.61-.06-.91-.1-1.52l1-2c-.49-.29-.68-1.05-.54-2.28.21-1,.32-1.52.54-2.53.26-2.17-1.32-4.64-4.72-7.53l-1.4-.57c-3.35-.49-5.61.18-6.75,2l-.24,0C194.12,53,193.41,58.61,193,59.83c.39,0,.57.95.58,2.74-.31,1.63-.46,2.44-.75,4.07l.45.77-.26.36.22.39,0,.37c-.14.89-.21,1.34-.35,2.23-.13,3,.39,4.57,1.49,4.6l2-1,2.71.82c1.48-.59,2.27-2.52,2.43-5.81A6.31,6.31,0,0,0,200,65.15l0-.66.24,0c3.19,1.53,4.7,3.77,4.57,6.78l.23,1.45v.36c-.13,3.35-.67,5.77-1.7,7.29,0,1.15.31,1.73,1,1.74.26,1.93.4,2.89.69,4.81-.74,5-2.33,7.61-5,7.7l-1.26.41v-.37c1.45-2.34,2.18-4.2,2.16-5.6,0-.58-.94-1.05-2.8-1.42h-.73l-1.7.39-.25-.37v-.3c-2.11.22-3.17,1-3.14,2.2l.52,1.56c0,3.14,0,4.71,0,7.85l.26.36,0,.37c-.13,1.23-.2,1.85-.32,3.09,0,.48,0,.72.07,1.19l.49,0c.06.86.08,1.3.15,2.16-.13.94-.19,1.41-.31,2.35l.27.35,0,.37c0,1.05,0,1.58,0,2.63.25,1.66.38,2.49.64,4.15l-.24,0c.43,1.31.65,2,1.09,3.27l-.39.87.37,1.09-.2.4,0,.37.71,1.72-.39.8a8,8,0,0,1,1.43,3.58l3.7,1c2.83-.42,5.63-3.11,8.58-7.85-.1-1.57-.15-2.36-.22-3.93l-.28-.33,0-.35c-.09-1.71-.13-2.57-.2-4.29l-.28-.4,0-.36c.12-.87.17-1.31.3-2.17-.29-1.12-.44-1.68-.72-2.8l.43-.75-.57-1.1-.07-1,.22-.37,0-.36,2.73.53.73-.75,2.51.19,1.46-.1.27.33.24,0c-.14.84-.21,1.27-.34,2.11l0,.35c.28,1.12.42,1.68.71,2.8l.08,1c-.09,1.15-.14,1.73-.22,2.88l.69,2,.12,1.1c-.22,1-.67,1.47-1.35,1.55l.09.76,1.13-1.25c.21,1,.32,1.47.53,2.46l.16,1.31c.22,2.54-1.9,7.36-6,15-3.54,3.58-5.83,5.56-7,5.78l-.32-.39-1.07.65-1,.19c-4.12.79-7.82-.44-11-3.82-.88,2-1.59,3.09-2.16,3.19l-1.2.22c-2.37.43-5.5-1.13-9.3-4.87l-.61-.71-1-1.53.18-.43c1.79,1.39,3,2,3.56,1.94l1.25-.2c1.24-1.31,1.68-3.14,1.34-5.51l-.45-1.44.43-.85-.8-1.94c0-1.07-.06-1.6-.09-2.66-.25-1.26-.37-1.89-.61-3.15l.45-.83-.91-1.16c-.11-2-.16-3-.24-5.07l-.34-1.07c0-1.44,0-2.16,0-3.6,0-.65-.07-1-.12-1.63l.22-.41-.58-1.45c-.06-2.53-.08-3.79-.09-6.32,0-.65,0-1-.07-1.64-.13-.93-.2-1.4-.32-2.33l.44-1.57q-.49,0-.52-1.16c.07-1.13.11-1.69.19-2.81l-.5-.77h.49v-.31c-.91,0-1.75-1.44-2.46-4.37l.54-.86-.29-.39h-1.76c0-.16,0-.24,0-.39,1.51-3,2.28-4.46,3.86-7.38.05-1.59.08-2.39.15-4,.14-.93.21-1.4.36-2.33l-.18-1.18c.3-1.86.45-2.79.78-4.64-.33,0-.46-.45-.4-1.28.26-2.17.4-3.26.69-5.43l-.21-.41,0-.39c.31-1.23.47-1.84.79-3.06-.13-.67-.19-1-.31-1.68.22-1.11.33-1.66.56-2.77.69-7,1.12-10.57.92-10.6-1.45-1-2.17-1.52-3.61-2.55-1.14,1-1.71,1.47-2.84,2.46l-.24,0,.06-.4c.51-3.42,3.51-6.51,9-9l2.26.41c1.38.25,2.44,1.63,3.24,4.1,4.16-2.71,6.91-3.86,8.19-3.62l3.34,1,2.78-.23q-.18.94,2.91,1.73c2.39,2.21,3.6,3.3,6,5.44C214.23,35.85,215.92,34.19,218.44,30.82ZM180.2,79.69l-.25.39v.39h.24l.74-.38V79.7Zm0,6.22c0,.19,0,.28,0,.47h.73c0-.34,0-.51,0-.85ZM185,33.35l-.41,1-.06.38.24,0,.65-.68,0-.31.19.35.92.15,0-.31-1.1-.57-.35.34Zm.21,42.89a1.79,1.79,0,0,1-1.79,1.49c0,.31,0,.46,0,.77l2.48-1.86v-.38ZM183.35,82h.24l1-.68v-.38h-.24Q183.35,81.51,183.35,82Zm4.1-7.57c0,.3,0,.46,0,.76l.79-.36c0-.3,0-.45,0-.76Zm1-.72.46.77.93,0-.41-.77ZM190,71.77l0,.38.78,0,0-.75ZM195,29.85a.68.68,0,0,0,.64.88l.24,0,.07-.37Zm-4.18,39.77,0,.38.46.7.52-.65-.71-.41Zm7.29,69.45.05.29,1-1.31-.07-.37-.24,0Zm.91-104.65.36.81.24,0-.36-.81Zm.5,102.81.24,0,.35-.82-.24,0Zm2.62-3.52.24,0,.41-.81-.29,0ZM203,38l-.06.36,1.39,1,.19,0,.05-.36-1.34-.94Zm1.94,90.79.05.36.24,0,1.39-.94-.11-.72Zm-2.73-52.14V77l1.07-1.78V74.9Zm4.8,50.74.24,0,.37-.85-.24,0Zm.67-83.56,1,1.65.1-.71-.91-.92Zm1,81.51.24,0,.58-1.16-.24,0Zm.83-72.49.24,0,.56-.65-.24,0Zm1.33,70,.24,0,.34-.76-.19,0Zm1.62-2.71.09.7.68-.44,0-.35Zm1.54-1.89-.4.75,0,.35.48-.06.36-1.1Zm-.65-64.18c0,.47.62,1.1,2,1.89l.24,0,0-.35Zm1.94-8-.14,1,.44.06.14-1Z" transform="translate(-28)"/><path class="cls-1" d="M262.3,45.29c-.26,1.6-.39,2.4-.62,4l-.23.2.09.73c-.34,1.28-.51,1.92-.83,3.21.08.58.13.87.21,1.45-.12,1-.17,1.43-.28,2.39l-.3.91.09,1,0,.47-.39,0-.53-.53-.19,0,.83,1.5,0,.47c-.15.74-.22,1.11-.37,1.85,0,1.91,0,2.86,0,4.77-.25,1.3-.37,1.95-.59,3.25v.23c-.1,1.76,1,4.12,3.28,7,0,.28,0,.42,0,.69-1.48,2.12-2.2,3.19-3.63,5.37.16.75.23,1.13.4,1.87l-1.17.48v.24l1,.23-.18,1.23c.09.84.14,1.27.24,2.11l-1,.26v.24c.78,0,1.19.75,1.24,2.31,0,.37,0,.56,0,.94L259,95c.22,1.52.34,2.27.59,3.79.05.84.08,1.26.13,2.11l-.39,0c.32,4.73,1.17,7,2.34,6.91q.05.52,3,.4l1-.1c.18,1.75-1.48,3.48-5,5.28l-3.6,1.16-1.72-1.24c-.91,1.72-1.73,2.64-2.47,2.74a4.9,4.9,0,0,0-2-2l0,.24c0,.32.47.6,1.28.83l.09.72-.58.07a13.07,13.07,0,0,1-7-4,2.86,2.86,0,0,1-.74-1.43l.17-.27.78-.08c3-.3,4.4-1.51,4.22-3.63,0-1.11,0-1.66,0-2.76-.37-3.73-.52-5.6-.74-9.34,0-.88-.05-1.32-.08-2.2l.17-1-.22-1c.06-.88.09-1.32.15-2.21-.09-.81-.13-1.21-.22-2,.07-.59.11-.88.19-1.47-.08-.88-.12-1.32-.19-2.2-.29,0-1.29-1.41-2.91-4.3,1.32-2.05,2-3.06,3.35-5.06l-.18-.25,0-.73c.11-.71.17-1.06.29-1.76,0-.88,0-1.33-.06-2.21s.09-1.32.15-2.2.22-1.35.37-2.24c0-.59,0-.89-.07-1.48l.22-.23.19,0-.17-.26,0-.24c.63-6.87.63-10.36-.4-10.5,0-.4,0-.6-.06-1l-1.6-.22-.51-.57c-.08.58-.65.92-1.72,1l0-.25a12,12,0,0,1,4.14-3.75l.23-.22,0-.24.16.27.39.06-.16-.27,0-.24,2.58-1.33,1.16.19c.8.13,1.78,1.11,3,2.91C258.6,45.64,260.5,45,262.3,45.29Zm-14.14,65.56.44.45.19,0-.44-.45Zm1.83,2.33,0,.24.44.44,0-.24Zm-1-13.56h.19l.36-.51h-.19Zm-.25-12.35c.07.85.6,1.27,1.58,1.26l-.2-.24c0-.22,0-.33,0-.55l.2.3,1.37,0,.38-.55h-.2l-1.36.26c0-.19,0-.29,0-.49h-.2l-1.17.5c0-.2,0-.29,0-.49Zm3-39.2.32.54.19,0-.32-.54Zm1,1.37,0,.24.32.54,0-.24Zm-.47,38v.24l1,.29h.44l-.45-.77Zm.81,1.73v.48l1,0v-.24Zm1-2,.4.47h.2l.38-.48Zm2.15-32.44.44,1.26.19,0,.08-.71-.33-.52ZM254.69,89.9v.24l1.17,0v-.24ZM257,56.09l-.06.53.72.56.19,0Zm-1.62,31.12v.24H256l.19-.24h.2l.59.23h.59v-.24L256.2,87Zm2.81-29.49c0,.32.32.67.87,1l.05-.47-.73-.55Z" transform="translate(-28)"/><path class="cls-1" d="M285.68,49l1.49.25.32.48-.44.3.39.06q.09-.57.62-.48l2.14,1.14c.87.14,1.25.55,1.14,1.23l.92.14L294.1,54c.58.09,1.65-.75,3.24-2.46l.19,0-.37,1.11.11.57-.22.17c0,.41,0,.61,0,1l-.14.94-.44.34.23,1.19-.07.55-.32,1c0,.47,0,.7.05,1.17l-.11.94L296,61.71l.18.17-.3,1c-.07.7-.11,1-.18,1.74,0,1.16,0,1.74-.06,2.9a.52.52,0,0,1-.53-.65l-.39,0a2.85,2.85,0,0,1,.79,2.37l-.21.19-1.9-.14q-4.33-.32-4.29-.88c-.08-1.06-.11-1.59-.18-2.65l.21-.14,0-.21c0-.56,0-.84-.07-1.41.28-1.87.58-2.79.87-2.76l.3.86.19,0,0-.2c-1.37-3.07-2.49-4.72-3.46-4.84q0-.36-.87-.53l-1.5-.19c-2.13-.28-3.45,1.38-3.83,5-.06.58-.09.87-.15,1.44l-1.26,1.34,0,.21,1.05-.77-.33,1.43c-.08.92-.12,1.38-.19,2.3l.29.67c0,.64-.07,1-.11,1.61-.07,1-.21,1.49-.44,1.48,0,1.57.07,2.36.14,3.93h.2q.81-.77,3.65-.64l1.51.07A19.58,19.58,0,0,1,294.39,79c1.42,1.94,2.15,3.21,2.18,3.87l-1.13.59v.15h.39l.39-.35H297c.36,1.23.55,1.84.93,3.05l-.34.35c.62,0,.93,1.26,1,3.81,0,.75,0,1.12.07,1.86a14,14,0,0,1-1.13,6.77l.21.18v.15c-1.25,4.22-3.11,7.29-5.74,9.17-1.27.93-1.9,1.4-3.16,2.35l-2.76.77-1.33,0-1.28.38c-2.23.28-5.09-1.15-8.48-4.53-4.61-5.4-7.34-14-7.24-25.34-1.2-1.75-1.78-2.64-2.95-4.43V77.6c1.41-1.38,2.12-2.06,3.54-3.4l-.19-.23v-.23l.6-1.27v-.23l-.34,0c.71-4.22,1.64-7,2.64-8.26l.18.18,1.39,1.46v.17l.39,0c-.85-.91-1.27-1.38-2.1-2.31a24.37,24.37,0,0,1,4.75-9.87c1-.8,1.53-1.19,2.55-2l.39.06.48.46.06-.38q-.53-.08-.47-.51l0-.22c1.41-.74,2.12-1.1,3.54-1.81A10.57,10.57,0,0,1,285.68,49ZM269.91,69.28v.22l.54,0,0-.45ZM270,97.69h.15l.36-.47h-.2Zm2.9-1.44h.2l.37-.46h-.2Zm1.27-.95h.2l.75-.64h-.2Zm.69-27-.21.21,0,.44.81-.38,0-.22Zm.6-.18h.19l.55-.18,0-.38Q275.5,67.83,275.47,68.16Zm.19,26.47h.2l.37-.45H276Zm.48-25.54v.16l.57.26,0-.38Zm1.57-3.27-.41.78h.15l.63-.55-.18-.23Zm0,27.63h.2l.71-.46v-.16h-.2Zm1.08-28.79v.16l.37-.35,0-.22Zm.66,22.49c.08,1.67.13,2.51.24,4.18v.38l-.33.44c.17,1,.26,1.47.44,2.45v.21c0,.43-.06.65-.09,1.08.32,6.08,1.72,9,3.82,8.81l.78-.07c1.39-.13,2.29-1.3,2.74-3.5l.13-.22.19,0-.24-.61c0-1,0-1.44,0-2.4-.17-1.45-.25-2.17-.39-3.62.06-2.17.1-3.25.21-5.41-.18-1.28-.27-1.92-.43-3.21l.39-.42c-.92-3.07-2-4.65-3.34-4.67l-1,0C281,80.52,279.85,82.7,279.45,87.15Zm2.82-31.74.12.61.34,0-.07-.6Zm2.55,53.89,0,.21,1-.76,0-.42-.19,0Zm.72-1.93,0,.42.82.28.15,0Zm2.76-19.71v.41l.58-.22c0-.16,0-.25,0-.41Zm1.91-30.42,0,.2.66-.54,0-.2Zm-1.13,30.2h.2l.34-.41h-.2Zm2-1.61c0,.16,0,.24,0,.41l.78-.61h-.2Zm1.17-21.76.35.39.19,0-.35-.39Zm-.77,23.33-.19.21v.2h.2l.73-.21v-.2Zm1.51-.22v.2h.73v-.2Zm1.69-3.12h.2l.34-.4h-.2Zm1.67,2.68c0,.16,0,.24,0,.4l.58-.21v-.2Z" transform="translate(-28)"/></g></g></svg>