<svg xmlns="http://www.w3.org/2000/svg" width="1352.784" height="2111.564" viewBox="0 0 1352.784 2111.564">
  <metadata><?xpacket begin="﻿" id="W5M0MpCehiHzreSzNTczkc9d"?>
<x:xmpmeta xmlns:x="adobe:ns:meta/" x:xmptk="Adobe XMP Core 5.6-c142 79.160924, 2017/07/13-01:06:39        ">
   <rdf:RDF xmlns:rdf="http://www.w3.org/1999/02/22-rdf-syntax-ns#">
      <rdf:Description rdf:about=""/>
   </rdf:RDF>
</x:xmpmeta>
                                                                                                    
                                                                                                    
                                                                                                    
                                                                                                    
                                                                                                    
                                                                                                    
                                                                                                    
                                                                                                    
                                                                                                    
                                                                                                    
                                                                                                    
                                                                                                    
                                                                                                    
                                                                                                    
                                                                                                    
                                                                                                    
                                                                                                    
                                                                                                    
                                                                                                    
                                                                                                    
                           
<?xpacket end="w"?></metadata>
<defs>
    <style>
      .cls-1 {
        fill: #727270;
        fill-rule: evenodd;
      }
    </style>
  </defs>
  <path class="cls-1" d="M1999.34,1364.11c-8.32,80.9-34.65,159.42-78.83,234.18-2.41,3.77-240.27,384.22-240.44,618.52,0,0-8.22,71.24-8.98,75.16-22.46,81.5-80.35,93.68-112.87,93.68h-464.9c-32.46,0-90.32-12.18-113.569-97.6,0,0-8.222-71.24-8.384-74.17,0-134.96-82.314-349.52-231.77-604.14l-10.543-22.53,3.844,10.74c-45.034-72.73-72.155-151.42-80.727-235.14,0,0-2.731-52.58-2.765-53.91,0-160.4,70.348-311.17,198.047-424.5,127.823-113.5,297.727-176,478.4-176a756.865,756.865,0,0,1,190.93,24.272c107.94,28.193,207.35,80.658,287.44,151.73,127.69,113.411,198,264.15,197.97,425.86C2002.19,1310.26,1999.43,1362.84,1999.34,1364.11ZM1758.23,925.219c-72.41-64.248-162.25-111.7-259.78-137.151a685.438,685.438,0,0,0-172.6-21.934c-163.3,0-316.88,56.494-432.414,159.085-115.407,102.451-178.989,238.7-179.022,382.361,0,0,2.64,50.66,2.64,51.28,7.649,74.48,32.137,145.58,74.088,213.63l6.133,10.57c154.053,262.44,238.975,486.28,238.975,627.46v0.42s7.49,65.04,7.49,67.41c13.73,49.53,38.85,49.56,49.58,49.56h202.32l-1.17-116.37c-0.44-111.25-2.35-244.08-13.69-364.01-26.16-5.36-54.46-17.48-97.11-42.09l-16.9-9.73c-103.24-59.22-145-144.9-145-218.48a180.751,180.751,0,0,1,7.46-52.13c15.18-50.57,52.59-83.3,97.6-85.39,44.9-2.08,110.63,23.85,169.01,159.34,11.94,27.68,19.88,63.32,27.72,99.06,38.11-130.77,93.94-259.98,179.62-296.57,35.16-15.03,73.36-13.9,110.46,3.22,36.65,16.91,57.38,44.45,59.96,79.64,0.15,2.45.25,4.93,0.25,7.44,0,113.24-181.08,267.96-224.34,294.74-41.09,25.46-69.89,41.38-95.05,52.1-0.92,4.03-1.84,7.16-2.73,11.27,0,0-2.95,13.17-3.49,15.53,9.62,116.18,10.86,240.84,11.27,345.86l1.18,116.57h197.53c10.77,0,36.01,0,48.91-45.73,0,0,8.22-71.24,8.07-68.3,0-249.27,246.28-640.23,248.21-643.25,39.67-67.18,63.61-138.42,71.04-210.5,0,0,2.7-51.17,2.73-51.23C1937.18,1163.97,1873.64,1027.72,1758.23,925.219Zm-484.69,859.3c-8.7-63.26-19.97-121.95-38.42-164.83-39.67-92.05-81.3-123.43-104.87-122.32-15.65.73-30.64,17.44-38.2,42.62a125.864,125.864,0,0,0-5.08,36.17c0,55.73,33.09,124.01,115.12,171.06l17.02,9.81C1242.49,1770.51,1258.87,1778.88,1273.54,1784.52Zm99.56-22.3c13.63-7.95,25.19-14.32,44.34-26.18,40.74-25.21,191.4-165.41,191.4-243.7,0-1.43-.06-2.82-0.15-4.19-1.08-14.95-8.58-24.56-25.06-32.14-19-8.8-35.61-9.56-52.24-2.45C1490.16,1471.17,1431.16,1541.31,1373.1,1762.22Zm-339.93,695.91c0-28.42,26.68-51.45,59.52-51.45h466.23c32.8,0,59.51,23.03,59.51,51.45,0,28.52-26.71,51.61-59.51,51.61,32.8,0,59.51,23.12,59.51,51.57s-26.71,51.53-59.51,51.53c32.8,0,59.51,23.12,59.51,51.54,0,28.52-26.71,51.61-59.51,51.61H1092.69c-32.84,0-59.52-23.09-59.52-51.61,0-28.42,26.68-51.54,59.52-51.54-32.84,0-59.52-23.09-59.52-51.53s26.68-51.57,59.52-51.57C1059.85,2509.74,1033.17,2486.65,1033.17,2458.13Zm122.68,190.51h256.41c18.13,0,32.71-13.05,32.71-29.15s-14.58-29.12-32.71-29.12H1155.85c-18.01,0-32.71,13.03-32.71,29.12S1137.84,2648.64,1155.85,2648.64Zm-5.88-116.48h351.66c18.17,0,32.87-13.03,32.87-29.13,0-16.03-14.7-29.06-32.87-29.06H1149.97c-18.16,0-32.87,13.03-32.87,29.06C1117.1,2519.13,1131.81,2532.16,1149.97,2532.16Zm175.88,287.8c-76.66,0-144.47-33.1-186.71-84.01h373.35C1470.31,2786.86,1402.42,2819.96,1325.85,2819.96Z" transform="translate(-649.406 -708.406)"/>
</svg>
