<svg xmlns="http://www.w3.org/2000/svg" xmlns:xlink="http://www.w3.org/1999/xlink" preserveAspectRatio="xMidYMid" width="2550" height="3300" viewBox="0 0 2550 3300">
  <defs>
    <style>
      .cls-1 {
        fill: #f6c120;
      }

      .cls-1, .cls-2 {
        fill-rule: evenodd;
      }

      .cls-2 {
        fill: #727270;
      }
    </style>
  </defs>
  <path d="M2101.342,1700.501 C2017.962,1645.266 1997.206,1538.244 2054.977,1461.457 C2101.639,1399.437 2185.247,1376.136 2259.613,1398.560 C2261.853,1360.098 2261.334,1322.017 2258.267,1284.475 C2236.254,1290.563 2212.576,1292.876 2188.163,1290.598 C2087.068,1281.158 2011.884,1197.209 2020.226,1103.094 C2026.867,1028.217 2084.391,969.511 2158.526,953.372 C2140.180,919.708 2119.601,887.205 2096.916,856.060 C2081.822,870.505 2063.675,882.646 2042.767,891.511 C1951.045,930.395 1841.578,892.014 1798.259,805.786 C1764.393,738.379 1780.979,661.685 1833.651,612.845 C1800.720,592.431 1766.313,573.874 1730.603,557.312 C1725.283,575.785 1716.522,593.679 1704.112,610.174 C1646.340,686.962 1531.924,704.435 1448.548,649.198 C1384.412,606.711 1357.380,533.590 1374.587,467.150 C1335.288,464.594 1296.396,464.332 1258.071,466.279 C1262.818,484.064 1264.638,502.798 1262.939,521.971 C1254.598,616.087 1165.886,684.730 1064.795,675.291 C987.664,668.088 925.661,617.493 904.286,552.117 C869.784,567.876 836.480,585.614 804.531,605.173 C817.660,618.275 828.878,633.448 837.464,650.539 C880.785,736.765 841.554,838.185 749.835,877.068 C679.802,906.758 599.454,891.361 546.072,844.056 C524.846,873.675 505.515,904.644 488.294,936.857 C506.870,942.190 524.913,950.312 541.690,961.424 C625.067,1016.657 645.825,1123.678 588.056,1200.464 C543.568,1259.599 465.486,1283.511 393.854,1266.174 C391.346,1302.901 391.339,1339.295 393.684,1375.216 C413.126,1370.839 433.718,1369.353 454.868,1371.327 C555.960,1380.767 631.148,1464.714 622.807,1558.830 C616.277,1632.510 560.482,1690.573 488.057,1707.783 C505.642,1741.272 525.419,1773.659 547.268,1804.738 C562.130,1790.784 579.895,1779.051 600.266,1770.414 C691.986,1731.529 801.454,1769.909 844.776,1856.135 C879.302,1924.851 861.353,2003.189 806.233,2051.860 C839.626,2073.312 874.568,2092.877 910.934,2110.313 C916.017,2089.825 925.241,2069.935 938.923,2051.751 C996.692,1974.960 1111.111,1957.489 1194.487,2012.721 C1261.889,2057.371 1288.344,2135.863 1265.498,2204.869 C1306.958,2208.089 1347.980,2208.760 1388.389,2206.969 C1381.097,2185.902 1378.028,2163.241 1380.093,2139.952 C1388.435,2045.832 1477.145,1977.193 1578.236,1986.629 C1660.715,1994.334 1725.933,2051.638 1742.626,2123.593 C1779.731,2106.961 1815.451,2088.014 1849.634,2067.013 C1831.639,2051.826 1816.495,2033.134 1805.569,2011.386 C1762.245,1925.157 1801.478,1823.738 1893.195,1784.854 C1968.011,1753.139 2054.621,1772.841 2107.521,1827.969 C2130.133,1796.333 2150.521,1763.123 2168.553,1728.545 C2145.119,1723.625 2122.252,1714.353 2101.342,1700.501 ZM1313.576,1481.828 C1227.353,1473.777 1163.221,1402.173 1170.336,1321.899 C1177.451,1241.624 1253.116,1183.075 1339.341,1191.126 C1425.565,1199.177 1489.696,1270.780 1482.582,1351.054 C1475.466,1431.329 1399.801,1489.878 1313.576,1481.828 Z" class="cls-1"/>
  <path d="M1999.335,1364.106 C1991.016,1445.011 1964.689,1523.526 1920.514,1598.289 C1918.100,1602.064 1680.236,1982.510 1680.074,2216.808 C1680.074,2216.808 1671.846,2288.049 1671.085,2291.969 C1648.634,2373.469 1590.742,2385.645 1558.221,2385.645 L1093.317,2385.645 C1060.861,2385.645 1003.003,2373.469 979.751,2288.049 C979.751,2288.049 971.529,2216.808 971.367,2213.876 C971.367,2078.923 889.053,1864.359 739.597,1609.737 L729.054,1587.209 L732.898,1597.953 C687.864,1525.218 660.743,1446.535 652.171,1362.806 C652.171,1362.806 649.440,1310.232 649.406,1308.905 C649.406,1148.496 719.754,997.730 847.453,884.400 C975.276,770.897 1145.179,708.398 1325.847,708.398 C1390.731,708.398 1454.945,716.544 1516.778,732.670 C1624.718,760.863 1724.126,813.328 1804.216,884.400 C1931.915,997.811 2002.223,1148.554 2002.190,1310.255 C2002.190,1310.255 1999.433,1362.836 1999.335,1364.106 ZM1758.233,925.219 C1685.823,860.971 1595.978,813.524 1498.450,788.068 C1442.587,773.524 1384.507,766.134 1325.847,766.134 C1162.552,766.134 1008.973,822.628 893.436,925.219 C778.029,1027.666 714.447,1163.918 714.414,1307.582 C714.414,1307.582 717.054,1358.240 717.054,1358.858 C724.703,1433.342 749.191,1504.439 791.142,1572.492 L797.275,1583.064 C951.328,1845.496 1036.251,2069.339 1036.251,2210.521 C1036.251,2210.665 1036.251,2210.804 1036.251,2210.942 C1036.251,2210.942 1043.743,2275.982 1043.743,2278.349 C1057.467,2327.880 1082.585,2327.910 1093.317,2327.910 L1295.637,2327.910 L1294.472,2211.537 C1294.030,2100.291 1292.124,1967.458 1280.781,1847.529 C1254.616,1842.171 1226.317,1830.052 1183.670,1805.439 L1166.773,1795.711 C1063.528,1736.486 1021.766,1650.811 1021.766,1577.232 C1021.766,1558.906 1024.342,1541.315 1029.233,1525.102 C1044.414,1474.531 1081.824,1441.801 1126.826,1439.711 C1171.728,1437.627 1237.464,1463.562 1295.838,1599.051 C1307.779,1626.734 1315.720,1662.370 1323.564,1698.114 C1361.672,1567.336 1417.501,1438.134 1503.185,1401.541 C1538.339,1386.512 1576.544,1387.644 1613.636,1404.758 C1650.285,1421.668 1671.020,1449.214 1673.596,1484.398 C1673.752,1486.846 1673.849,1489.329 1673.849,1491.840 C1673.849,1605.084 1492.766,1759.799 1449.514,1786.577 C1408.422,1812.039 1379.616,1827.962 1354.465,1838.678 C1353.541,1842.708 1352.617,1845.837 1351.733,1849.954 C1351.733,1849.954 1348.781,1863.117 1348.240,1865.484 C1357.860,1981.661 1359.102,2106.324 1359.511,2211.341 L1360.690,2327.910 L1558.221,2327.910 C1568.986,2327.910 1594.235,2327.910 1607.125,2282.183 C1607.125,2282.183 1615.352,2210.942 1615.197,2213.876 C1615.197,1964.606 1861.477,1573.652 1863.415,1570.633 C1903.076,1503.452 1927.024,1432.211 1934.452,1360.127 C1934.452,1360.127 1937.150,1308.962 1937.183,1308.905 C1937.183,1163.969 1873.639,1027.724 1758.233,925.219 ZM1273.542,1784.521 C1264.840,1721.261 1253.569,1662.565 1235.116,1619.686 C1195.448,1527.643 1153.817,1496.263 1130.253,1497.366 C1114.597,1498.099 1099.606,1514.814 1092.048,1539.987 C1088.712,1551.095 1086.968,1563.306 1086.968,1576.158 C1086.968,1631.890 1120.061,1700.175 1202.089,1747.224 L1219.110,1757.033 C1242.486,1770.509 1258.870,1778.880 1273.542,1784.521 ZM1373.105,1762.224 C1386.731,1754.274 1398.289,1747.899 1417.437,1736.035 C1458.183,1710.827 1608.842,1570.633 1608.842,1492.343 C1608.842,1490.905 1608.777,1489.525 1608.686,1488.146 C1607.607,1473.203 1600.108,1463.590 1583.627,1456.009 C1564.635,1447.211 1548.023,1446.449 1531.386,1453.556 C1490.164,1471.171 1431.160,1541.315 1373.105,1762.224 ZM1033.168,2458.127 C1033.168,2429.710 1059.847,2406.679 1092.686,2406.679 L1558.918,2406.679 C1591.724,2406.679 1618.435,2429.710 1618.435,2458.127 C1618.435,2486.654 1591.724,2509.743 1558.918,2509.743 C1591.724,2509.743 1618.435,2532.861 1618.435,2561.307 C1618.435,2589.754 1591.724,2612.842 1558.918,2612.842 C1591.724,2612.842 1618.435,2635.960 1618.435,2664.378 C1618.435,2692.905 1591.724,2715.994 1558.918,2715.994 L1092.686,2715.994 C1059.847,2715.994 1033.168,2692.905 1033.168,2664.378 C1033.168,2635.960 1059.847,2612.842 1092.686,2612.842 C1059.847,2612.842 1033.168,2589.754 1033.168,2561.307 C1033.168,2532.861 1059.847,2509.743 1092.686,2509.743 C1059.847,2509.743 1033.168,2486.654 1033.168,2458.127 ZM1155.853,2648.644 L1412.259,2648.644 C1430.393,2648.644 1444.974,2635.591 1444.974,2619.494 C1444.974,2603.397 1430.393,2590.372 1412.259,2590.372 L1155.853,2590.372 C1137.843,2590.372 1123.138,2603.397 1123.138,2619.494 C1123.138,2635.591 1137.843,2648.644 1155.853,2648.644 ZM1149.973,2532.157 L1501.631,2532.157 C1519.796,2532.157 1534.495,2519.131 1534.495,2503.035 C1534.495,2486.995 1519.796,2473.970 1501.631,2473.970 L1149.973,2473.970 C1131.807,2473.970 1117.102,2486.995 1117.102,2503.035 C1117.102,2519.131 1131.807,2532.157 1149.973,2532.157 ZM1325.847,2819.964 C1249.185,2819.964 1181.381,2786.864 1139.143,2735.953 L1512.486,2735.953 C1470.314,2786.864 1402.418,2819.964 1325.847,2819.964 Z" class="cls-2"/>
</svg>
